<?xml version="1.0" standalone="no"?>
<!DOCTYPE svg PUBLIC "-//W3C//DTD SVG 1.1//EN" "http://www.w3.org/Graphics/SVG/1.1/DTD/svg11.dtd" >
<svg>
<metadata>
Created by FontForge 20090622 at Thu Mar 22 15:10:43 2018
 By deploy user
Copyright (c) 2013 by S-Core Co., Ltd.. All rights reserved.
</metadata>
<defs>
<font id="CoreSansNR-35LightItalic" horiz-adv-x="1000" >
  <font-face 
    font-family="Core Sans NR Lt"
    font-weight="300"
    font-style="italic"
    font-stretch="normal"
    units-per-em="1000"
    panose-1="2 15 3 3 3 3 2 2 2 4"
    ascent="800"
    descent="-200"
    x-height="518"
    cap-height="700"
    bbox="-432.286 -310 1042.46 999"
    underline-thickness="12"
    underline-position="-92"
    slope="-11"
    unicode-range="U+0008-U+FB04"
  />
<missing-glyph horiz-adv-x="300" 
 />
    <glyph glyph-name="f_f" unicode="ff" horiz-adv-x="631" 
d="M432 668q-26 8 -63 8q-57 0 -88 -30.5t-45 -102.5l-5 -25h231l7 34q17 89 65.5 133.5t122.5 44.5q39 0 58 -6q11 -3 8 -14l-10 -30q-5 -14 -18 -9q-15 5 -45 5q-52 0 -80.5 -30.5t-42.5 -102.5l-5 -25h137q6 0 9.5 -4t1.5 -10l-4 -24q-2 -14 -17 -14h-137l-125 -645
q-2 -14 -18 -14h-31q-13 0 -11 14l125 645h-231l-125 -645q-2 -14 -18 -14h-31q-13 0 -11 14l125 645h-95q-14 0 -12 14l4 24q5 14 18 14h95l7 34q34 178 198 178q44 0 76 -8q11 -3 7 -15l-9 -30q-7 -13 -18 -9z" />
    <glyph glyph-name="f_i" unicode="fi" horiz-adv-x="562" 
d="M523 504l-95 -490q-2 -14 -16 -14h-32q-14 0 -12 14l95 490q5 14 17 14h32q6 0 9.5 -4t1.5 -10zM537 730q21 0 27.5 -12t0.5 -41q-10 -53 -48 -53t-28 53q11 53 48 53zM171 518l7 34q17 89 65.5 133.5t122.5 44.5q39 0 58 -6q11 -3 8 -14l-10 -30q-5 -14 -18 -9
q-15 5 -45 5q-52 0 -80.5 -30.5t-42.5 -102.5l-5 -25h137q6 0 9.5 -4t1.5 -10l-4 -24q-2 -14 -17 -14h-137l-125 -645q-2 -14 -18 -14h-31q-13 0 -11 14l125 645h-95q-14 0 -12 14l4 24q5 14 18 14h95z" />
    <glyph glyph-name="f_l" unicode="fl" horiz-adv-x="554" 
d="M565 716l-137 -702q-2 -14 -16 -14h-32q-14 0 -12 14l137 702q2 14 16 14h32q14 0 12 -14zM171 518l7 34q17 89 65.5 133.5t122.5 44.5q39 0 58 -6q11 -3 8 -14l-10 -30q-5 -14 -18 -9q-15 5 -45 5q-52 0 -80.5 -30.5t-42.5 -102.5l-5 -25h137q6 0 9.5 -4t1.5 -10l-4 -24
q-2 -14 -17 -14h-137l-125 -645q-2 -14 -18 -14h-31q-13 0 -11 14l125 645h-95q-14 0 -12 14l4 24q5 14 18 14h95z" />
    <glyph glyph-name="f_f_i" unicode="ffi" horiz-adv-x="853" 
d="M814 504l-95 -490q-2 -14 -16 -14h-32q-14 0 -12 14l95 490q5 14 17 14h32q6 0 9.5 -4t1.5 -10zM828 730q21 0 27.5 -12t0.5 -41q-10 -53 -48 -53t-28 53q11 53 48 53zM432 668q-26 8 -63 8q-57 0 -88 -30.5t-45 -102.5l-5 -25h231l7 34q17 89 65.5 133.5t122.5 44.5
q39 0 58 -6q11 -3 8 -14l-10 -30q-5 -14 -18 -9q-15 5 -45 5q-52 0 -80.5 -30.5t-42.5 -102.5l-5 -25h137q6 0 9.5 -4t1.5 -10l-4 -24q-2 -14 -17 -14h-137l-125 -645q-2 -14 -18 -14h-31q-13 0 -11 14l125 645h-231l-125 -645q-2 -14 -18 -14h-31q-13 0 -11 14l125 645h-95
q-14 0 -12 14l4 24q5 14 18 14h95l7 34q34 178 198 178q44 0 76 -8q11 -3 7 -15l-9 -30q-7 -13 -18 -9z" />
    <glyph glyph-name="f_f_l" unicode="ffl" horiz-adv-x="845" 
d="M856 716l-137 -702q-2 -14 -16 -14h-32q-14 0 -12 14l137 702q2 14 16 14h32q14 0 12 -14zM432 668q-26 8 -63 8q-57 0 -88 -30.5t-45 -102.5l-5 -25h231l7 34q17 89 65.5 133.5t122.5 44.5q39 0 58 -6q11 -3 8 -14l-10 -30q-5 -14 -18 -9q-15 5 -45 5q-52 0 -80.5 -30.5
t-42.5 -102.5l-5 -25h137q6 0 9.5 -4t1.5 -10l-4 -24q-2 -14 -17 -14h-137l-125 -645q-2 -14 -18 -14h-31q-13 0 -11 14l125 645h-231l-125 -645q-2 -14 -18 -14h-31q-13 0 -11 14l125 645h-95q-14 0 -12 14l4 24q5 14 18 14h95l7 34q34 178 198 178q44 0 76 -8q11 -3 7 -15
l-9 -30q-7 -13 -18 -9z" />
    <glyph glyph-name=".notdef" horiz-adv-x="300" 
 />
    <glyph glyph-name=".null" horiz-adv-x="0" 
 />
    <glyph glyph-name="nonmarkingreturn" horiz-adv-x="333" 
 />
    <glyph glyph-name="NULL" horiz-adv-x="0" 
 />
    <glyph glyph-name="NULL" horiz-adv-x="0" 
 />
    <glyph glyph-name="NULL" horiz-adv-x="0" 
 />
    <glyph glyph-name="CR" unicode="&#x9;" horiz-adv-x="237" 
 />
    <glyph glyph-name="CR" unicode="&#xd;" horiz-adv-x="237" 
 />
    <glyph glyph-name="space" unicode=" " horiz-adv-x="300" 
 />
    <glyph glyph-name="exclam" unicode="!" horiz-adv-x="260" 
d="M95 183l44 300l40 203q2 14 17 14h39q14 0 12 -14l-40 -203l-71 -300q-6 -14 -17 -14h-13q-13 0 -11 14zM131 44q-11 -56 -54 -56t-32 56t54 56t32 -56z" />
    <glyph glyph-name="quotedbl" unicode="&#x22;" horiz-adv-x="435" 
d="M143 437l42 249q2 14 17 14h41q13 0 11 -14l-7 -34l-54 -216q-6 -13 -17 -13h-21q-14 0 -12 14zM305 437l42 249q2 14 17 14h41q13 0 11 -14l-7 -34l-54 -216q-6 -13 -17 -13h-21q-14 0 -12 14z" />
    <glyph glyph-name="numbersign" unicode="#" horiz-adv-x="684" 
d="M577 187h-116l-64 -175q-5 -12 -17 -12h-32q-7 0 -10.5 5t-0.5 12l62 170h-205l-64 -175q-5 -12 -17 -12h-32q-7 0 -10.5 5t-0.5 12l62 170h-96q-13 0 -11 15l5 25q2 14 17 14h105l85 232h-104q-14 0 -12 15l5 25q2 14 17 14h114l59 161q5 12 17 12h33q7 0 10 -4.5
t0 -11.5l-58 -157h206l59 161q5 12 17 12h33q7 0 10 -4.5t0 -11.5l-58 -157h99q13 0 11 -14l-5 -25q-2 -15 -17 -15h-107l-85 -232h106q14 0 12 -14l-5 -25q-2 -15 -17 -15zM299 473l-85 -232h205l85 232h-205z" />
    <glyph glyph-name="dollar" unicode="$" horiz-adv-x="536" 
d="M525 674l-9 -35q-5 -18 -21 -10q-53 23 -119 25l-53 -270q93 -37 128.5 -84.5t20.5 -121.5q-14 -75 -73.5 -125t-151.5 -62l-10 -52q-2 -14 -17 -14h-23q-13 0 -11 14l9 49h-4q-97 0 -169 41q-8 5 -5 16l10 35q5 19 21 10q69 -44 158 -44l57 291q-96 33 -134 79.5
t-24 123.5q14 72 76 117t155 53l10 53q2 14 17 14h23q13 0 11 -14l-10 -51q76 -1 131 -22q10 -4 7 -16zM406 176q10 49 -13.5 82t-82.5 60l-52 -268q127 20 148 126zM172 542q-10 -47 14 -79.5t90 -60.5l48 250q-64 -7 -104 -36.5t-48 -73.5z" />
    <glyph glyph-name="percent" unicode="%" horiz-adv-x="885" 
d="M122 22l610 672q4 6 13 6h36q10 0 11.5 -7.5t-5.5 -14.5l-609 -672q-6 -6 -12 -6h-37q-9 0 -11.5 7.5t4.5 14.5zM128 526q16 81 68 131t123 50q72 0 104.5 -50t16.5 -131q-15 -79 -67.5 -130t-123.5 -51t-103.5 51t-17.5 130zM189 526q-11 -59 7.5 -92.5t63.5 -33.5
q44 0 76.5 34t42.5 92q12 58 -7 92.5t-63 34.5t-76 -34t-44 -93zM470 173q14 80 66.5 130.5t123.5 50.5q72 0 104 -50t17 -131q-16 -79 -68 -130t-124 -51q-71 0 -103 51t-16 130zM531 173q-12 -59 6.5 -92.5t62.5 -33.5q45 0 76.5 33t43.5 93q11 59 -7.5 93t-63.5 34
q-44 0 -76 -34.5t-42 -92.5z" />
    <glyph glyph-name="ampersand" unicode="&#x26;" horiz-adv-x="642" 
d="M499 143l99 -119q7 -8 2 -16t-17 -8h-32q-15 0 -28 15l-66 79q-101 -107 -251 -107q-92 0 -144.5 49t-36.5 135q27 135 194 207q-81 98 -65 180q14 69 71.5 111.5t132.5 42.5q79 0 119 -44t26 -117q-22 -118 -188 -186l146 -175q47 78 66 170q2 14 17 14h33q13 0 11 -15
q-27 -120 -89 -216zM87 169q-12 -55 24 -91.5t107 -36.5q120 0 204 94l-169 203q-78 -33 -116.5 -73.5t-49.5 -95.5zM441 550q8 49 -16.5 79t-78.5 30q-51 0 -85.5 -28t-44.5 -73q-6 -31 7.5 -64.5t59.5 -88.5q77 35 113 69t45 76z" />
    <glyph glyph-name="quotesingle" unicode="'" horiz-adv-x="262" 
d="M137 437l43 249q2 14 18 14h38q14 0 12 -14l-7 -34l-53 -216q-6 -13 -17 -13h-23q-13 0 -11 14z" />
    <glyph glyph-name="parenleft" unicode="(" horiz-adv-x="343" 
d="M111 310q46 227 232 434q5 6 13 6h26q9 0 10 -7.5t-5 -14.5q-174 -209 -215 -418q-40 -216 53 -418q3 -8 -1.5 -15t-13.5 -7h-25q-9 0 -11 5q-105 206 -63 435z" />
    <glyph glyph-name="parenright" unicode=")" horiz-adv-x="343" 
d="M240 310q-44 -226 -231 -435q-5 -5 -14 -5h-25q-9 0 -10.5 7t4.5 15q175 207 215 418q41 215 -52 418q-4 7 0.5 14.5t13.5 7.5h26q7 0 11 -6q106 -217 62 -434z" />
    <glyph glyph-name="asterisk" unicode="*" horiz-adv-x="525" 
d="M328 332l134 -72q12 -7 5 -20l-16 -28q-7 -14 -20 -7l-130 80l4 -151q1 -6 -3.5 -10.5t-10.5 -4.5h-34q-14 0 -14 15l5 151l-130 -79q-13 -6 -19 4l-18 31q-7 12 6 19l134 72l-133 72q-5 2 -7.5 8.5t0.5 11.5l17 30q7 12 20 5l130 -80l-5 152q0 14 14 14h34q14 0 14 -14
l-4 -153l130 81q12 7 19 -6l17 -29q7 -13 -4 -19z" />
    <glyph glyph-name="plus" unicode="+" horiz-adv-x="612" 
d="M290 106v198h-199q-14 0 -14 14v28q0 14 14 14h199v199q0 14 15 14h33q14 0 14 -14v-199h199q14 0 14 -14v-28q0 -14 -14 -14h-199v-198q0 -15 -14 -15h-33q-6 0 -10.5 4.5t-4.5 10.5z" />
    <glyph glyph-name="comma" unicode="," horiz-adv-x="292" 
d="M146 44q-11 -56 -30 -92.5t-58 -69.5q-8 -6 -13 1l-6 11q-2 7 6 13q34 40 45 81q-41 1 -30 56q6 30 19 43t36 13q42 0 31 -56z" />
    <glyph glyph-name="hyphen" unicode="-" horiz-adv-x="399" 
d="M330 301h-247q-13 0 -11 14l6 34q2 14 17 14h247q13 0 11 -14l-6 -34q-2 -14 -17 -14z" />
    <glyph glyph-name="period" unicode="." horiz-adv-x="292" 
d="M147 44q-11 -56 -54 -56t-32 56t54 56t32 -56z" />
    <glyph glyph-name="slash" unicode="/" horiz-adv-x="479" 
d="M562 729l-578 -831q-5 -8 -14 -8h-35q-9 0 -11 6.5t4 13.5l577 830q5 8 14 8h35q9 0 11 -6t-3 -13z" />
    <glyph glyph-name="zero" unicode="0" horiz-adv-x="584" 
d="M61 350q33 165 117 263.5t202 98.5t165 -99.5t14 -262.5q-33 -164 -117 -263t-202 -99q-119 0 -165.5 99.5t-13.5 262.5zM127 350q-26 -142 5 -223t119 -81q87 0 151.5 82t90.5 222q29 141 -4 222.5t-120 81.5t-150 -80.5t-92 -223.5z" />
    <glyph glyph-name="one" unicode="1" horiz-adv-x="584" 
d="M375 626l-157 -96q-11 -6 -17 4l-13 24q-6 12 8 21l189 115q11 6 24 6h30q13 0 11 -14l-130 -672q-2 -14 -17 -14h-35q-14 0 -12 14z" />
    <glyph glyph-name="two" unicode="2" horiz-adv-x="584" 
d="M429 0h-396q-13 0 -11 14l7 35q2 10 8 14q142 102 287 234q130 122 151 226q12 61 -25.5 96t-111.5 35q-73 0 -146 -31q-8 -4 -13.5 -1t-4.5 10l3 33q2 10 11 14q75 33 165 33q98 0 151 -50t36 -141q-12 -64 -52 -124t-114 -127q-101 -95 -256 -214h321q14 0 12 -14
l-5 -28q-2 -14 -17 -14z" />
    <glyph glyph-name="three" unicode="3" horiz-adv-x="584" 
d="M180 353l5 29q2 12 16 14q110 4 180.5 41.5t84.5 105.5q11 50 -24.5 80.5t-114.5 30.5q-82 0 -151 -28q-8 -3 -13.5 -0.5t-4.5 10.5l2 28q1 12 13 17q79 31 166 31q106 0 158 -45t37 -119q-31 -145 -215 -181q88 -17 127.5 -65.5t25.5 -123.5q-16 -84 -92.5 -137
t-192.5 -53q-96 0 -158 25q-10 4 -6 16l9 34q6 17 21 10q58 -27 143 -27q88 0 143 36.5t67 95.5q14 73 -40 114t-176 47q-12 0 -10 14z" />
    <glyph glyph-name="four" unicode="4" horiz-adv-x="584" 
d="M371 161h-338q-13 0 -11 15l6 34q2 11 11 22l431 463q7 5 14 5h41q14 0 12 -14l-91 -469h76q13 0 11 -14l-5 -27q-2 -15 -17 -15h-76l-29 -147q-2 -14 -17 -14h-35q-14 0 -12 14zM456 601l-355 -384h281z" />
    <glyph glyph-name="five" unicode="5" horiz-adv-x="584" 
d="M131 360l64 326q2 14 17 14h348q13 0 11 -14l-6 -27q-2 -15 -16 -15h-298l-46 -234q48 16 108 16q105 0 157.5 -56.5t31.5 -159.5q-18 -97 -99.5 -159.5t-199.5 -62.5q-95 0 -155 27q-9 5 -6 15l10 36q6 17 23 10q57 -30 136 -30q90 0 151.5 45t74.5 124q30 153 -148 153
q-73 0 -142 -21q-8 -3 -12.5 1t-3.5 12z" />
    <glyph glyph-name="six" unicode="6" horiz-adv-x="584" 
d="M255 -12q-116 0 -168 86t-18 258q37 190 133.5 285t227.5 95q74 0 127 -22q9 -4 7 -15l-10 -35q-6 -17 -22 -9q-51 23 -114 23q-97 0 -165.5 -68.5t-109.5 -221.5q44 42 99 63.5t101 21.5q101 0 151.5 -63t30.5 -168q-19 -101 -97 -165.5t-173 -64.5zM459 217
q15 81 -18 127.5t-114 46.5q-111 0 -198 -99q-19 -125 18 -185.5t117 -60.5q73 0 126 47.5t69 123.5z" />
    <glyph glyph-name="seven" unicode="7" horiz-adv-x="584" 
d="M553 625l-375 -616q-4 -9 -15 -9h-39q-8 0 -10 6.5t2 14.5l381 623h-344q-14 0 -12 15l6 27q2 14 17 14h395q14 0 12 -14l-7 -34q-1 -9 -11 -27z" />
    <glyph glyph-name="eight" unicode="8" horiz-adv-x="584" 
d="M241 -12q-108 0 -166 51t-40 139q12 64 66 113.5t136 79.5q-124 62 -103 169q15 72 83.5 122t163.5 50q97 0 146 -49t34 -122q-23 -112 -176 -173q81 -37 112 -83t21 -105q-18 -88 -93.5 -140t-183.5 -52zM453 175q10 51 -22.5 88.5t-132.5 79.5q-86 -28 -136.5 -71
t-60.5 -95q-12 -59 31.5 -95.5t119.5 -36.5t133.5 37t67.5 93zM202 543q-11 -53 17.5 -83.5t107.5 -65.5q150 54 169 150q9 47 -24.5 78.5t-101.5 31.5q-63 0 -111.5 -32t-56.5 -79z" />
    <glyph glyph-name="nine" unicode="9" horiz-adv-x="584" 
d="M363 712q115 0 166.5 -85t19.5 -258q-38 -193 -134 -287t-228 -94q-76 0 -126 23q-9 4 -7 14l10 36q5 16 22 9q52 -24 113 -24q202 0 275 290q-44 -40 -99 -62.5t-101 -22.5q-100 0 -151.5 63.5t-29.5 167.5q20 102 97 166t173 64zM159 483q-16 -78 18 -126t114 -48
q111 0 197 99q19 125 -18 185.5t-117 60.5q-72 0 -126 -47.5t-68 -123.5z" />
    <glyph glyph-name="colon" unicode=":" horiz-adv-x="292" 
d="M147 44q-11 -56 -54 -56t-32 56t54 56t32 -56zM231 474q-11 -56 -54 -56t-32 56t54 56t32 -56z" />
    <glyph glyph-name="semicolon" unicode=";" horiz-adv-x="292" 
d="M230 474q-11 -56 -54 -56t-32 56t54 56t32 -56zM146 44q-11 -56 -30 -92.5t-58 -69.5q-8 -6 -13 1l-6 11q-2 7 6 13q34 40 45 81q-41 1 -30 56q6 30 19 43t36 13q42 0 31 -56z" />
    <glyph glyph-name="less" unicode="&#x3c;" horiz-adv-x="612" 
d="M77 312v40q0 11 9 13l459 209q8 4 14 0.5t6 -12.5v-33q0 -8 -9 -13l-407 -184l407 -184q9 -2 9 -13v-32q0 -9 -6 -12.5t-13 -0.5l-460 209q-9 7 -9 13z" />
    <glyph glyph-name="equal" unicode="=" horiz-adv-x="612" 
d="M551 414h-460q-14 0 -14 14v28q0 14 14 14h460q14 0 14 -14v-28q0 -14 -14 -14zM551 194h-460q-14 0 -14 15v27q0 14 14 14h460q14 0 14 -14v-27q0 -15 -14 -15z" />
    <glyph glyph-name="greater" unicode="&#x3e;" horiz-adv-x="612" 
d="M565 352v-40q0 -7 -8 -13l-460 -209q-8 -3 -14 0.5t-6 12.5v32q0 11 9 13l407 184l-407 184q-9 7 -9 13v33q0 9 6.5 12.5t13.5 -0.5l460 -209q8 -2 8 -13z" />
    <glyph glyph-name="question" unicode="?" horiz-adv-x="520" 
d="M306 393q63 39 93 75.5t39 79.5q9 50 -24.5 78t-111.5 28q-84 0 -157 -33q-8 -3 -13 -0.5t-4 10.5l3 30q0 11 12 16q80 35 165 35q105 0 157.5 -45.5t38.5 -120.5q-12 -56 -49.5 -99.5t-111.5 -92.5q-49 -32 -71.5 -66t-32.5 -90l-2 -10q-2 -14 -17 -14h-35q-14 0 -12 14
l3 13q12 67 41.5 110.5t88.5 81.5zM219 44q-11 -56 -54 -56t-32 56t54 56t32 -56z" />
    <glyph glyph-name="at" unicode="@" horiz-adv-x="971" 
d="M729 385l-74 -194q-9 -45 6 -70.5t48 -25.5q57 0 104.5 58t63.5 142q30 157 -58.5 262t-258.5 105q-161 0 -293.5 -111.5t-162.5 -276.5q-32 -166 59 -276t260 -110q134 0 246 65q17 9 19 -6l6 -20q5 -11 -8 -17q-134 -72 -273 -72q-191 0 -295 124.5t-68 311.5
q36 188 186 313t333 125q193 0 294.5 -117.5t67.5 -299.5q-21 -106 -85.5 -175.5t-148.5 -69.5q-41 0 -66.5 23t-27.5 72q-97 -90 -218 -90q-76 0 -117 47t-27 121q23 118 119.5 195.5t201.5 77.5q121 0 167 -88q4 -10 0 -23zM399 109q113 0 198 93l70 186q-31 56 -117 56
q-82 0 -155 -63t-91 -152q-10 -56 15.5 -88t79.5 -32z" />
    <glyph glyph-name="A" unicode="A" horiz-adv-x="640" 
d="M375 700h52q10 0 12 -10l135 -670q5 -20 -15 -20h-41q-9 0 -12 10l-34 181h-339l-106 -181q-4 -10 -15 -10h-40q-9 0 -11.5 6t2.5 14l396 670q8 10 16 10zM387 629l-221 -382h295z" />
    <glyph glyph-name="B" unicode="B" horiz-adv-x="618" 
d="M34 15l130 671q2 14 18 14h217q104 0 155 -50t36 -131q-22 -112 -123 -151q119 -37 96 -173q-18 -92 -94 -143.5t-197 -51.5h-226q-14 0 -12 15zM496 195q14 74 -29.5 107t-147.5 33h-159l-54 -279h169q195 0 221 139zM523 517q12 60 -25 93.5t-118 33.5h-160l-49 -253
h153q90 0 138.5 29.5t60.5 96.5z" />
    <glyph glyph-name="C" unicode="C" horiz-adv-x="603" 
d="M629 689q11 -5 8 -17l-8 -31q-6 -19 -24 -11q-49 24 -119 24q-138 0 -233 -83t-122 -221q-29 -139 36 -221.5t203 -82.5q69 0 129 25q9 4 15 1t5 -11l-4 -31q-2 -13 -15 -17q-63 -25 -144 -25q-165 0 -244 99.5t-47 262.5q30 162 148 262t282 100q79 0 134 -23z" />
    <glyph glyph-name="D" unicode="D" horiz-adv-x="672" 
d="M642 350q-33 -170 -154 -260t-297 -90h-145q-14 0 -12 15l130 671q2 14 18 14h145q176 0 262 -90t53 -260zM576 350q29 148 -42.5 221t-226.5 73h-87l-114 -588h87q155 0 254.5 73t128.5 221z" />
    <glyph glyph-name="E" unicode="E" horiz-adv-x="557" 
d="M34 15l130 671q2 14 18 14h395q13 0 11 -14l-5 -27q-2 -15 -17 -15h-346l-49 -254h320q14 0 12 -14l-5 -27q-1 -6 -6.5 -10.5t-11.5 -4.5h-320l-54 -278h354q14 0 12 -14l-5 -27q-2 -15 -17 -15h-404q-14 0 -12 15z" />
    <glyph glyph-name="F" unicode="F" horiz-adv-x="530" 
d="M34 15l130 671q2 14 18 14h395q13 0 11 -14l-5 -27q-2 -15 -17 -15h-346l-49 -252h321q6 0 9.5 -4t1.5 -10l-5 -27q-2 -15 -17 -15h-321l-62 -321q-2 -15 -17 -15h-35q-14 0 -12 15z" />
    <glyph glyph-name="G" unicode="G" horiz-adv-x="698" 
d="M385 46q73 0 139 18l50 255h-194q-14 0 -12 14l6 28q2 14 17 14h243q14 0 12 -14l-64 -327q-1 -7 -13 -14q-91 -32 -197 -32q-170 0 -253.5 102t-53.5 260q30 157 151.5 259.5t284.5 102.5q107 0 182 -33q9 -2 6 -15l-10 -34q-1 -7 -8 -10.5t-14 0.5q-67 34 -165 34
q-135 0 -236 -85.5t-125 -218.5q-26 -135 43 -219.5t211 -84.5z" />
    <glyph glyph-name="H" unicode="H" horiz-adv-x="693" 
d="M34 15l130 671q2 14 18 14h35q13 0 11 -14l-55 -285h401l55 285q2 14 18 14h35q13 0 11 -14l-130 -671q-2 -15 -17 -15h-35q-14 0 -12 15l64 330h-401l-64 -330q-2 -15 -17 -15h-35q-14 0 -12 15z" />
    <glyph glyph-name="I" unicode="I" horiz-adv-x="238" 
d="M186 700h36q13 0 11 -14l-130 -671q-2 -15 -17 -15h-36q-13 0 -11 15l130 671q2 14 17 14z" />
    <glyph glyph-name="J" unicode="J" horiz-adv-x="435" 
d="M281 225l90 461q2 14 17 14h35q14 0 12 -14l-90 -461q-48 -237 -248 -237q-72 0 -124 28q-8 5 -6 16l9 32q3 8 10 11t13 -1q46 -28 108 -28q140 0 174 179z" />
    <glyph glyph-name="K" unicode="K" horiz-adv-x="581" 
d="M243 373l279 -348q7 -10 2.5 -17.5t-16.5 -7.5h-38q-14 0 -21 10l-284 350l-67 -345q-2 -15 -17 -15h-35q-14 0 -12 15l130 671q2 14 18 14h35q13 0 11 -14l-58 -302l371 306q11 10 25 10h34q12 0 14 -7.5t-10 -17.5z" />
    <glyph glyph-name="L" unicode="L" horiz-adv-x="556" 
d="M34 15l130 671q2 14 18 14h35q13 0 11 -14l-122 -630h373q14 0 12 -14l-5 -27q-2 -15 -17 -15h-423q-14 0 -12 15z" />
    <glyph glyph-name="M" unicode="M" horiz-adv-x="836" 
d="M435 240h-42q-8 0 -11 7l-169 360l-115 -592q-2 -15 -17 -15h-35q-14 0 -12 15l130 671q2 14 18 14h50q8 0 11 -6l183 -392l335 392q5 6 13 6h51q13 0 11 -14l-130 -671q-2 -15 -17 -15h-35q-14 0 -12 15l115 592l-309 -360q-4 -7 -13 -7z" />
    <glyph glyph-name="N" unicode="N" horiz-adv-x="700" 
d="M34 15l130 671q2 14 18 14h56q9 0 11 -7l270 -609l117 602q2 14 18 14h35q13 0 11 -14l-130 -671q-2 -15 -17 -15h-56q-8 0 -11 7l-270 609l-117 -601q-2 -15 -17 -15h-36q-14 0 -12 15z" />
    <glyph glyph-name="O" unicode="O" horiz-adv-x="706" 
d="M677 350q-31 -158 -133 -260t-243 -102q-142 0 -204.5 102t-31.5 260t133 260t243 102q142 0 204.5 -102t31.5 -260zM611 350q27 137 -21.5 220.5t-159.5 83.5q-110 0 -191.5 -83.5t-107.5 -220.5q-27 -137 21.5 -220.5t159.5 -83.5q110 0 191.5 83.5t107.5 220.5z" />
    <glyph glyph-name="P" unicode="P" horiz-adv-x="583" 
d="M590 487q-20 -102 -101.5 -158t-203.5 -56h-137l-50 -258q-2 -15 -17 -15h-36q-13 0 -11 15l130 671q2 14 17 14h187q122 0 181.5 -55.5t40.5 -157.5zM524 487q15 80 -29 118.5t-144 38.5h-131l-61 -315h131q204 0 234 158z" />
    <glyph glyph-name="Q" unicode="Q" horiz-adv-x="706" 
d="M677 350q-28 -145 -118.5 -245t-216.5 -115q-2 -50 27.5 -70t88.5 -20q45 0 75 9q7 2 11.5 -1t3.5 -10l-1 -27q-2 -12 -14 -14q-45 -9 -88 -9q-79 0 -124 33t-39 107q-132 8 -189 108.5t-28 253.5q31 158 133 260t243 102q142 0 204.5 -102t31.5 -260zM611 350
q27 137 -21.5 220.5t-159.5 83.5q-110 0 -191.5 -83.5t-107.5 -220.5q-27 -137 21.5 -220.5t159.5 -83.5q110 0 191.5 83.5t107.5 220.5z" />
    <glyph glyph-name="R" unicode="R" horiz-adv-x="600" 
d="M594 500q-29 -146 -197 -186l130 -292q3 -8 -1.5 -15t-13.5 -7h-39q-9 0 -11 7l-129 296q-32 -2 -51 -2h-128l-56 -286q-2 -15 -17 -15h-35q-14 0 -12 15l130 671q2 14 18 14h196q116 0 175 -53t41 -147zM528 500q13 70 -29 107t-137 37h-142l-56 -287h142
q93 0 151.5 37.5t70.5 105.5z" />
    <glyph glyph-name="S" unicode="S" horiz-adv-x="536" 
d="M525 674l-9 -35q-5 -18 -21 -10q-51 25 -132 25q-80 0 -130 -30.5t-61 -81.5q-10 -50 19.5 -85.5t105.5 -62.5q109 -39 149.5 -87.5t25.5 -128.5q-17 -88 -91.5 -139t-189.5 -51q-97 0 -169 41q-8 5 -5 16l10 35q5 19 21 10q69 -44 158 -44q85 0 136.5 34.5t63.5 95.5
q12 58 -22 94t-121 67q-96 33 -134 79.5t-24 123.5q16 79 89 125.5t181 46.5q83 0 143 -22q10 -4 7 -16z" />
    <glyph glyph-name="T" unicode="T" horiz-adv-x="534" 
d="M187 15l122 629h-209q-13 0 -11 15l5 27q2 14 17 14h482q13 0 11 -14l-5 -27q-2 -15 -17 -15h-209l-122 -629q-2 -15 -17 -15h-36q-13 0 -11 15z" />
    <glyph glyph-name="U" unicode="U" horiz-adv-x="708" 
d="M301 -12q-123 0 -183.5 74.5t-34.5 207.5l81 416q2 14 18 14h35q13 0 11 -14l-79 -410q-23 -115 20 -172.5t143 -57.5q206 0 253 230l79 410q2 14 18 14h35q13 0 11 -14l-81 -416q-26 -133 -115.5 -207.5t-210.5 -74.5z" />
    <glyph glyph-name="V" unicode="V" horiz-adv-x="670" 
d="M178 691l119 -620l360 620q6 9 16 9h41q8 0 10 -6t-3 -13l-395 -670q-6 -11 -16 -11h-52q-10 0 -12 11l-136 670q-1 7 3.5 13t13.5 6h40q9 0 11 -9z" />
    <glyph glyph-name="W" unicode="W" horiz-adv-x="986" 
d="M552 700h53q9 0 11 -11l48 -601l312 602q6 10 16 10h39q8 0 10.5 -5.5t-1.5 -12.5l-351 -672q-4 -10 -15 -10h-53q-10 0 -12 11l-49 596l-279 -596q-6 -11 -16 -11h-52q-12 0 -13 10l-90 672q-1 7 3.5 12.5t12.5 5.5h39q11 0 12 -10l78 -603l282 603q4 10 15 10z" />
    <glyph glyph-name="X" unicode="X" horiz-adv-x="655" 
d="M682 677l-310 -322l191 -332q5 -7 0 -15t-15 -8h-40q-7 0 -10 6l-174 300l-288 -300q-7 -6 -13 -6h-40q-10 0 -12 8t5 15l321 332l-184 322q-5 8 0 15.5t15 7.5h39q7 0 10 -5l167 -291l279 290q6 6 13 6h40q10 0 11.5 -7.5t-5.5 -15.5z" />
    <glyph glyph-name="Y" unicode="Y" horiz-adv-x="654" 
d="M178 694l159 -355l298 355q5 6 14 6h38q9 0 11 -7.5t-5 -15.5l-335 -399l-52 -263q-2 -15 -16 -15h-36q-14 0 -12 15l52 263l-181 400q-4 7 1 14.5t14 7.5h39q7 0 11 -6z" />
    <glyph glyph-name="Z" unicode="Z" horiz-adv-x="557" 
d="M0 70l515 574h-379q-14 0 -12 15l5 27q2 14 18 14h439q13 0 11 -14l-7 -38q-1 -9 -10 -18l-515 -574h405q14 0 12 -14l-5 -27q-2 -15 -17 -15h-465q-14 0 -12 15l8 37q1 10 9 18z" />
    <glyph glyph-name="bracketleft" unicode="[" horiz-adv-x="391" 
d="M48 -116l166 852q2 14 17 14h218q14 0 12 -14l-5 -25q-2 -14 -17 -14h-169l-150 -774h169q13 0 11 -14l-5 -25q-2 -14 -17 -14h-218q-14 0 -12 14z" />
    <glyph glyph-name="backslash" unicode="\" horiz-adv-x="479" 
d="M344 -102l-253 830q-3 8 2 14t14 6h35q8 0 11 -8l254 -830q2 -7 -3 -13.5t-14 -6.5h-34q-10 0 -12 8z" />
    <glyph glyph-name="bracketright" unicode="]" horiz-adv-x="391" 
d="M361 736l-166 -852q-2 -14 -17 -14h-219q-13 0 -11 14l5 25q2 14 17 14h169l150 774h-169q-13 0 -11 14l5 25q2 14 17 14h218q14 0 12 -14z" />
    <glyph glyph-name="asciicircum" unicode="^" horiz-adv-x="612" 
d="M287 700h52q7 0 12 -6l205 -303q5 -7 1.5 -14.5t-13.5 -7.5h-40q-8 0 -11 6l-180 269l-180 -269q-5 -6 -12 -6h-42q-9 0 -11.5 7.5t2.5 14.5l205 303q5 6 12 6z" />
    <glyph glyph-name="underscore" unicode="_" horiz-adv-x="500" 
d="M-82 -156l6 28q2 14 16 14h472q14 0 12 -14l-6 -28q-2 -14 -17 -14h-472q-13 0 -11 14z" />
    <glyph glyph-name="grave" unicode="`" horiz-adv-x="404" 
d="M263 725l76 -139q4 -7 0.5 -12.5t-12.5 -5.5h-28q-5 0 -10 5l-93 134q-5 8 -0.5 15.5t14.5 7.5h43q8 0 10 -5z" />
    <glyph glyph-name="a" unicode="a" horiz-adv-x="570" 
d="M390 14l7 33q-78 -59 -166 -59q-103 0 -157.5 74.5t-31.5 196.5q23 123 107 197t188 74q92 0 142 -60l6 34q5 14 17 14h32q6 0 9.5 -4t1.5 -10l-95 -490q-2 -14 -16 -14h-32q-14 0 -12 14zM250 42q90 0 158 63l60 308q-43 63 -134 63q-81 0 -145.5 -58t-84.5 -159
q-20 -102 21.5 -159.5t124.5 -57.5z" />
    <glyph glyph-name="b" unicode="b" horiz-adv-x="570" 
d="M233 -12q-91 0 -143 59l-6 -33q-2 -14 -17 -14h-31q-14 0 -12 14l136 702q2 14 17 14h31q14 0 12 -14l-48 -246q71 60 167 60q103 0 158 -74t30 -197q-23 -122 -106.5 -196.5t-187.5 -74.5zM235 42q82 0 146 58t84 159q20 102 -21.5 159.5t-123.5 57.5q-91 0 -159 -63
l-60 -308q43 -63 134 -63z" />
    <glyph glyph-name="c" unicode="c" horiz-adv-x="499" 
d="M42 259q24 122 115.5 196.5t210.5 74.5q72 0 127 -23q10 -4 7 -15l-9 -30q-7 -18 -22 -10q-45 24 -113 24q-93 0 -164 -58t-90 -159q-19 -100 29.5 -158.5t143.5 -58.5q63 0 125 27q8 4 13 0.5t4 -11.5l-2 -27q-1 -11 -13 -16q-65 -27 -138 -27q-123 0 -185.5 74
t-38.5 197z" />
    <glyph glyph-name="d" unicode="d" horiz-adv-x="570" 
d="M231 -12q-104 0 -158.5 74t-30.5 197q23 123 106.5 197t187.5 74q94 0 143 -60l48 246q2 14 17 14h31q14 0 12 -14l-137 -702q-2 -14 -17 -14h-31q-14 0 -12 14l7 33q-77 -59 -166 -59zM250 42q90 0 158 63l60 308q-43 63 -134 63q-81 0 -145.5 -58t-84.5 -159
q-20 -102 21.5 -159.5t124.5 -57.5z" />
    <glyph glyph-name="e" unicode="e" horiz-adv-x="540" 
d="M402 75q9 4 14 1.5t4 -10.5l-3 -28q0 -11 -11 -16q-67 -34 -157 -34q-120 0 -175 74t-31 198q23 126 108.5 198t199.5 72q88 0 138.5 -39.5t38.5 -103.5q-13 -68 -90.5 -110.5t-230.5 -42.5h-105q-10 -92 29.5 -142t129.5 -50q82 0 141 33zM113 287h89q245 0 262 99
q8 41 -28.5 65.5t-97.5 24.5q-76 0 -138 -49t-87 -140z" />
    <glyph glyph-name="f" unicode="f" horiz-adv-x="340" 
d="M171 518l7 34q17 89 65.5 133.5t122.5 44.5q39 0 58 -6q11 -3 8 -14l-10 -30q-5 -14 -18 -9q-15 5 -45 5q-52 0 -80.5 -30.5t-42.5 -102.5l-5 -25h137q6 0 9.5 -4t1.5 -10l-4 -24q-2 -14 -17 -14h-137l-125 -645q-2 -14 -18 -14h-31q-13 0 -11 14l125 645h-95
q-14 0 -12 14l4 24q5 14 18 14h95z" />
    <glyph glyph-name="g" unicode="g" horiz-adv-x="570" 
d="M338 530q91 0 142 -59l6 33q5 14 18 14h31q6 0 9.5 -4t1.5 -10l-91 -470q-24 -124 -89.5 -179t-186.5 -55q-92 0 -156 33q-11 6 -7 15l8 32q2 8 9 11t14 -1q60 -36 144 -36q87 0 135.5 39t66.5 129l6 31q-77 -60 -165 -60q-105 0 -159.5 73t-31.5 195t107.5 195.5
t187.5 73.5zM335 476q-81 0 -145.5 -57t-84.5 -158t22 -157.5t125 -56.5q90 0 158 63l59 303q-43 63 -134 63z" />
    <glyph glyph-name="h" unicode="h" horiz-adv-x="572" 
d="M326 476q-95 0 -165 -67l-77 -395q-2 -14 -17 -14h-32q-13 0 -11 14l136 702q2 14 17 14h32q13 0 11 -14l-48 -248q78 62 173 62q101 0 145 -59.5t22 -170.5l-55 -286q-2 -14 -17 -14h-32q-13 0 -11 14l55 284q34 178 -126 178z" />
    <glyph glyph-name="i" unicode="i" horiz-adv-x="230" 
d="M192 504l-95 -490q-2 -14 -17 -14h-32q-13 0 -11 14l95 490q2 14 17 14h32q13 0 11 -14zM206 730q38 0 28 -53q-11 -53 -49 -53t-27 53q5 29 16 41t32 12z" />
    <glyph glyph-name="j" unicode="j" horiz-adv-x="225" 
d="M149 518h32q13 0 11 -14l-104 -535q-18 -89 -61.5 -129t-117.5 -40q-27 0 -43 5q-12 3 -8 15l8 28q5 14 19 9q11 -4 31 -4q46 0 73 27t38 86l105 538q2 14 17 14zM206 730q38 0 28 -53q-11 -53 -49 -53t-27 53q5 29 16 41t32 12z" />
    <glyph glyph-name="k" unicode="k" horiz-adv-x="497" 
d="M140 302l284 206q11 10 25 10h33q12 0 14 -8t-10 -17l-275 -202l208 -266q8 -10 3.5 -17.5t-16.5 -7.5h-33q-16 0 -23 10l-215 268l-51 -264q-2 -14 -17 -14h-32q-13 0 -11 14l136 702q2 14 17 14h32q13 0 11 -14z" />
    <glyph glyph-name="l" unicode="l" horiz-adv-x="214" 
d="M29 14l136 702q2 14 17 14h31q14 0 12 -14l-136 -702q-2 -14 -17 -14h-31q-14 0 -12 14z" />
    <glyph glyph-name="m" unicode="m" horiz-adv-x="859" 
d="M331 530q100 0 132 -81q86 81 195 81q85 0 125 -56.5t18 -165.5l-57 -294q-2 -14 -17 -14h-32q-13 0 -11 14l57 295q31 167 -100 167q-89 0 -166 -75q5 -44 -4 -94l-57 -293q-2 -14 -17 -14h-32q-13 0 -11 14l57 295q31 167 -99 167q-38 0 -81 -18.5t-70 -48.5l-77 -395
q-2 -14 -17 -14h-31q-14 0 -12 14l95 490q2 14 17 14h31q14 0 12 -14l-7 -36q33 30 77.5 46t81.5 16z" />
    <glyph glyph-name="n" unicode="n" horiz-adv-x="572" 
d="M326 476q-44 0 -88.5 -17.5t-76.5 -49.5l-77 -395q-2 -14 -17 -14h-32q-13 0 -11 14l95 490q2 14 17 14h32q13 0 11 -14l-7 -36q76 62 173 62q101 0 145 -59.5t22 -170.5l-55 -286q-2 -14 -17 -14h-32q-13 0 -11 14l55 284q34 178 -126 178z" />
    <glyph glyph-name="o" unicode="o" horiz-adv-x="576" 
d="M42 259q23 119 106 195t193 76q109 0 162.5 -76t30.5 -195q-24 -118 -107.5 -194.5t-191.5 -76.5t-162.5 77t-30.5 194zM104 259q-20 -97 20.5 -157t121.5 -60t143.5 59.5t82.5 157.5q18 99 -21 158t-121 59q-80 0 -144 -59.5t-82 -157.5z" />
    <glyph glyph-name="p" unicode="p" horiz-adv-x="570" 
d="M338 530q103 0 157.5 -73.5t31.5 -197.5q-23 -122 -107 -196.5t-187 -74.5q-90 0 -143 60l-44 -227q-1 -6 -6.5 -10.5t-11.5 -4.5h-31q-14 0 -12 15l133 683q5 14 18 14h31q6 0 9.5 -4t1.5 -10l-6 -33q74 59 166 59zM319 476q-92 0 -158 -63l-60 -308q41 -63 134 -63
q81 0 145.5 58t84.5 159t-22 159t-124 58z" />
    <glyph glyph-name="q" unicode="q" horiz-adv-x="570" 
d="M336 530q95 0 143 -59l6 33q5 14 18 14h31q6 0 9.5 -4t1.5 -10l-132 -683q-1 -6 -6.5 -10.5t-11.5 -4.5h-31q-13 0 -11 15l44 227q-78 -60 -166 -60q-104 0 -158.5 74t-30.5 197q23 123 107 197t187 74zM334 476q-81 0 -145.5 -58t-84.5 -159q-20 -102 21.5 -159.5
t124.5 -57.5q90 0 158 63l60 308q-43 63 -134 63z" />
    <glyph glyph-name="r" unicode="r" horiz-adv-x="360" 
d="M328 476q-102 0 -175 -106l-69 -356q-2 -14 -17 -14h-31q-14 0 -12 14l95 490q2 14 17 14h32q13 0 11 -14l-12 -61q72 87 177 87q32 0 48 -5q11 -3 8 -15l-10 -31q-5 -14 -19 -9q-17 6 -43 6z" />
    <glyph glyph-name="s" unicode="s" horiz-adv-x="457" 
d="M391 450q-49 26 -116 26q-58 0 -94 -21t-43 -58q-7 -36 18.5 -61.5t89.5 -43.5q85 -25 118 -63t21 -93q-14 -71 -73.5 -109.5t-152.5 -38.5q-88 0 -149 39q-7 4 -5 17l8 28q2 9 10 12t14 -2q55 -40 131 -40q66 0 106.5 24.5t48.5 67.5q8 38 -18.5 63.5t-96.5 45.5
q-155 41 -132 152q12 63 69.5 99t140.5 36q81 0 131 -25q9 -7 6 -17l-9 -29q-2 -8 -9 -10.5t-14 1.5z" />
    <glyph glyph-name="t" unicode="t" horiz-adv-x="367" 
d="M59 480l4 24q5 14 17 14h83l28 141q2 14 17 14h31q14 0 12 -14l-28 -141h152q6 0 9.5 -4t1.5 -10l-4 -24q-2 -14 -17 -14h-152l-56 -288q-14 -75 2.5 -105.5t69.5 -30.5q19 0 42 5q16 2 16 -10l-2 -29q-1 -13 -14 -16q-23 -4 -56 -4q-79 0 -109 42t-12 131l59 305h-83
q-13 0 -11 14z" />
    <glyph glyph-name="u" unicode="u" horiz-adv-x="572" 
d="M245 42q94 0 166 67l76 395q5 14 17 14h32q6 0 9.5 -4t1.5 -10l-95 -490q-2 -14 -16 -14h-32q-14 0 -12 14l7 36q-74 -62 -172 -62q-101 0 -145.5 60t-22.5 170l55 286q5 14 18 14h31q6 0 9.5 -4t1.5 -10l-55 -284q-34 -178 126 -178z" />
    <glyph glyph-name="v" unicode="v" horiz-adv-x="516" 
d="M228 0h-45q-9 0 -11 9l-103 490q-1 7 3.5 13t13.5 6h37q9 0 11 -9l86 -433l255 433q5 9 15 9h37q9 0 11 -6t-3 -13l-292 -490q-9 -9 -15 -9z" />
    <glyph glyph-name="w" unicode="w" horiz-adv-x="780" 
d="M420 518h39q4 0 7.5 -3t3.5 -7l49 -422l220 422q6 10 15 10h38q19 0 10 -19l-263 -489q-8 -10 -15 -10h-41q-10 0 -12 10l-50 412l-212 -412q-6 -10 -15 -10h-41q-4 0 -7.5 3t-3.5 7l-73 489q-2 19 17 19h38q10 0 12 -11l55 -421l213 422q6 10 16 10z" />
    <glyph glyph-name="x" unicode="x" horiz-adv-x="503" 
d="M355 6l-123 214l-204 -214q-6 -6 -13 -6h-38q-10 0 -11.5 7.5t5.5 15.5l234 244l-129 229q-4 7 1 14.5t14 7.5h37q7 0 10 -5l113 -199l191 200q4 4 12 4h36q10 0 12 -7.5t-5 -14.5l-220 -229l139 -244q5 -7 0.5 -15t-14.5 -8h-37q-9 0 -10 6z" />
    <glyph glyph-name="y" unicode="y" horiz-adv-x="526" 
d="M229 75l255 434q4 9 15 9h38q9 0 11.5 -5.5t-2.5 -12.5l-407 -684q-5 -9 -15 -9h-35q-9 0 -11.5 5.5t1.5 12.5l104 175l-113 498q-2 8 3 14t14 6h37q9 0 11 -8z" />
    <glyph glyph-name="z" unicode="z" horiz-adv-x="463" 
d="M-22 14l7 34q1 10 9 18l400 400h-299q-14 0 -12 14l5 24q2 14 17 14h357q13 0 11 -14l-6 -33q-4 -11 -10 -17l-399 -402h323q13 0 11 -14l-4 -24q-2 -14 -17 -14h-381q-14 0 -12 14z" />
    <glyph glyph-name="braceleft" unicode="{" horiz-adv-x="371" 
d="M115 -13l38 199q15 75 -56 96q-11 2 -9 14l6 28q2 11 14 13q34 9 59.5 33.5t33.5 64.5l35 177q28 138 153 138h41q13 0 11 -14l-5 -25q-2 -14 -17 -14h-36q-68 0 -81 -67l-36 -186q-9 -54 -33 -86.5t-77 -47.5q79 -24 62 -114l-40 -206q-12 -67 55 -67h36q13 0 11 -14
l-5 -25q-2 -14 -16 -14h-41q-57 0 -86 30t-17 87z" />
    <glyph glyph-name="bar" unicode="|" horiz-adv-x="280" 
d="M127 -186v941q0 14 15 14h27q14 0 14 -14v-941q0 -14 -14 -14h-27q-15 0 -15 14z" />
    <glyph glyph-name="braceright" unicode="}" horiz-adv-x="371" 
d="M188 186l-38 -199q-12 -57 -52 -87t-98 -30h-41q-13 0 -11 14l5 25q2 14 17 14h37q68 0 80 67l40 206q19 90 106 114q-47 15 -58.5 51t0.5 83l36 186q13 67 -54 67h-37q-13 0 -11 14l5 25q2 14 17 14h40q128 0 100 -138l-35 -177q-8 -40 8.5 -65t48.5 -33q10 -2 8 -13
l-6 -28q-2 -12 -13 -14q-79 -20 -94 -96z" />
    <glyph glyph-name="asciitilde" unicode="~" horiz-adv-x="612" 
d="M304 311q-61 47 -98 47q-33 0 -48.5 -20.5t-17.5 -68.5q0 -5 -4 -9.5t-10 -4.5h-34q-6 0 -10.5 5t-3.5 11q7 141 130 141q62 0 132 -57q60 -48 97 -48q63 0 67 89q0 14 14 14h33q6 0 10.5 -4.5t3.5 -10.5q-2 -72 -36.5 -107t-92.5 -35q-60 0 -132 58z" />
    <glyph glyph-name="uni00A0" unicode="&#xa0;" horiz-adv-x="300" 
 />
    <glyph glyph-name="exclamdown" unicode="&#xa1;" horiz-adv-x="260" 
d="M53 35l72 299q2 14 17 14h13q13 0 11 -14l-45 -299l-40 -204q-2 -14 -17 -14h-39q-13 0 -11 14zM214 473q-11 -56 -54 -56t-32 56t54 56t32 -56z" />
    <glyph glyph-name="cent" unicode="&#xa2;" horiz-adv-x="539" 
d="M61 259q21 111 100.5 184t186.5 85l18 95q2 14 17 14h14q13 0 11 -14l-18 -93q70 0 124 -23q10 -4 7 -15l-9 -30q-7 -18 -22 -10q-45 24 -110 24l-85 -434h1q63 0 125 27q8 4 13 0.5t4 -11.5l-2 -27q-1 -11 -13 -16q-65 -27 -138 -27l-18 -93q-2 -14 -17 -14h-14
q-13 0 -11 14l18 95q-103 12 -153.5 85t-28.5 184zM123 259q-16 -89 19.5 -145t111.5 -68l83 427q-80 -12 -138.5 -68t-75.5 -146z" />
    <glyph glyph-name="sterling" unicode="&#xa3;" horiz-adv-x="578" 
d="M135 336h-65q-13 0 -11 14l5 24q2 14 16 14h65l24 122q40 202 253 202q87 0 150 -33q9 -5 6 -16l-8 -30q-2 -8 -9 -11.5t-14 0.5q-54 32 -131 32q-80 0 -123.5 -34t-59.5 -110l-24 -122h218q14 0 12 -14l-5 -24q-2 -14 -17 -14h-218l-16 -86q-27 -124 -104 -194h413
q13 0 11 -14l-5 -28q-2 -14 -17 -14h-476q-14 0 -12 14l7 33q3 9 7 10q87 70 110 184z" />
    <glyph glyph-name="currency" unicode="&#xa4;" horiz-adv-x="693" 
d="M138 333q0 73 42 131l-76 75q-10 11 -1 20l27 26q8 8 17 -1l76 -74q61 48 136 48q76 0 138 -49l73 74q4 4 10 4.5t10 -3.5l26 -27q8 -7 -2 -17l-75 -77q42 -58 42 -130q0 -74 -43 -133l75 -74q4 -4 4.5 -10t-3.5 -10l-27 -26q-7 -8 -17 2l-75 73q-59 -47 -136 -47
t-137 48l-73 -74q-11 -10 -20 -1l-26 27q-7 8 2 17l74 77q-41 61 -41 131zM359 168q69 0 115 47t46 117t-46 117t-115 47q-68 0 -114.5 -47t-46.5 -117t46.5 -117t114.5 -47z" />
    <glyph glyph-name="yen" unicode="&#xa5;" horiz-adv-x="580" 
d="M518 285h-192l-14 -75h192q13 0 11 -14l-3 -16q-2 -14 -17 -14h-192l-29 -152q-2 -14 -17 -14h-35q-14 0 -12 14l29 152h-191q-14 0 -12 14l3 16q2 14 17 14h192l14 75h-191q-14 0 -12 14l3 16q2 14 17 14h168l-133 350q-3 8 1.5 14.5t13.5 6.5h37q8 0 11 -7l129 -347
l265 347q4 7 13 7h38q9 0 10.5 -6.5t-4.5 -14.5l-269 -350h168q13 0 11 -14l-3 -16q-2 -14 -17 -14z" />
    <glyph glyph-name="brokenbar" unicode="&#xa6;" horiz-adv-x="280" 
d="M142 222h27q14 0 14 -14v-294q0 -14 -14 -14h-27q-15 0 -15 14v294q0 14 15 14zM142 688h27q14 0 14 -14v-294q0 -14 -14 -14h-27q-15 0 -15 14v294q0 14 15 14z" />
    <glyph glyph-name="section" unicode="&#xa7;" horiz-adv-x="511" 
d="M168 -100q-88 0 -153 36q-6 5 -4 16l8 30q3 9 10 13t14 -1q56 -38 136 -38q65 0 103.5 24.5t47.5 67.5q8 39 -17 65t-90 43q-162 45 -141 155q9 44 44.5 80t93.5 53q-106 41 -87 130q12 65 69.5 101.5t145.5 36.5q79 0 136 -28q10 -2 5 -16l-9 -30q-7 -19 -23 -10
q-49 28 -121 28q-57 0 -92.5 -21.5t-42.5 -60.5q-7 -34 19.5 -58t91.5 -44q82 -24 115 -62.5t22 -97.5q-9 -43 -43.5 -78t-93.5 -50q103 -34 87 -134q-14 -71 -74 -110.5t-157 -39.5zM243 212q60 7 96 35t42 67q14 78 -95 106q-57 -10 -92 -38.5t-43 -67.5q-14 -73 92 -102z
" />
    <glyph glyph-name="dieresis" unicode="&#xa8;" horiz-adv-x="404" 
d="M389 702q38 0 28 -53q-11 -53 -49 -53t-27 53q5 29 16 41t32 12zM187 702q38 0 28 -53q-11 -53 -49 -53t-27 53q5 29 16 41t32 12z" />
    <glyph glyph-name="copyright" unicode="&#xa9;" horiz-adv-x="834" 
d="M231 349q0 97 61.5 156.5t154.5 59.5q68 0 115 -20q11 -5 9 -16l-2 -23q-2 -14 -18 -7q-45 20 -100 20q-77 0 -122 -47t-45 -123q0 -77 45 -124.5t122 -47.5q54 0 99 20q7 4 12.5 1.5t6.5 -9.5l2 -23q1 -9 -8 -14q-49 -21 -116 -21q-93 0 -154.5 60.5t-61.5 157.5z
M70 350q0 150 106 256t256 106t256 -106t106 -256t-106 -256t-256 -106t-256 106t-106 256zM106 350q0 -136 95 -232t231 -96q137 0 231.5 96t94.5 232t-94.5 232t-231.5 96q-136 0 -231 -96t-95 -232z" />
    <glyph glyph-name="ordfeminine" unicode="&#xaa;" horiz-adv-x="436" 
d="M345 407l41 211q-22 43 -90 43q-55 0 -99 -39t-57 -109q-13 -71 15 -110t84 -39q66 0 106 43zM397 673l2 12q2 14 17 14h28q13 0 11 -14l-67 -345q-2 -14 -17 -14h-27q-14 0 -12 14l2 12q-48 -35 -110 -35q-76 0 -117 53.5t-23 142.5q18 88 78.5 141.5t137.5 53.5
q65 0 97 -35z" />
    <glyph glyph-name="guillemotleft" unicode="&#xab;" horiz-adv-x="535" 
d="M80 304l3 16q1 4 7 10l217 171q8 7 16 4.5t6 -12.5l-5 -26q-1 -5 -7 -11l-185 -144l129 -145q4 -4 2 -10l-5 -27q-2 -10 -10.5 -12t-14.5 5l-151 170q-3 5 -2 11zM269 304l3 16q1 4 7 10l217 171q8 7 16 4.5t6 -12.5l-5 -26q-1 -5 -7 -11l-185 -144l129 -145q4 -4 2 -10
l-5 -27q-2 -10 -10.5 -12t-14.5 5l-151 170q-3 5 -2 11z" />
    <glyph glyph-name="logicalnot" unicode="&#xac;" horiz-adv-x="612" 
d="M72 400v27q0 14 15 14h459q14 0 14 -14v-251q0 -15 -14 -15h-34q-14 0 -14 15v209h-411q-6 0 -10.5 4.5t-4.5 10.5z" />
    <glyph glyph-name="uni00AD" unicode="&#xad;" horiz-adv-x="399" 
d="M331 304h-247q-13 0 -11 14l5 28q2 14 17 14h246q14 0 12 -14l-5 -28q-2 -14 -17 -14z" />
    <glyph glyph-name="registered" unicode="&#xae;" horiz-adv-x="834" 
d="M592 435q0 -85 -84 -113l94 -160q5 -8 1.5 -14.5t-12.5 -6.5h-27q-8 0 -12 7l-96 164q-32 -2 -38 -2h-79v-155q0 -14 -14 -14h-24q-15 0 -15 14v389q0 14 15 14h131q75 0 117.5 -32.5t42.5 -90.5zM538 434q0 78 -110 78h-89v-156h89q110 0 110 78zM70 350q0 150 106 256
t256 106t256 -106t106 -256t-106 -256t-256 -106t-256 106t-106 256zM106 350q0 -136 95 -232t231 -96q137 0 231.5 96t94.5 232t-94.5 232t-231.5 96q-136 0 -231 -96t-95 -232z" />
    <glyph glyph-name="overscore" unicode="&#xaf;" horiz-adv-x="404" 
d="M132 634l4 23q2 14 17 14h256q13 0 11 -14l-4 -23q-2 -15 -17 -15h-256q-13 0 -11 15z" />
    <glyph glyph-name="degree" unicode="&#xb0;" horiz-adv-x="404" 
d="M365 583q-12 -56 -57 -92.5t-101 -36.5t-88 37t-20 92q10 56 55.5 92.5t102.5 36.5t87.5 -36.5t20.5 -92.5zM313 583q6 36 -12.5 58.5t-52.5 22.5t-62.5 -23t-34.5 -58q-8 -34 11.5 -57.5t53.5 -23.5t61.5 23t35.5 58z" />
    <glyph glyph-name="plusminus" unicode="&#xb1;" horiz-adv-x="612" 
d="M290 170v197h-199q-14 0 -14 15v26q0 14 14 14h199v197q0 14 15 14h33q14 0 14 -14v-197h199q14 0 14 -14v-26q0 -15 -14 -15h-199v-197q0 -14 -14 -14h-33q-15 0 -15 14zM551 47h-460q-14 0 -14 14v27q0 14 14 14h460q14 0 14 -14v-27q0 -14 -14 -14z" />
    <glyph glyph-name="twosuperior" unicode="&#xb2;" horiz-adv-x="398" 
d="M318 236h-257q-13 0 -11 15l5 25q0 4 7 11q86 58 193 163q73 73 83 127q16 82 -79 82q-54 0 -102 -24q-8 -4 -12 -0.5t-3 12.5l3 22q1 10 11 16q54 23 115 23q72 0 104 -33.5t20 -97.5q-12 -68 -99 -155q-85 -83 -162 -138h193q6 0 9.5 -4t1.5 -10l-3 -20q-2 -14 -17 -14
z" />
    <glyph glyph-name="threesuperior" unicode="&#xb3;" horiz-adv-x="398" 
d="M143 468l4 21q2 14 17 14q75 4 116.5 27t47.5 58q7 33 -15.5 51.5t-67.5 18.5q-50 0 -96 -18q-7 -3 -12 -1t-4 10l2 24q0 11 12 15q52 20 111 20q69 0 103.5 -31.5t24.5 -85.5q-20 -86 -122 -111q51 -13 71.5 -45.5t11.5 -75.5q-12 -61 -63 -96t-127 -35q-57 0 -103 18
q-11 5 -7 17l8 26q5 15 19 8q42 -19 92 -19q53 0 85.5 23t38.5 58q7 41 -24.5 66.5t-111.5 27.5q-13 0 -11 15z" />
    <glyph glyph-name="acute" unicode="&#xb4;" horiz-adv-x="404" 
d="M180 586l130 139q7 5 13 5h43q10 0 11.5 -7.5t-7.5 -15.5l-145 -134q-5 -5 -11 -5h-29q-8 0 -9.5 5.5t4.5 12.5z" />
    <glyph glyph-name="mu" unicode="&#xb5;" horiz-adv-x="584" 
d="M239 -12q-99 0 -147 63l-44 -230q-2 -14 -17 -14h-35q-13 0 -11 14l133 683q5 14 17 14h34q6 0 9.5 -4t1.5 -10l-75 -390q22 -34 60 -53.5t84 -19.5q89 0 172 73l75 390q5 14 18 14h33q6 0 9.5 -4t1.5 -10l-95 -490q-2 -14 -16 -14h-34q-14 0 -12 14l7 37
q-78 -63 -169 -63z" />
    <glyph glyph-name="paragraph" unicode="&#xb6;" horiz-adv-x="540" 
d="M307 310h-29q-101 0 -166 50.5t-65 144.5q0 97 65 146t166 49h181q14 0 14 -14v-803q0 -14 -14 -14h-28q-14 0 -14 14v763h-53v-763q0 -14 -14 -14h-29q-14 0 -14 14v427z" />
    <glyph glyph-name="middot" unicode="&#xb7;" horiz-adv-x="292" 
d="M202 330q-11 -56 -54 -56t-32 56t54 56t32 -56z" />
    <glyph glyph-name="cedilla" unicode="&#xb8;" horiz-adv-x="404" 
d="M20 -220l3 17q2 14 18 12q15 -4 36 -4q70 0 79 48q8 47 -68 59q-8 1 -10.5 7.5t2.5 13.5l46 61q4 6 12 6h29q9 0 10.5 -6t-4.5 -13l-33 -44q80 -18 71 -85q-19 -90 -140 -90q-25 0 -42 4q-11 2 -9 14z" />
    <glyph glyph-name="onesuperior" unicode="&#xb9;" horiz-adv-x="398" 
d="M254 630l-83 -53q-14 -10 -20 3l-8 20q-8 10 6 19l118 76q8 6 19 6h23q14 0 12 -14l-85 -437q-2 -14 -17 -14h-28q-13 0 -11 14z" />
    <glyph glyph-name="ordmasculine" unicode="&#xba;" horiz-adv-x="436" 
d="M444 514q-16 -85 -76.5 -139.5t-137.5 -54.5t-116.5 54.5t-23.5 139.5q18 86 78 140t137 54t117 -54.5t22 -139.5zM388 514q14 68 -12.5 108t-79.5 40q-52 0 -94 -40t-56 -108t13.5 -108t79.5 -40t93.5 40t55.5 108z" />
    <glyph glyph-name="guillemotright" unicode="&#xbb;" horiz-adv-x="535" 
d="M472 320l-4 -16q0 -6 -6 -11l-217 -170q-8 -8 -16 -5t-6 12l5 27q1 7 6 10l186 145l-129 144q-4 4 -3 11l5 26q2 10 11 12t14 -4l151 -171q4 -4 3 -10zM283 320l-4 -16q0 -6 -6 -11l-217 -170q-8 -8 -16 -5t-6 12l5 27q1 7 6 10l186 145l-129 144q-4 4 -3 11l5 26
q2 10 11 12t14 -4l151 -171q4 -4 3 -10z" />
    <glyph glyph-name="onequarter" unicode="&#xbc;" horiz-adv-x="950" 
d="M254 630l-83 -53q-14 -10 -20 3l-8 20q-8 10 6 19l118 76q8 6 19 6h23q14 0 12 -14l-85 -437q-2 -14 -17 -14h-28q-13 0 -11 14zM754 695l-514 -703q-4 -7 -14 -7h-26q-9 0 -10.5 6.5t4.5 14.5l514 702q4 7 13 7h28q8 0 9.5 -6.5t-4.5 -13.5zM750 103h-211q-14 0 -12 14
l5 22q1 10 8 17l274 301q6 7 15 7h32q14 0 12 -14l-58 -299h40q13 0 11 -14l-4 -20q-2 -14 -16 -14h-40l-18 -88q-2 -14 -17 -14h-27q-14 0 -12 14zM803 380l-209 -229h165z" />
    <glyph glyph-name="onehalf" unicode="&#xbd;" horiz-adv-x="950" 
d="M254 630l-83 -53q-14 -10 -20 3l-8 20q-8 10 6 19l118 76q8 6 19 6h23q14 0 12 -14l-85 -437q-2 -14 -17 -14h-28q-13 0 -11 14zM715 695l-514 -703q-4 -7 -14 -7h-26q-9 0 -10.5 6.5t4.5 14.5l514 702q4 7 13 7h28q8 0 9.5 -6.5t-4.5 -13.5zM813 0h-257q-14 0 -12 15
l5 25q2 6 8 11q86 58 193 163q71 71 83 127q8 40 -13 61t-66 21q-54 0 -102 -24q-8 -4 -12 -0.5t-3 12.5l3 22q1 10 11 16q54 23 114 23q71 0 104 -34t21 -97q-9 -37 -30.5 -71.5t-68.5 -83.5q-85 -83 -162 -138h193q13 0 11 -14l-4 -20q-2 -14 -16 -14z" />
    <glyph glyph-name="threequarters" unicode="&#xbe;" horiz-adv-x="950" 
d="M785 695l-514 -703q-6 -7 -14 -7h-27q-8 0 -9.5 6.5t3.5 14.5l515 702q4 7 13 7h27q9 0 10.5 -6.5t-4.5 -13.5zM751 103h-210q-14 0 -12 14l4 22q1 8 8 17l275 301q6 7 15 7h32q6 0 9.5 -4t1.5 -10l-58 -299h40q14 0 12 -14l-4 -20q-2 -14 -17 -14h-40l-17 -88
q-2 -14 -17 -14h-28q-13 0 -11 14zM805 380l-210 -229h165zM143 468l4 21q2 14 17 14q75 4 116.5 27t47.5 58q7 33 -15.5 51.5t-67.5 18.5q-50 0 -96 -18q-7 -3 -12 -1t-4 10l2 24q0 11 12 15q52 20 111 20q69 0 103.5 -31.5t24.5 -85.5q-20 -86 -122 -111
q51 -13 71.5 -45.5t11.5 -75.5q-12 -61 -63 -96t-127 -35q-57 0 -103 18q-11 5 -7 17l8 26q5 15 19 8q42 -19 92 -19q53 0 85.5 23t38.5 58q7 41 -24.5 66.5t-111.5 27.5q-13 0 -11 15z" />
    <glyph glyph-name="questiondown" unicode="&#xbf;" horiz-adv-x="520" 
d="M213 125q-64 -41 -94 -77t-38 -79q-9 -50 24 -78t112 -28q84 0 157 33q8 3 13 0.5t4 -10.5l-3 -30q-2 -12 -12 -16q-83 -35 -165 -35q-105 0 -157.5 45.5t-38.5 120.5q12 57 50.5 102.5t110.5 89.5q49 34 71.5 67.5t32.5 88.5l2 10q2 14 17 14h35q14 0 12 -14l-3 -13
q-12 -67 -42.5 -111.5t-87.5 -79.5zM300 473q11 56 54 56t32 -56t-54 -56t-32 56z" />
    <glyph glyph-name="Agrave" unicode="&#xc0;" horiz-adv-x="640" 
d="M375 700h52q10 0 12 -10l135 -670q5 -20 -15 -20h-41q-9 0 -12 10l-34 181h-339l-106 -181q-4 -10 -15 -10h-40q-9 0 -11.5 6t2.5 14l396 670q8 10 16 10zM387 629l-221 -382h295zM362 919l76 -139q3 -7 -0.5 -12.5t-11.5 -5.5h-29q-6 0 -9 5l-93 134q-6 8 -1.5 15.5
t14.5 7.5h43q8 0 11 -5z" />
    <glyph glyph-name="Aacute" unicode="&#xc1;" horiz-adv-x="640" 
d="M375 700h52q10 0 12 -10l135 -670q5 -20 -15 -20h-41q-9 0 -12 10l-34 181h-339l-106 -181q-4 -10 -15 -10h-40q-9 0 -11.5 6t2.5 14l396 670q8 10 16 10zM387 629l-221 -382h295zM395 780l130 139q5 5 12 5h43q10 0 11.5 -7.5t-6.5 -15.5l-145 -134q-5 -5 -12 -5h-28
q-9 0 -10.5 5.5t5.5 12.5z" />
    <glyph glyph-name="Acircumflex" unicode="&#xc2;" horiz-adv-x="640" 
d="M375 700h52q10 0 12 -10l135 -670q5 -20 -15 -20h-41q-9 0 -12 10l-34 181h-339l-106 -181q-4 -10 -15 -10h-40q-9 0 -11.5 6t2.5 14l396 670q8 10 16 10zM387 629l-221 -382h295zM421 924h47q7 0 10 -5l87 -138q4 -7 -1.5 -15t-14.5 -8h-25q-7 0 -10 5l-78 115
l-124 -115q-5 -5 -11 -5h-26q-10 0 -12 8t6 15l141 138q5 5 11 5z" />
    <glyph glyph-name="Atilde" unicode="&#xc3;" horiz-adv-x="640" 
d="M375 700h52q10 0 12 -10l135 -670q5 -20 -15 -20h-41q-9 0 -12 10l-34 181h-339l-106 -181q-4 -10 -15 -10h-40q-9 0 -11.5 6t2.5 14l396 670q8 10 16 10zM387 629l-221 -382h295zM558 907h27q6 0 9.5 -4t1.5 -10q-28 -123 -110 -123q-18 0 -35 10.5t-22 16.5l-21 26
q-1 2 -5 7l-5.5 7t-5 6t-5.5 5.5t-5 3.5t-6 3t-6 1q-37 0 -55 -70q-2 -14 -17 -14h-27q-6 0 -9.5 4.5t-1.5 10.5q29 122 112 122q42 0 77 -53q1 -1 4 -5t4 -5.5t4 -5t4 -5t4 -4t4.5 -3.5t4 -2.5t5 -2t5.5 -0.5q37 0 54 71q2 13 16 13z" />
    <glyph glyph-name="Adieresis" unicode="&#xc4;" horiz-adv-x="640" 
d="M375 700h52q10 0 12 -10l135 -670q5 -20 -15 -20h-41q-9 0 -12 10l-34 181h-339l-106 -181q-4 -10 -15 -10h-40q-9 0 -11.5 6t2.5 14l396 670q8 10 16 10zM387 629l-221 -382h295zM540 896q20 0 26.5 -12t1.5 -41q-11 -53 -48 -53q-39 0 -28 53q10 53 48 53zM338 896
q20 0 26.5 -12t1.5 -41q-11 -53 -48 -53q-39 0 -28 53q10 53 48 53z" />
    <glyph glyph-name="Aring" unicode="&#xc5;" horiz-adv-x="640" 
d="M375 700h52q10 0 12 -10l135 -670q5 -20 -15 -20h-41q-9 0 -12 10l-34 181h-339l-106 -181q-4 -10 -15 -10h-40q-9 0 -11.5 6t2.5 14l396 670q8 10 16 10zM387 629l-221 -382h295zM449 947q45 0 68.5 -29.5t15.5 -73.5q-7 -43 -43.5 -73t-80.5 -30t-68 29.5t-16 73.5
t44 73.5t80 29.5zM418 786q25 0 44.5 17.5t23.5 40.5q4 25 -7.5 41.5t-38.5 16.5q-26 0 -45 -17t-23 -41q-4 -23 8 -40.5t38 -17.5z" />
    <glyph glyph-name="AE" unicode="&#xc6;" horiz-adv-x="842" 
d="M400 193h-235l-134 -185q-5 -8 -13 -8h-46q-9 0 -11 6t3 14l488 673q4 7 14 7h391q13 0 11 -14l-5 -27q-2 -15 -17 -15h-295l-49 -254h269q14 0 12 -14l-5 -27q-2 -15 -18 -15h-269l-54 -278h303q14 0 12 -14l-5 -27q-2 -15 -17 -15h-353q-14 0 -12 15zM487 643
l-283 -394h206z" />
    <glyph glyph-name="Ccedilla" unicode="&#xc7;" horiz-adv-x="603" 
d="M628 689q11 -5 9 -17l-9 -31q-5 -19 -24 -11q-47 24 -118 24q-138 0 -233.5 -83t-122.5 -221q-26 -140 37.5 -222t202.5 -82q66 0 129 25q8 4 14 1t5 -11l-3 -31q-2 -13 -15 -17q-63 -25 -142 -25l-37 -51q41 -9 58.5 -32.5t11.5 -52.5q-19 -90 -140 -90q-25 0 -41 4
q-12 2 -10 14l4 17q2 14 18 12q15 -4 36 -4q67 0 79 48q4 22 -12.5 37.5t-56.5 21.5q-7 1 -10 7.5t2 13.5l44 58q-141 16 -204.5 112t-35.5 247q32 162 149.5 262t280.5 100q79 0 134 -23z" />
    <glyph glyph-name="Egrave" unicode="&#xc8;" horiz-adv-x="557" 
d="M34 15l130 671q2 14 18 14h395q13 0 11 -14l-5 -27q-2 -15 -17 -15h-346l-49 -254h320q14 0 12 -14l-5 -27q-1 -6 -6.5 -10.5t-11.5 -4.5h-320l-54 -278h354q14 0 12 -14l-5 -27q-2 -15 -17 -15h-404q-14 0 -12 15zM360 919l76 -139q3 -7 -0.5 -12.5t-11.5 -5.5h-29
q-6 0 -9 5l-93 134q-6 8 -1.5 15.5t14.5 7.5h43q8 0 11 -5z" />
    <glyph glyph-name="Eacute" unicode="&#xc9;" horiz-adv-x="557" 
d="M34 15l130 671q2 14 18 14h395q13 0 11 -14l-5 -27q-2 -15 -17 -15h-346l-49 -254h320q14 0 12 -14l-5 -27q-1 -6 -6.5 -10.5t-11.5 -4.5h-320l-54 -278h354q14 0 12 -14l-5 -27q-2 -15 -17 -15h-404q-14 0 -12 15zM345 780l130 139q5 5 12 5h43q10 0 11.5 -7.5
t-6.5 -15.5l-145 -134q-5 -5 -12 -5h-28q-9 0 -10.5 5.5t5.5 12.5z" />
    <glyph glyph-name="Ecircumflex" unicode="&#xca;" horiz-adv-x="557" 
d="M34 15l130 671q2 14 18 14h395q13 0 11 -14l-5 -27q-2 -15 -17 -15h-346l-49 -254h320q14 0 12 -14l-5 -27q-1 -6 -6.5 -10.5t-11.5 -4.5h-320l-54 -278h354q14 0 12 -14l-5 -27q-2 -15 -17 -15h-404q-14 0 -12 15zM397 924h47q7 0 10 -5l87 -138q4 -7 -1.5 -15t-14.5 -8
h-25q-7 0 -10 5l-78 115l-124 -115q-5 -5 -11 -5h-26q-10 0 -12 8t6 15l141 138q5 5 11 5z" />
    <glyph glyph-name="Edieresis" unicode="&#xcb;" horiz-adv-x="557" 
d="M34 15l130 671q2 14 18 14h395q13 0 11 -14l-5 -27q-2 -15 -17 -15h-346l-49 -254h320q14 0 12 -14l-5 -27q-1 -6 -6.5 -10.5t-11.5 -4.5h-320l-54 -278h354q14 0 12 -14l-5 -27q-2 -15 -17 -15h-404q-14 0 -12 15zM517 896q20 0 26.5 -12t1.5 -41q-11 -53 -48 -53
q-39 0 -28 53q10 53 48 53zM315 896q20 0 26.5 -12t1.5 -41q-11 -53 -48 -53q-39 0 -28 53q10 53 48 53z" />
    <glyph glyph-name="Igrave" unicode="&#xcc;" horiz-adv-x="238" 
d="M186 700h36q13 0 11 -14l-130 -671q-2 -15 -17 -15h-36q-13 0 -11 15l130 671q2 14 17 14zM171 919l76 -139q3 -7 -0.5 -12.5t-11.5 -5.5h-29q-6 0 -9 5l-93 134q-6 8 -1.5 15.5t14.5 7.5h43q8 0 11 -5z" />
    <glyph glyph-name="Iacute" unicode="&#xcd;" horiz-adv-x="238" 
d="M186 700h36q13 0 11 -14l-130 -671q-2 -15 -17 -15h-36q-13 0 -11 15l130 671q2 14 17 14zM191 780l130 139q5 5 12 5h43q10 0 11.5 -7.5t-6.5 -15.5l-145 -134q-5 -5 -12 -5h-28q-9 0 -10.5 5.5t5.5 12.5z" />
    <glyph glyph-name="Icircumflex" unicode="&#xce;" horiz-adv-x="238" 
d="M186 700h36q13 0 11 -14l-130 -671q-2 -15 -17 -15h-36q-13 0 -11 15l130 671q2 14 17 14zM224 924h47q7 0 10 -5l87 -138q4 -7 -1.5 -15t-14.5 -8h-25q-7 0 -10 5l-78 115l-124 -115q-5 -5 -11 -5h-26q-10 0 -12 8t6 15l141 138q5 5 11 5z" />
    <glyph glyph-name="Idieresis" unicode="&#xcf;" horiz-adv-x="238" 
d="M186 700h36q13 0 11 -14l-130 -671q-2 -15 -17 -15h-36q-13 0 -11 15l130 671q2 14 17 14zM343 896q20 0 26.5 -12t1.5 -41q-11 -53 -48 -53q-39 0 -28 53q10 53 48 53zM141 896q20 0 26.5 -12t1.5 -41q-11 -53 -48 -53q-39 0 -28 53q10 53 48 53z" />
    <glyph glyph-name="Eth" unicode="&#xd0;" horiz-adv-x="677" 
d="M646 350q-33 -170 -154 -260t-297 -90h-145q-14 0 -12 15l60 309h-56q-13 0 -11 15l4 23q2 14 17 14h56l60 310q2 14 18 14h145q176 0 262 -90t53 -260zM580 350q29 148 -42.5 221t-226.5 73h-87l-52 -268h161q13 0 11 -14l-4 -23q-2 -15 -18 -15h-160l-52 -268h87
q155 0 254.5 73t128.5 221z" />
    <glyph glyph-name="Ntilde" unicode="&#xd1;" horiz-adv-x="700" 
d="M34 15l130 671q2 14 18 14h56q9 0 11 -7l270 -609l117 602q2 14 18 14h35q13 0 11 -14l-130 -671q-2 -15 -17 -15h-56q-8 0 -11 7l-270 609l-117 -601q-2 -15 -17 -15h-36q-14 0 -12 15zM595 907h27q6 0 9.5 -4t1.5 -10q-28 -123 -110 -123q-18 0 -35 10.5t-22 16.5
l-21 26q-1 2 -5 7l-5.5 7t-5 6t-5.5 5.5t-5 3.5t-6 3t-6 1q-37 0 -55 -70q-2 -14 -17 -14h-27q-6 0 -9.5 4.5t-1.5 10.5q29 122 112 122q42 0 77 -53q1 -1 4 -5t4 -5.5t4 -5t4 -5t4 -4t4.5 -3.5t4 -2.5t5 -2t5.5 -0.5q37 0 54 71q2 13 16 13z" />
    <glyph glyph-name="Ograve" unicode="&#xd2;" horiz-adv-x="706" 
d="M677 350q-31 -158 -133 -260t-243 -102q-142 0 -204.5 102t-31.5 260t133 260t243 102q142 0 204.5 -102t31.5 -260zM611 350q27 137 -21.5 220.5t-159.5 83.5q-110 0 -191.5 -83.5t-107.5 -220.5q-27 -137 21.5 -220.5t159.5 -83.5q110 0 191.5 83.5t107.5 220.5z
M427 919l76 -139q3 -7 -0.5 -12.5t-11.5 -5.5h-29q-6 0 -9 5l-93 134q-6 8 -1.5 15.5t14.5 7.5h43q8 0 11 -5z" />
    <glyph glyph-name="Oacute" unicode="&#xd3;" horiz-adv-x="706" 
d="M677 350q-31 -158 -133 -260t-243 -102q-142 0 -204.5 102t-31.5 260t133 260t243 102q142 0 204.5 -102t31.5 -260zM611 350q27 137 -21.5 220.5t-159.5 83.5q-110 0 -191.5 -83.5t-107.5 -220.5q-27 -137 21.5 -220.5t159.5 -83.5q110 0 191.5 83.5t107.5 220.5z
M407 780l130 139q5 5 12 5h43q10 0 11.5 -7.5t-6.5 -15.5l-145 -134q-5 -5 -12 -5h-28q-9 0 -10.5 5.5t5.5 12.5z" />
    <glyph glyph-name="Ocircumflex" unicode="&#xd4;" horiz-adv-x="706" 
d="M677 350q-31 -158 -133 -260t-243 -102q-142 0 -204.5 102t-31.5 260t133 260t243 102q142 0 204.5 -102t31.5 -260zM611 350q27 137 -21.5 220.5t-159.5 83.5q-110 0 -191.5 -83.5t-107.5 -220.5q-27 -137 21.5 -220.5t159.5 -83.5q110 0 191.5 83.5t107.5 220.5z
M459 924h47q7 0 10 -5l87 -138q4 -7 -1.5 -15t-14.5 -8h-25q-7 0 -10 5l-78 115l-124 -115q-5 -5 -11 -5h-26q-10 0 -12 8t6 15l141 138q5 5 11 5z" />
    <glyph glyph-name="Otilde" unicode="&#xd5;" horiz-adv-x="706" 
d="M677 350q-31 -158 -133 -260t-243 -102q-142 0 -204.5 102t-31.5 260t133 260t243 102q142 0 204.5 -102t31.5 -260zM611 350q27 137 -21.5 220.5t-159.5 83.5q-110 0 -191.5 -83.5t-107.5 -220.5q-27 -137 21.5 -220.5t159.5 -83.5q110 0 191.5 83.5t107.5 220.5z
M595 907h27q6 0 9.5 -4t1.5 -10q-28 -123 -110 -123q-18 0 -35 10.5t-22 16.5l-21 26q-1 2 -5 7l-5.5 7t-5 6t-5.5 5.5t-5 3.5t-6 3t-6 1q-37 0 -55 -70q-2 -14 -17 -14h-27q-6 0 -9.5 4.5t-1.5 10.5q29 122 112 122q42 0 77 -53q1 -1 4 -5t4 -5.5t4 -5t4 -5t4 -4t4.5 -3.5
t4 -2.5t5 -2t5.5 -0.5q37 0 54 71q2 13 16 13z" />
    <glyph glyph-name="Odieresis" unicode="&#xd6;" horiz-adv-x="706" 
d="M677 350q-31 -158 -133 -260t-243 -102q-142 0 -204.5 102t-31.5 260t133 260t243 102q142 0 204.5 -102t31.5 -260zM611 350q27 137 -21.5 220.5t-159.5 83.5q-110 0 -191.5 -83.5t-107.5 -220.5q-27 -137 21.5 -220.5t159.5 -83.5q110 0 191.5 83.5t107.5 220.5z
M578 896q20 0 26.5 -12t1.5 -41q-11 -53 -48 -53q-39 0 -28 53q10 53 48 53zM376 896q20 0 26.5 -12t1.5 -41q-11 -53 -48 -53q-39 0 -28 53q10 53 48 53z" />
    <glyph glyph-name="multiply" unicode="&#xd7;" horiz-adv-x="612" 
d="M471 138l-154 154l-153 -154q-9 -12 -20 -1l-22 22q-10 10 0 20l154 154l-154 155q-8 12 0 20l22 22q9 9 19 -1l154 -154l154 154q9 9 20 1l21 -22q10 -10 0 -20l-154 -155l154 -154q12 -12 0 -20l-21 -22q-11 -11 -20 1z" />
    <glyph glyph-name="Oslash" unicode="&#xd8;" horiz-adv-x="706" 
d="M669 350q-31 -157 -133.5 -259.5t-243.5 -102.5q-83 0 -140 37l-90 -118q-4 -7 -13 -7h-31q-9 0 -11 6.5t4 14.5l103 136q-46 48 -60.5 124.5t3.5 168.5q31 158 132.5 260t243.5 102q91 0 148 -43l96 124q5 7 14 7h31q9 0 10.5 -6.5t-4.5 -14.5l-110 -144
q87 -101 51 -285zM123 350q-30 -156 33 -238l385 504q-44 38 -119 38q-111 0 -191.5 -83.5t-107.5 -220.5zM603 350q29 146 -28 229l-383 -502q45 -31 111 -31q111 0 191.5 83t108.5 221z" />
    <glyph glyph-name="Ugrave" unicode="&#xd9;" horiz-adv-x="708" 
d="M301 -12q-123 0 -183.5 74.5t-34.5 207.5l81 416q2 14 18 14h35q13 0 11 -14l-79 -410q-23 -115 20 -172.5t143 -57.5q206 0 253 230l79 410q2 14 18 14h35q13 0 11 -14l-81 -416q-26 -133 -115.5 -207.5t-210.5 -74.5zM404 919l76 -139q3 -7 -0.5 -12.5t-11.5 -5.5h-29
q-6 0 -9 5l-93 134q-6 8 -1.5 15.5t14.5 7.5h43q8 0 11 -5z" />
    <glyph glyph-name="Uacute" unicode="&#xda;" horiz-adv-x="708" 
d="M301 -12q-123 0 -183.5 74.5t-34.5 207.5l81 416q2 14 18 14h35q13 0 11 -14l-79 -410q-23 -115 20 -172.5t143 -57.5q206 0 253 230l79 410q2 14 18 14h35q13 0 11 -14l-81 -416q-26 -133 -115.5 -207.5t-210.5 -74.5zM413 780l130 139q5 5 12 5h43q10 0 11.5 -7.5
t-6.5 -15.5l-145 -134q-5 -5 -12 -5h-28q-9 0 -10.5 5.5t5.5 12.5z" />
    <glyph glyph-name="Ucircumflex" unicode="&#xdb;" horiz-adv-x="708" 
d="M301 -12q-123 0 -183.5 74.5t-34.5 207.5l81 416q2 14 18 14h35q13 0 11 -14l-79 -410q-23 -115 20 -172.5t143 -57.5q206 0 253 230l79 410q2 14 18 14h35q13 0 11 -14l-81 -416q-26 -133 -115.5 -207.5t-210.5 -74.5zM459 924h47q7 0 10 -5l87 -138q4 -7 -1.5 -15
t-14.5 -8h-25q-7 0 -10 5l-78 115l-124 -115q-5 -5 -11 -5h-26q-10 0 -12 8t6 15l141 138q5 5 11 5z" />
    <glyph glyph-name="Udieresis" unicode="&#xdc;" horiz-adv-x="708" 
d="M301 -12q-123 0 -183.5 74.5t-34.5 207.5l81 416q2 14 18 14h35q13 0 11 -14l-79 -410q-23 -115 20 -172.5t143 -57.5q206 0 253 230l79 410q2 14 18 14h35q13 0 11 -14l-81 -416q-26 -133 -115.5 -207.5t-210.5 -74.5zM578 896q20 0 26.5 -12t1.5 -41q-11 -53 -48 -53
q-39 0 -28 53q10 53 48 53zM376 896q20 0 26.5 -12t1.5 -41q-11 -53 -48 -53q-39 0 -28 53q10 53 48 53z" />
    <glyph glyph-name="Yacute" unicode="&#xdd;" horiz-adv-x="654" 
d="M178 694l159 -355l298 355q5 6 14 6h38q9 0 11 -7.5t-5 -15.5l-335 -399l-52 -263q-2 -15 -16 -15h-36q-14 0 -12 15l52 263l-181 400q-4 7 1 14.5t14 7.5h39q7 0 11 -6zM387 780l130 139q5 5 13 5h43q10 0 11.5 -7.5t-7.5 -15.5l-145 -134q-5 -5 -11 -5h-29
q-8 0 -9.5 5.5t4.5 12.5z" />
    <glyph glyph-name="Thorn" unicode="&#xde;" horiz-adv-x="583" 
d="M181 700h36q13 0 11 -14l-22 -115h137q122 0 181.5 -55.5t40.5 -157.5q-20 -101 -102 -157.5t-203 -56.5h-137l-25 -129q-2 -15 -17 -15h-36q-13 0 -11 15l130 671q2 14 17 14zM499 358q15 80 -29 118.5t-144 38.5h-131l-61 -315h131q204 0 234 158z" />
    <glyph glyph-name="germandbls" unicode="&#xdf;" horiz-adv-x="563" 
d="M277 353l4 25q2 14 17 14q77 4 124 40t59 99q10 55 -20 89t-93 34q-145 0 -180 -175l-90 -465q-2 -14 -17 -14h-35q-14 0 -12 14l89 458q47 240 258 240q89 0 135.5 -51.5t30.5 -128.5q-12 -63 -54.5 -105.5t-108.5 -59.5q69 -16 102 -66t19 -122q-18 -89 -80.5 -140
t-161.5 -51q-66 0 -109 26q-6 4 -5 14l10 34q3 8 10.5 10.5t13.5 -1.5q39 -25 91 -25q68 0 110 36.5t55 96.5q12 70 -26 113t-126 47q-12 2 -10 14z" />
    <glyph glyph-name="agrave" unicode="&#xe0;" horiz-adv-x="570" 
d="M390 14l7 33q-78 -59 -166 -59q-103 0 -157.5 74.5t-31.5 196.5q23 123 107 197t188 74q92 0 142 -60l6 34q5 14 17 14h32q6 0 9.5 -4t1.5 -10l-95 -490q-2 -14 -16 -14h-32q-14 0 -12 14zM250 42q90 0 158 63l60 308q-43 63 -134 63q-81 0 -145.5 -58t-84.5 -159
q-20 -102 21.5 -159.5t124.5 -57.5zM331 745l76 -139q4 -7 0.5 -12.5t-12.5 -5.5h-28q-5 0 -10 5l-93 134q-5 8 -0.5 15.5t14.5 7.5h43q7 0 10 -5z" />
    <glyph glyph-name="aacute" unicode="&#xe1;" horiz-adv-x="570" 
d="M390 14l7 33q-78 -59 -166 -59q-103 0 -157.5 74.5t-31.5 196.5q23 123 107 197t188 74q92 0 142 -60l6 34q5 14 17 14h32q6 0 9.5 -4t1.5 -10l-95 -490q-2 -14 -16 -14h-32q-14 0 -12 14zM250 42q90 0 158 63l60 308q-43 63 -134 63q-81 0 -145.5 -58t-84.5 -159
q-20 -102 21.5 -159.5t124.5 -57.5zM310 606l130 139q5 5 13 5h43q10 0 11.5 -7.5t-7.5 -15.5l-145 -134q-5 -5 -11 -5h-29q-8 0 -9.5 5.5t4.5 12.5z" />
    <glyph glyph-name="acircumflex" unicode="&#xe2;" horiz-adv-x="570" 
d="M390 14l7 33q-78 -59 -166 -59q-103 0 -157.5 74.5t-31.5 196.5q23 123 107 197t188 74q92 0 142 -60l6 34q5 14 17 14h32q6 0 9.5 -4t1.5 -10l-95 -490q-2 -14 -16 -14h-32q-14 0 -12 14zM250 42q90 0 158 63l60 308q-43 63 -134 63q-81 0 -145.5 -58t-84.5 -159
q-20 -102 21.5 -159.5t124.5 -57.5zM372 750h46q8 0 10 -5l87 -138q5 -7 -0.5 -15t-14.5 -8h-25q-7 0 -10 5l-79 115l-123 -115q-5 -5 -11 -5h-26q-10 0 -12 8t5 15l141 138q5 5 12 5z" />
    <glyph glyph-name="atilde" unicode="&#xe3;" horiz-adv-x="570" 
d="M390 14l7 33q-78 -59 -166 -59q-103 0 -157.5 74.5t-31.5 196.5q23 123 107 197t188 74q92 0 142 -60l6 34q5 14 17 14h32q6 0 9.5 -4t1.5 -10l-95 -490q-2 -14 -16 -14h-32q-14 0 -12 14zM250 42q90 0 158 63l60 308q-43 63 -134 63q-81 0 -145.5 -58t-84.5 -159
q-20 -102 21.5 -159.5t124.5 -57.5zM502 733h26q14 0 12 -14q-28 -123 -111 -123q-18 0 -34 9.5t-23 17.5t-20 26q-1 2 -5 7l-5.5 7t-5 6t-5.5 5.5t-5 3.5t-6 3t-6 1q-37 0 -55 -70q-5 -14 -17 -14h-27q-6 0 -9.5 4.5t-1.5 10.5q29 122 112 122q17 0 33 -10t23 -17.5
t21 -25.5q1 -1 4 -5t4 -5.5t4 -5t4 -5t4 -4t4.5 -3.5t4 -2.5t5 -2t5.5 -0.5q36 0 53 71q6 13 17 13z" />
    <glyph glyph-name="adieresis" unicode="&#xe4;" horiz-adv-x="570" 
d="M390 14l7 33q-78 -59 -166 -59q-103 0 -157.5 74.5t-31.5 196.5q23 123 107 197t188 74q92 0 142 -60l6 34q5 14 17 14h32q6 0 9.5 -4t1.5 -10l-95 -490q-2 -14 -16 -14h-32q-14 0 -12 14zM250 42q90 0 158 63l60 308q-43 63 -134 63q-81 0 -145.5 -58t-84.5 -159
q-20 -102 21.5 -159.5t124.5 -57.5zM493 722q38 0 28 -53q-11 -53 -49 -53t-27 53q5 29 16 41t32 12zM291 722q38 0 28 -53q-11 -53 -49 -53t-27 53q5 29 16 41t32 12z" />
    <glyph glyph-name="aring" unicode="&#xe5;" horiz-adv-x="570" 
d="M390 14l7 33q-78 -59 -166 -59q-103 0 -157.5 74.5t-31.5 196.5q23 123 107 197t188 74q92 0 142 -60l6 34q5 14 17 14h32q6 0 9.5 -4t1.5 -10l-95 -490q-2 -14 -16 -14h-32q-14 0 -12 14zM250 42q90 0 158 63l60 308q-43 63 -134 63q-81 0 -145.5 -58t-84.5 -159
q-20 -102 21.5 -159.5t124.5 -57.5zM390 772q44 0 68 -29.5t16 -73.5q-10 -44 -45 -73.5t-79 -29.5t-69 30t-15 73q8 44 43.5 73.5t80.5 29.5zM358 611q25 0 43.5 17t25.5 41q4 25 -8.5 41.5t-37.5 16.5q-26 0 -45 -17t-23 -41q-6 -22 7 -40t38 -18z" />
    <glyph glyph-name="ae" unicode="&#xe6;" horiz-adv-x="850" 
d="M173 42q63 0 117 37.5t78 118.5l13 65h-125q-155 0 -178 -113q-9 -53 18.5 -80.5t76.5 -27.5zM447 288h88q121 0 176 25.5t64 72.5q9 44 -19.5 67t-88.5 23q-77 0 -137 -48t-83 -140zM586 42q66 0 121 28q19 9 19 -8l-2 -27q-2 -11 -10 -15q-66 -32 -142 -32t-123.5 35
t-61.5 100q-81 -135 -223 -135q-77 0 -120 42t-28 118q32 167 247 167h129l5 24q25 137 -115 137q-74 0 -138 -27q-8 -3 -14 -1t-5 10l2 24q2 12 12 17q78 31 156 31q77 0 117 -33.5t34 -95.5q42 63 104 96t132 33q82 0 126 -39t30 -104q-30 -152 -297 -152h-104
q-12 -89 25.5 -141t123.5 -52z" />
    <glyph glyph-name="ccedilla" unicode="&#xe7;" horiz-adv-x="499" 
d="M42 259q24 122 115 196.5t210 74.5q73 0 128 -23q9 -5 6 -15l-9 -30q-5 -19 -22 -10q-45 24 -113 24q-92 0 -163 -58t-90 -159q-19 -100 29 -158.5t143 -58.5q66 0 125 27q9 4 14 0.5t4 -11.5l-3 -27q0 -11 -13 -16q-49 -22 -120 -27l-39 -51q80 -18 71 -85
q-19 -90 -140 -90q-25 0 -42 4q-11 2 -9 14l3 17q2 14 18 12q15 -4 36 -4q70 0 79 48q8 47 -68 59q-8 1 -10.5 7.5t2.5 13.5l43 57q-106 12 -156.5 84.5t-28.5 184.5z" />
    <glyph glyph-name="egrave" unicode="&#xe8;" horiz-adv-x="540" 
d="M402 75q9 4 14 1.5t4 -10.5l-3 -28q0 -11 -11 -16q-67 -34 -157 -34q-120 0 -175 74t-31 198q23 126 108.5 198t199.5 72q88 0 138.5 -39.5t38.5 -103.5q-13 -68 -90.5 -110.5t-230.5 -42.5h-105q-10 -92 29.5 -142t129.5 -50q82 0 141 33zM113 287h89q245 0 262 99
q8 41 -28.5 65.5t-97.5 24.5q-76 0 -138 -49t-87 -140zM322 745l76 -139q3 -7 -0.5 -12.5t-11.5 -5.5h-29q-6 0 -9 5l-93 134q-6 8 -1.5 15.5t14.5 7.5h43q8 0 11 -5z" />
    <glyph glyph-name="eacute" unicode="&#xe9;" horiz-adv-x="540" 
d="M402 75q9 4 14 1.5t4 -10.5l-3 -28q0 -11 -11 -16q-67 -34 -157 -34q-120 0 -175 74t-31 198q23 126 108.5 198t199.5 72q88 0 138.5 -39.5t38.5 -103.5q-13 -68 -90.5 -110.5t-230.5 -42.5h-105q-10 -92 29.5 -142t129.5 -50q82 0 141 33zM113 287h89q245 0 262 99
q8 41 -28.5 65.5t-97.5 24.5q-76 0 -138 -49t-87 -140zM302 606l130 139q5 5 12 5h43q10 0 11.5 -7.5t-6.5 -15.5l-145 -134q-5 -5 -12 -5h-28q-9 0 -10.5 5.5t5.5 12.5z" />
    <glyph glyph-name="ecircumflex" unicode="&#xea;" horiz-adv-x="540" 
d="M402 75q9 4 14 1.5t4 -10.5l-3 -28q0 -11 -11 -16q-67 -34 -157 -34q-120 0 -175 74t-31 198q23 126 108.5 198t199.5 72q88 0 138.5 -39.5t38.5 -103.5q-13 -68 -90.5 -110.5t-230.5 -42.5h-105q-10 -92 29.5 -142t129.5 -50q82 0 141 33zM113 287h89q245 0 262 99
q8 41 -28.5 65.5t-97.5 24.5q-76 0 -138 -49t-87 -140zM353 750h47q7 0 10 -5l87 -138q4 -8 -1 -15.5t-15 -7.5h-24q-8 0 -11 5l-78 115l-124 -115q-5 -5 -11 -5h-26q-9 0 -11 8t5 15l141 138q5 5 11 5z" />
    <glyph glyph-name="edieresis" unicode="&#xeb;" horiz-adv-x="540" 
d="M402 75q9 4 14 1.5t4 -10.5l-3 -28q0 -11 -11 -16q-67 -34 -157 -34q-120 0 -175 74t-31 198q23 126 108.5 198t199.5 72q88 0 138.5 -39.5t38.5 -103.5q-13 -68 -90.5 -110.5t-230.5 -42.5h-105q-10 -92 29.5 -142t129.5 -50q82 0 141 33zM113 287h89q245 0 262 99
q8 41 -28.5 65.5t-97.5 24.5q-76 0 -138 -49t-87 -140zM475 722q21 0 27.5 -12t0.5 -41q-10 -53 -48 -53t-28 53q11 53 48 53zM273 722q21 0 27.5 -12t0.5 -41q-10 -53 -48 -53t-28 53q11 53 48 53z" />
    <glyph glyph-name="igrave" unicode="&#xec;" horiz-adv-x="230" 
d="M192 504l-95 -490q-2 -14 -17 -14h-32q-13 0 -11 14l95 490q2 14 17 14h32q13 0 11 -14zM132 745l76 -139q3 -7 -0.5 -12.5t-11.5 -5.5h-29q-6 0 -9 5l-93 134q-6 8 -1.5 15.5t14.5 7.5h43q8 0 11 -5z" />
    <glyph glyph-name="iacute" unicode="&#xed;" horiz-adv-x="230" 
d="M192 504l-95 -490q-2 -14 -17 -14h-32q-13 0 -11 14l95 490q2 14 17 14h32q13 0 11 -14zM143 606l130 139q5 5 12 5h43q10 0 11.5 -7.5t-6.5 -15.5l-145 -134q-5 -5 -12 -5h-28q-9 0 -10.5 5.5t5.5 12.5z" />
    <glyph glyph-name="icircumflex" unicode="&#xee;" horiz-adv-x="230" 
d="M179 504l-95 -490q-2 -14 -17 -14h-32q-13 0 -11 14l95 490q2 14 17 14h32q13 0 11 -14zM173 750h47q7 0 10 -5l87 -138q4 -8 -1 -15.5t-15 -7.5h-24q-8 0 -11 5l-78 115l-124 -115q-5 -5 -11 -5h-26q-9 0 -11 8t5 15l141 138q5 5 11 5z" />
    <glyph glyph-name="idieresis" unicode="&#xef;" horiz-adv-x="230" 
d="M192 504l-95 -490q-2 -14 -17 -14h-32q-13 0 -11 14l95 490q2 14 17 14h32q13 0 11 -14zM305 722q21 0 27.5 -12t0.5 -41q-10 -53 -48 -53t-28 53q11 53 48 53zM103 722q21 0 27.5 -12t0.5 -41q-10 -53 -48 -53t-28 53q11 53 48 53z" />
    <glyph glyph-name="eth" unicode="&#xf0;" horiz-adv-x="543" 
d="M559 634l-86 -25q77 -101 40 -285q-31 -158 -108 -247t-196 -89q-98 0 -145.5 67.5t-24.5 187.5q24 121 97 187.5t176 66.5q46 0 87 -18.5t63 -52.5q0 101 -57 164l-213 -61q-13 -5 -15 8l-2 17q-1 13 12 18l179 51q-46 28 -116 49q-9 1 -7 16l8 27q5 16 20 11
q107 -26 170 -82l114 33q14 5 16 -10l2 -16q1 -5 -3.5 -10.5t-10.5 -6.5zM302 444q-76 0 -129 -51.5t-71 -149.5q-18 -92 12.5 -147t103.5 -55q84 0 144.5 70.5t89.5 213.5l5 31q-54 88 -155 88z" />
    <glyph glyph-name="ntilde" unicode="&#xf1;" horiz-adv-x="572" 
d="M326 476q-44 0 -88.5 -17.5t-76.5 -49.5l-77 -395q-2 -14 -17 -14h-32q-13 0 -11 14l95 490q2 14 17 14h32q13 0 11 -14l-7 -36q76 62 173 62q101 0 145 -59.5t22 -170.5l-55 -286q-2 -14 -17 -14h-32q-13 0 -11 14l55 284q34 178 -126 178zM493 733h27q6 0 9.5 -4
t1.5 -10q-28 -123 -110 -123q-42 0 -77 53q-25 33 -39 33q-37 0 -55 -70q-2 -14 -17 -14h-27q-13 0 -11 15q29 122 112 122q42 0 77 -53q1 -1 4 -5t4 -5.5t4 -5t4 -5t4 -4t4.5 -3.5t4 -2.5t5 -2t5.5 -0.5q37 0 54 71q2 13 16 13z" />
    <glyph glyph-name="ograve" unicode="&#xf2;" horiz-adv-x="576" 
d="M42 259q23 119 106 195t193 76q109 0 162.5 -76t30.5 -195q-24 -118 -107.5 -194.5t-191.5 -76.5t-162.5 77t-30.5 194zM104 259q-20 -97 20.5 -157t121.5 -60t143.5 59.5t82.5 157.5q18 99 -21 158t-121 59q-80 0 -144 -59.5t-82 -157.5zM332 745l76 -139
q4 -7 0.5 -12.5t-12.5 -5.5h-28q-5 0 -10 5l-93 134q-5 8 -0.5 15.5t14.5 7.5h43q7 0 10 -5z" />
    <glyph glyph-name="oacute" unicode="&#xf3;" horiz-adv-x="576" 
d="M42 259q23 119 106 195t193 76q109 0 162.5 -76t30.5 -195q-24 -118 -107.5 -194.5t-191.5 -76.5t-162.5 77t-30.5 194zM104 259q-20 -97 20.5 -157t121.5 -60t143.5 59.5t82.5 157.5q18 99 -21 158t-121 59q-80 0 -144 -59.5t-82 -157.5zM302 606l130 139q5 5 13 5h43
q10 0 11.5 -7.5t-7.5 -15.5l-145 -134q-5 -5 -11 -5h-29q-8 0 -9.5 5.5t4.5 12.5z" />
    <glyph glyph-name="ocircumflex" unicode="&#xf4;" horiz-adv-x="576" 
d="M42 259q23 119 106 195t193 76q109 0 162.5 -76t30.5 -195q-24 -118 -107.5 -194.5t-191.5 -76.5t-162.5 77t-30.5 194zM104 259q-20 -97 20.5 -157t121.5 -60t143.5 59.5t82.5 157.5q18 99 -21 158t-121 59q-80 0 -144 -59.5t-82 -157.5zM360 750h46q8 0 10 -5l87 -138
q5 -7 -0.5 -15t-14.5 -8h-25q-7 0 -10 5l-79 115l-123 -115q-5 -5 -11 -5h-26q-10 0 -12 8t5 15l141 138q5 5 12 5z" />
    <glyph glyph-name="otilde" unicode="&#xf5;" horiz-adv-x="576" 
d="M42 259q23 119 106 195t193 76q109 0 162.5 -76t30.5 -195q-24 -118 -107.5 -194.5t-191.5 -76.5t-162.5 77t-30.5 194zM104 259q-20 -97 20.5 -157t121.5 -60t143.5 59.5t82.5 157.5q18 99 -21 158t-121 59q-80 0 -144 -59.5t-82 -157.5zM497 733h26q14 0 12 -14
q-28 -123 -111 -123q-18 0 -34 9.5t-23 17.5t-20 26q-1 2 -5 7l-5.5 7t-5 6t-5.5 5.5t-5 3.5t-6 3t-6 1q-37 0 -55 -70q-5 -14 -17 -14h-27q-6 0 -9.5 4.5t-1.5 10.5q29 122 112 122q17 0 33 -10t23 -17.5t21 -25.5q1 -1 4 -5t4 -5.5t4 -5t4 -5t4 -4t4.5 -3.5t4 -2.5t5 -2
t5.5 -0.5q36 0 53 71q6 13 17 13z" />
    <glyph glyph-name="odieresis" unicode="&#xf6;" horiz-adv-x="576" 
d="M42 259q23 119 106 195t193 76q109 0 162.5 -76t30.5 -195q-24 -118 -107.5 -194.5t-191.5 -76.5t-162.5 77t-30.5 194zM104 259q-20 -97 20.5 -157t121.5 -60t143.5 59.5t82.5 157.5q18 99 -21 158t-121 59q-80 0 -144 -59.5t-82 -157.5zM479 722q38 0 28 -53
q-11 -53 -49 -53t-27 53q5 29 16 41t32 12zM277 722q38 0 28 -53q-11 -53 -49 -53t-27 53q5 29 16 41t32 12z" />
    <glyph glyph-name="divide" unicode="&#xf7;" horiz-adv-x="612" 
d="M91 360h460q14 0 14 -14v-28q0 -14 -14 -14h-460q-14 0 -14 14v28q0 14 14 14zM364 533q0 -56 -43 -56t-43 56t43 56t43 -56zM364 131q0 -56 -43 -56t-43 56t43 56t43 -56z" />
    <glyph glyph-name="oslash" unicode="&#xf8;" horiz-adv-x="576" 
d="M34 259q23 119 106 195t193 76q59 0 106 -26l90 117q5 7 14 7h30q9 0 11 -6t-4 -14l-103 -133q75 -75 49 -216q-24 -118 -107.5 -194.5t-191.5 -76.5q-56 0 -106 26l-90 -117q-4 -7 -13 -7h-31q-9 0 -10.5 6.5t4.5 14.5l102 132q-75 75 -49 216zM96 259q-20 -107 26 -165
l280 362q-35 20 -80 20q-80 0 -144 -59.5t-82 -157.5zM464 259q19 104 -26 165l-280 -362q34 -20 80 -20q81 0 143.5 59.5t82.5 157.5z" />
    <glyph glyph-name="ugrave" unicode="&#xf9;" horiz-adv-x="572" 
d="M245 42q94 0 166 67l76 395q5 14 17 14h32q6 0 9.5 -4t1.5 -10l-95 -490q-2 -14 -16 -14h-32q-14 0 -12 14l7 36q-74 -62 -172 -62q-101 0 -145.5 60t-22.5 170l55 286q5 14 18 14h31q6 0 9.5 -4t1.5 -10l-55 -284q-34 -178 126 -178zM305 745l76 -139q4 -7 0.5 -12.5
t-12.5 -5.5h-28q-5 0 -10 5l-93 134q-5 8 -0.5 15.5t14.5 7.5h43q7 0 10 -5z" />
    <glyph glyph-name="uacute" unicode="&#xfa;" horiz-adv-x="572" 
d="M245 42q94 0 166 67l76 395q5 14 17 14h32q6 0 9.5 -4t1.5 -10l-95 -490q-2 -14 -16 -14h-32q-14 0 -12 14l7 36q-74 -62 -172 -62q-101 0 -145.5 60t-22.5 170l55 286q5 14 18 14h31q6 0 9.5 -4t1.5 -10l-55 -284q-34 -178 126 -178zM321 606l130 139q5 5 13 5h43
q10 0 11.5 -7.5t-7.5 -15.5l-145 -134q-5 -5 -11 -5h-29q-8 0 -9.5 5.5t4.5 12.5z" />
    <glyph glyph-name="ucircumflex" unicode="&#xfb;" horiz-adv-x="572" 
d="M245 42q94 0 166 67l76 395q5 14 17 14h32q6 0 9.5 -4t1.5 -10l-95 -490q-2 -14 -16 -14h-32q-14 0 -12 14l7 36q-74 -62 -172 -62q-101 0 -145.5 60t-22.5 170l55 286q5 14 18 14h31q6 0 9.5 -4t1.5 -10l-55 -284q-34 -178 126 -178zM355 750h46q8 0 10 -5l87 -138
q5 -7 -0.5 -15t-14.5 -8h-25q-7 0 -10 5l-79 115l-123 -115q-5 -5 -11 -5h-26q-10 0 -12 8t5 15l141 138q5 5 12 5z" />
    <glyph glyph-name="udieresis" unicode="&#xfc;" horiz-adv-x="572" 
d="M245 42q94 0 166 67l76 395q5 14 17 14h32q6 0 9.5 -4t1.5 -10l-95 -490q-2 -14 -16 -14h-32q-14 0 -12 14l7 36q-74 -62 -172 -62q-101 0 -145.5 60t-22.5 170l55 286q5 14 18 14h31q6 0 9.5 -4t1.5 -10l-55 -284q-34 -178 126 -178zM474 722q38 0 28 -53
q-11 -53 -49 -53t-27 53q5 29 16 41t32 12zM272 722q38 0 28 -53q-11 -53 -49 -53t-27 53q5 29 16 41t32 12z" />
    <glyph glyph-name="yacute" unicode="&#xfd;" horiz-adv-x="526" 
d="M229 75l255 434q4 9 15 9h38q9 0 11.5 -5.5t-2.5 -12.5l-407 -684q-5 -9 -15 -9h-35q-9 0 -11.5 5.5t1.5 12.5l104 175l-113 498q-2 8 3 14t14 6h37q9 0 11 -8zM293 606l130 139q5 5 13 5h43q10 0 11.5 -7.5t-7.5 -15.5l-145 -134q-5 -5 -11 -5h-29q-8 0 -9.5 5.5
t4.5 12.5z" />
    <glyph glyph-name="thorn" unicode="&#xfe;" horiz-adv-x="570" 
d="M233 -12q-92 0 -143 59l-44 -226q-2 -14 -18 -14h-31q-14 0 -12 14l175 895q2 14 17 14h31q14 0 12 -14l-48 -246q68 60 166 60q105 0 158.5 -73.5t30.5 -197.5q-23 -122 -107 -196.5t-187 -74.5zM235 42q81 0 145.5 58t84.5 159t-22 159t-124 58q-92 0 -158 -63
l-60 -308q41 -63 134 -63z" />
    <glyph glyph-name="ydieresis" unicode="&#xff;" horiz-adv-x="526" 
d="M229 75l255 434q4 9 15 9h38q9 0 11.5 -5.5t-2.5 -12.5l-407 -684q-5 -9 -15 -9h-35q-9 0 -11.5 5.5t1.5 12.5l104 175l-113 498q-2 8 3 14t14 6h37q9 0 11 -8zM453 722q38 0 28 -53q-11 -53 -49 -53t-27 53q5 29 16 41t32 12zM251 722q38 0 28 -53q-11 -53 -49 -53
t-27 53q5 29 16 41t32 12z" />
    <glyph glyph-name="Amacron" unicode="&#x100;" horiz-adv-x="640" 
d="M375 700h52q10 0 12 -10l135 -670q5 -20 -15 -20h-41q-9 0 -12 10l-34 181h-339l-106 -181q-4 -10 -15 -10h-40q-9 0 -11.5 6t2.5 14l396 670q8 10 16 10zM387 629l-221 -382h295zM284 829l5 23q2 14 16 14h256q14 0 12 -14l-5 -23q-2 -15 -17 -15h-256q-13 0 -11 15z
" />
    <glyph glyph-name="amacron" unicode="&#x101;" horiz-adv-x="570" 
d="M390 14l7 33q-78 -59 -166 -59q-103 0 -157.5 74.5t-31.5 196.5q23 123 107 197t188 74q92 0 142 -60l6 34q5 14 17 14h32q6 0 9.5 -4t1.5 -10l-95 -490q-2 -14 -16 -14h-32q-14 0 -12 14zM250 42q90 0 158 63l60 308q-43 63 -134 63q-81 0 -145.5 -58t-84.5 -159
q-20 -102 21.5 -159.5t124.5 -57.5zM236 655l4 23q2 14 17 14h256q13 0 11 -14l-4 -23q-2 -15 -17 -15h-256q-13 0 -11 15z" />
    <glyph glyph-name="Abreve" unicode="&#x102;" horiz-adv-x="640" 
d="M375 700h52q10 0 12 -10l135 -670q5 -20 -15 -20h-41q-9 0 -12 10l-34 181h-339l-106 -181q-4 -10 -15 -10h-40q-9 0 -11.5 6t2.5 14l396 670q8 10 16 10zM387 629l-221 -382h295zM414 762q-64 0 -101 37t-29 105q0 6 5 10.5t12 4.5h28q13 0 11 -13q-4 -46 18.5 -70.5
t64.5 -24.5t73.5 24.5t45.5 70.5q5 13 17 13h28q6 0 9.5 -4.5t1.5 -10.5q-21 -69 -71 -105.5t-113 -36.5z" />
    <glyph glyph-name="abreve" unicode="&#x103;" horiz-adv-x="570" 
d="M390 14l7 33q-78 -59 -166 -59q-103 0 -157.5 74.5t-31.5 196.5q23 123 107 197t188 74q92 0 142 -60l6 34q5 14 17 14h32q6 0 9.5 -4t1.5 -10l-95 -490q-2 -14 -16 -14h-32q-14 0 -12 14zM250 42q90 0 158 63l60 308q-43 63 -134 63q-81 0 -145.5 -58t-84.5 -159
q-20 -102 21.5 -159.5t124.5 -57.5zM363 588q-63 0 -99.5 36.5t-30.5 105.5q2 15 17 15h28q14 0 12 -13q-4 -46 18 -70.5t65 -24.5q42 0 73.5 24.5t45.5 70.5q2 13 16 13h28q7 0 10 -4.5t1 -10.5q-19 -68 -70 -105t-114 -37z" />
    <glyph glyph-name="Aogonek" unicode="&#x104;" horiz-adv-x="640" 
d="M-37 20l396 670q8 10 16 10h52q10 0 12 -10l135 -670q6 -21 -26 -44q-63 -52 -71 -102q-4 -21 8 -31.5t39 -10.5q21 0 27 2q7 1 11.5 -2.5t2.5 -11.5l-4 -22q-2 -12 -14 -14q-39 -3 -43 -3q-52 0 -74.5 22.5t-14.5 61.5q10 61 102 135q-10 2 -11 10l-34 181h-339
l-106 -181q-4 -10 -15 -10h-40q-9 0 -11.5 6t2.5 14zM387 629l-221 -382h295z" />
    <glyph glyph-name="aogonek" unicode="&#x105;" horiz-adv-x="570" 
d="M250 42q90 0 158 63l60 308q-43 63 -134 63q-81 0 -145.5 -58t-84.5 -159q-20 -102 21.5 -159.5t124.5 -57.5zM388 0l9 47q-78 -59 -166 -59q-103 0 -157.5 74.5t-31.5 196.5q23 123 107 197t188 74q92 0 142 -60l6 34q5 14 17 14h32q6 0 9.5 -4t1.5 -10l-95 -490
q-2 -13 -32 -38q-61 -51 -72 -102q-4 -21 8.5 -31.5t39.5 -10.5q21 0 27 2q7 1 11 -2.5t3 -11.5l-5 -22q-2 -12 -14 -14q-39 -3 -43 -3q-51 0 -73.5 22.5t-15.5 61.5q16 73 104 135z" />
    <glyph glyph-name="Cacute" unicode="&#x106;" horiz-adv-x="603" 
d="M629 689q11 -5 8 -17l-8 -31q-6 -19 -24 -11q-49 24 -119 24q-138 0 -233 -83t-122 -221q-29 -139 36 -221.5t203 -82.5q69 0 129 25q9 4 15 1t5 -11l-4 -31q-2 -13 -15 -17q-63 -25 -144 -25q-165 0 -244 99.5t-47 262.5q30 162 148 262t282 100q79 0 134 -23zM435 780
l130 139q5 5 13 5h43q10 0 11.5 -7.5t-7.5 -15.5l-145 -134q-5 -5 -11 -5h-29q-8 0 -9.5 5.5t4.5 12.5z" />
    <glyph glyph-name="cacute" unicode="&#x107;" horiz-adv-x="499" 
d="M42 259q24 122 115.5 196.5t210.5 74.5q72 0 127 -23q10 -4 7 -15l-9 -30q-7 -18 -22 -10q-45 24 -113 24q-93 0 -164 -58t-90 -159q-19 -100 29.5 -158.5t143.5 -58.5q63 0 125 27q8 4 13 0.5t4 -11.5l-2 -27q-1 -11 -13 -16q-65 -27 -138 -27q-123 0 -185.5 74
t-38.5 197zM306 606l130 139q5 5 12 5h43q10 0 11.5 -7.5t-6.5 -15.5l-145 -134q-5 -5 -12 -5h-28q-9 0 -10.5 5.5t5.5 12.5z" />
    <glyph glyph-name="Ccircumflex" unicode="&#x108;" horiz-adv-x="603" 
d="M629 689q11 -5 8 -17l-8 -31q-6 -19 -24 -11q-49 24 -119 24q-138 0 -233 -83t-122 -221q-29 -139 36 -221.5t203 -82.5q69 0 129 25q9 4 15 1t5 -11l-4 -31q-2 -13 -15 -17q-63 -25 -144 -25q-165 0 -244 99.5t-47 262.5q30 162 148 262t282 100q79 0 134 -23zM483 924
h46q7 0 10 -5l87 -138q5 -7 -0.5 -15t-15.5 -8h-24q-7 0 -10 5l-79 115l-123 -115q-5 -5 -12 -5h-26q-9 0 -11 8t5 15l141 138q5 5 12 5z" />
    <glyph glyph-name="ccircumflex" unicode="&#x109;" horiz-adv-x="499" 
d="M42 259q24 122 115.5 196.5t210.5 74.5q72 0 127 -23q10 -4 7 -15l-9 -30q-7 -18 -22 -10q-45 24 -113 24q-93 0 -164 -58t-90 -159q-19 -100 29.5 -158.5t143.5 -58.5q63 0 125 27q8 4 13 0.5t4 -11.5l-2 -27q-1 -11 -13 -16q-65 -27 -138 -27q-123 0 -185.5 74
t-38.5 197zM365 750h47q7 0 10 -5l87 -138q4 -8 -1 -15.5t-15 -7.5h-24q-8 0 -11 5l-78 115l-124 -115q-5 -5 -11 -5h-26q-9 0 -11 8t5 15l141 138q5 5 11 5z" />
    <glyph glyph-name="Cdotaccent" unicode="&#x10a;" horiz-adv-x="603" 
d="M629 689q11 -5 8 -17l-8 -31q-6 -19 -24 -11q-49 24 -119 24q-138 0 -233 -83t-122 -221q-29 -139 36 -221.5t203 -82.5q69 0 129 25q9 4 15 1t5 -11l-4 -31q-2 -13 -15 -17q-63 -25 -144 -25q-165 0 -244 99.5t-47 262.5q30 162 148 262t282 100q79 0 134 -23zM495 896
q38 0 27 -53q-10 -53 -48 -53t-28 53q6 29 17.5 41t31.5 12z" />
    <glyph glyph-name="cdotaccent" unicode="&#x10b;" horiz-adv-x="499" 
d="M42 259q24 122 115.5 196.5t210.5 74.5q72 0 127 -23q10 -4 7 -15l-9 -30q-7 -18 -22 -10q-45 24 -113 24q-93 0 -164 -58t-90 -159q-19 -100 29.5 -158.5t143.5 -58.5q63 0 125 27q8 4 13 0.5t4 -11.5l-2 -27q-1 -11 -13 -16q-65 -27 -138 -27q-123 0 -185.5 74
t-38.5 197zM388 722q21 0 27.5 -12t0.5 -41q-10 -53 -48 -53t-28 53q11 53 48 53z" />
    <glyph glyph-name="Ccaron" unicode="&#x10c;" horiz-adv-x="603" 
d="M629 689q11 -5 8 -17l-8 -31q-6 -19 -24 -11q-49 24 -119 24q-138 0 -233 -83t-122 -221q-29 -139 36 -221.5t203 -82.5q69 0 129 25q9 4 15 1t5 -11l-4 -31q-2 -13 -15 -17q-63 -25 -144 -25q-165 0 -244 99.5t-47 262.5q30 162 148 262t282 100q79 0 134 -23zM495 758
h-47q-6 0 -9 5l-87 138q-5 8 0 15.5t15 7.5h26q6 0 9 -4l79 -116l123 116q4 4 12 4h25q9 0 11.5 -7.5t-4.5 -15.5l-141 -138q-5 -5 -12 -5z" />
    <glyph glyph-name="ccaron" unicode="&#x10d;" horiz-adv-x="499" 
d="M42 259q24 122 115.5 196.5t210.5 74.5q72 0 127 -23q10 -4 7 -15l-9 -30q-7 -18 -22 -10q-45 24 -113 24q-93 0 -164 -58t-90 -159q-19 -100 29.5 -158.5t143.5 -58.5q63 0 125 27q8 4 13 0.5t4 -11.5l-2 -27q-1 -11 -13 -16q-65 -27 -138 -27q-123 0 -185.5 74
t-38.5 197zM380 584h-47q-5 0 -10 5l-87 138q-4 8 1 15.5t14 7.5h26q7 0 10 -4l78 -116l124 116q4 4 12 4h24q10 0 12.5 -7.5t-5.5 -15.5l-141 -138q-5 -5 -11 -5z" />
    <glyph glyph-name="Dcaron" unicode="&#x10e;" horiz-adv-x="672" 
d="M642 350q-33 -170 -154 -260t-297 -90h-145q-14 0 -12 15l130 671q2 14 18 14h145q176 0 262 -90t53 -260zM576 350q29 148 -42.5 221t-226.5 73h-87l-114 -588h87q155 0 254.5 73t128.5 221zM384 758h-46q-5 0 -10 5l-87 138q-4 8 1 15.5t14 7.5h26q7 0 10 -4l78 -116
l124 116q4 4 12 4h24q10 0 12.5 -7.5t-5.5 -15.5l-141 -138q-5 -5 -12 -5z" />
    <glyph glyph-name="dcaron" unicode="&#x10f;" horiz-adv-x="655" 
d="M231 -12q-104 0 -158.5 74t-30.5 197q23 123 106.5 197t187.5 74q94 0 143 -60l48 246q2 14 17 14h31q14 0 12 -14l-137 -702q-2 -14 -17 -14h-31q-14 0 -12 14l7 33q-77 -59 -166 -59zM250 42q90 0 158 63l60 308q-43 63 -134 63q-81 0 -145.5 -58t-84.5 -159
q-20 -102 21.5 -159.5t124.5 -57.5zM716 686q-10 -54 -29 -90.5t-56 -67.5q-10 -10 -15 -4l-7 11q-4 6 5 15q32 35 45 80q-41 1 -29 56q11 56 54 56t32 -56z" />
    <glyph glyph-name="Dcroat" unicode="&#x110;" horiz-adv-x="677" 
d="M647 350q-33 -170 -154 -260t-297 -90h-145q-14 0 -12 15l60 310h-56q-13 0 -11 15l4 23q5 14 17 14h56l60 309q2 14 18 14h145q176 0 262 -90t53 -260zM581 350q29 148 -42.5 221t-226.5 73h-87l-52 -267h161q6 0 9.5 -4t1.5 -10l-4 -23q-2 -15 -17 -15h-161l-52 -269
h87q155 0 254.5 73t128.5 221z" />
    <glyph glyph-name="dslash" unicode="&#x111;" horiz-adv-x="575" 
d="M231 -12q-104 0 -158.5 74t-30.5 197q23 123 106.5 197t187.5 74q94 0 143 -60l25 131h-191q-14 0 -12 15l5 23q2 14 17 14h191l13 63q2 14 17 14h31q14 0 12 -14l-13 -63h56q14 0 12 -14l-5 -23q-2 -15 -17 -15h-56l-114 -587q-2 -14 -17 -14h-31q-14 0 -12 14l7 33
q-77 -59 -166 -59zM250 42q90 0 158 63l60 308q-43 63 -134 63q-81 0 -145.5 -58t-84.5 -159q-20 -102 21.5 -159.5t124.5 -57.5z" />
    <glyph glyph-name="Emacron" unicode="&#x112;" horiz-adv-x="557" 
d="M34 15l130 671q2 14 18 14h395q13 0 11 -14l-5 -27q-2 -15 -17 -15h-346l-49 -254h320q14 0 12 -14l-5 -27q-1 -6 -6.5 -10.5t-11.5 -4.5h-320l-54 -278h354q14 0 12 -14l-5 -27q-2 -15 -17 -15h-404q-14 0 -12 15zM261 829l5 23q2 14 16 14h256q14 0 12 -14l-5 -23
q-2 -15 -17 -15h-256q-13 0 -11 15z" />
    <glyph glyph-name="emacron" unicode="&#x113;" horiz-adv-x="540" 
d="M402 75q9 4 14 1.5t4 -10.5l-3 -28q0 -11 -11 -16q-67 -34 -157 -34q-120 0 -175 74t-31 198q23 126 108.5 198t199.5 72q88 0 138.5 -39.5t38.5 -103.5q-13 -68 -90.5 -110.5t-230.5 -42.5h-105q-10 -92 29.5 -142t129.5 -50q82 0 141 33zM113 287h89q245 0 262 99
q8 41 -28.5 65.5t-97.5 24.5q-76 0 -138 -49t-87 -140zM216 655l5 23q2 14 17 14h256q13 0 11 -14l-5 -23q-2 -15 -17 -15h-256q-13 0 -11 15z" />
    <glyph glyph-name="Ebreve" unicode="&#x114;" horiz-adv-x="557" 
d="M34 15l130 671q2 14 18 14h395q13 0 11 -14l-5 -27q-2 -15 -17 -15h-346l-49 -254h320q14 0 12 -14l-5 -27q-1 -6 -6.5 -10.5t-11.5 -4.5h-320l-54 -278h354q14 0 12 -14l-5 -27q-2 -15 -17 -15h-404q-14 0 -12 15zM395 762q-64 0 -101 37t-29 105q0 6 5 10.5t12 4.5h28
q13 0 11 -13q-4 -46 18.5 -70.5t64.5 -24.5t73.5 24.5t45.5 70.5q5 13 17 13h28q6 0 9.5 -4.5t1.5 -10.5q-21 -69 -71 -105.5t-113 -36.5z" />
    <glyph glyph-name="ebreve" unicode="&#x115;" horiz-adv-x="540" 
d="M402 75q9 4 14 1.5t4 -10.5l-3 -28q0 -11 -11 -16q-67 -34 -157 -34q-120 0 -175 74t-31 198q23 126 108.5 198t199.5 72q88 0 138.5 -39.5t38.5 -103.5q-13 -68 -90.5 -110.5t-230.5 -42.5h-105q-10 -92 29.5 -142t129.5 -50q82 0 141 33zM113 287h89q245 0 262 99
q8 41 -28.5 65.5t-97.5 24.5q-76 0 -138 -49t-87 -140zM346 588q-64 0 -101 37t-29 105q0 6 5 10.5t12 4.5h28q13 0 11 -13q-4 -46 18.5 -70.5t64.5 -24.5q43 0 75 24.5t44 70.5q5 13 17 13h28q6 0 9.5 -4.5t1.5 -10.5q-21 -69 -71 -105.5t-113 -36.5z" />
    <glyph glyph-name="Edotaccent" unicode="&#x116;" horiz-adv-x="557" 
d="M34 15l130 671q2 14 18 14h395q13 0 11 -14l-5 -27q-2 -15 -17 -15h-346l-49 -254h320q14 0 12 -14l-5 -27q-1 -6 -6.5 -10.5t-11.5 -4.5h-320l-54 -278h354q14 0 12 -14l-5 -27q-2 -15 -17 -15h-404q-14 0 -12 15zM416 896q20 0 26.5 -12t1.5 -41q-11 -53 -48 -53
q-39 0 -28 53q10 53 48 53z" />
    <glyph glyph-name="edotaccent" unicode="&#x117;" horiz-adv-x="540" 
d="M402 75q9 4 14 1.5t4 -10.5l-3 -28q0 -11 -11 -16q-67 -34 -157 -34q-120 0 -175 74t-31 198q23 126 108.5 198t199.5 72q88 0 138.5 -39.5t38.5 -103.5q-13 -68 -90.5 -110.5t-230.5 -42.5h-105q-10 -92 29.5 -142t129.5 -50q82 0 141 33zM113 287h89q245 0 262 99
q8 41 -28.5 65.5t-97.5 24.5q-76 0 -138 -49t-87 -140zM367 722q21 0 27.5 -12t0.5 -41q-10 -53 -48 -53t-28 53q11 53 48 53z" />
    <glyph glyph-name="Eogonek" unicode="&#x118;" horiz-adv-x="557" 
d="M34 15l130 671q2 14 18 14h395q13 0 11 -14l-5 -27q-2 -15 -17 -15h-346l-49 -254h320q14 0 12 -14l-5 -27q-1 -6 -6.5 -10.5t-11.5 -4.5h-320l-54 -278h354q14 0 12 -14l-5 -27q-2 -15 -17 -15h-27q-90 -69 -101 -125q-4 -22 7.5 -32.5t39.5 -10.5q9 0 27 2q7 1 11 -3.5
t3 -11.5l-4 -21q-2 -12 -15 -14q-36 -3 -43 -3q-51 0 -73.5 22.5t-14.5 62.5q6 32 33.5 68.5t68.5 65.5h-316q-14 0 -12 15z" />
    <glyph glyph-name="eogonek" unicode="&#x119;" horiz-adv-x="540" 
d="M402 75q9 4 14 1.5t4 -10.5l-3 -28q0 -11 -11 -16q-38 -19 -78 -26q-86 -74 -94 -122q-4 -21 8 -31.5t39 -10.5q21 0 27 2q7 1 11.5 -2.5t2.5 -11.5l-4 -22q-2 -12 -14 -14q-39 -3 -43 -3q-52 0 -74.5 22.5t-14.5 61.5q12 64 86 123h-9q-120 0 -175 74t-31 198
q23 126 108.5 198t199.5 72q88 0 138.5 -39.5t38.5 -103.5q-13 -68 -90.5 -110.5t-230.5 -42.5h-105q-10 -92 29.5 -142t129.5 -50q82 0 141 33zM113 287h89q245 0 262 99q8 41 -28.5 65.5t-97.5 24.5q-76 0 -138 -49t-87 -140z" />
    <glyph glyph-name="Ecaron" unicode="&#x11a;" horiz-adv-x="557" 
d="M34 15l130 671q2 14 18 14h395q13 0 11 -14l-5 -27q-2 -15 -17 -15h-346l-49 -254h320q14 0 12 -14l-5 -27q-1 -6 -6.5 -10.5t-11.5 -4.5h-320l-54 -278h354q14 0 12 -14l-5 -27q-2 -15 -17 -15h-404q-14 0 -12 15zM415 758h-46q-5 0 -10 5l-87 138q-4 8 1 15.5t14 7.5
h26q7 0 10 -4l78 -116l124 116q4 4 12 4h24q10 0 12.5 -7.5t-5.5 -15.5l-141 -138q-5 -5 -12 -5z" />
    <glyph glyph-name="ecaron" unicode="&#x11b;" horiz-adv-x="540" 
d="M259 42q81 0 141 33q8 4 13 1.5t4 -10.5l-2 -28q-1 -11 -12 -16q-67 -34 -156 -34q-125 0 -177.5 75.5t-29.5 197.5q24 122 101.5 195.5t181.5 73.5q105 0 153 -73.5t26 -192.5l-3 -16q-2 -14 -17 -14h-382q-14 -89 28 -140.5t131 -51.5zM110 287h331q14 87 -20.5 138
t-108.5 51q-73 0 -126 -50t-76 -139zM355 584h-46q-7 0 -10 5l-87 138q-5 8 0 15.5t15 7.5h26q6 0 9 -4l79 -116l123 116q4 4 12 4h25q9 0 11.5 -7.5t-4.5 -15.5l-141 -138q-5 -5 -12 -5z" />
    <glyph glyph-name="Gcircumflex" unicode="&#x11c;" horiz-adv-x="698" 
d="M385 46q73 0 139 18l50 255h-194q-14 0 -12 14l6 28q2 14 17 14h243q14 0 12 -14l-64 -327q-1 -7 -13 -14q-91 -32 -197 -32q-170 0 -253.5 102t-53.5 260q30 157 151.5 259.5t284.5 102.5q107 0 182 -33q9 -2 6 -15l-10 -34q-1 -7 -8 -10.5t-14 0.5q-67 34 -165 34
q-135 0 -236 -85.5t-125 -218.5q-26 -135 43 -219.5t211 -84.5zM489 924h46q7 0 10 -5l87 -138q5 -7 -0.5 -15t-15.5 -8h-24q-7 0 -10 5l-79 115l-123 -115q-5 -5 -12 -5h-26q-9 0 -11 8t5 15l141 138q5 5 12 5z" />
    <glyph glyph-name="gcircumflex" unicode="&#x11d;" horiz-adv-x="570" 
d="M338 530q91 0 142 -59l6 33q5 14 18 14h31q6 0 9.5 -4t1.5 -10l-91 -470q-24 -124 -89.5 -179t-186.5 -55q-92 0 -156 33q-11 6 -7 15l8 32q2 8 9 11t14 -1q60 -36 144 -36q87 0 135.5 39t66.5 129l6 31q-77 -60 -165 -60q-105 0 -159.5 73t-31.5 195t107.5 195.5
t187.5 73.5zM335 476q-81 0 -145.5 -57t-84.5 -158t22 -157.5t125 -56.5q90 0 158 63l59 303q-43 63 -134 63zM367 750h46q8 0 10 -5l87 -138q5 -7 -0.5 -15t-14.5 -8h-25q-7 0 -10 5l-79 115l-123 -115q-5 -5 -11 -5h-26q-10 0 -12 8t5 15l141 138q5 5 12 5z" />
    <glyph glyph-name="Gbreve" unicode="&#x11e;" horiz-adv-x="698" 
d="M385 46q73 0 139 18l50 255h-194q-14 0 -12 14l6 28q2 14 17 14h243q14 0 12 -14l-64 -327q-1 -7 -13 -14q-91 -32 -197 -32q-170 0 -253.5 102t-53.5 260q30 157 151.5 259.5t284.5 102.5q107 0 182 -33q9 -2 6 -15l-10 -34q-1 -7 -8 -10.5t-14 0.5q-67 34 -165 34
q-135 0 -236 -85.5t-125 -218.5q-26 -135 43 -219.5t211 -84.5zM483 762q-63 0 -99.5 36.5t-30.5 105.5q2 15 17 15h28q14 0 12 -13q-5 -46 17.5 -70.5t65.5 -24.5q42 0 73.5 24.5t45.5 70.5q2 13 16 13h28q7 0 10 -4.5t1 -10.5q-19 -68 -70 -105t-114 -37z" />
    <glyph glyph-name="gbreve" unicode="&#x11f;" horiz-adv-x="570" 
d="M338 530q91 0 142 -59l6 33q5 14 18 14h31q6 0 9.5 -4t1.5 -10l-91 -470q-24 -124 -89.5 -179t-186.5 -55q-92 0 -156 33q-11 6 -7 15l8 32q2 8 9 11t14 -1q60 -36 144 -36q87 0 135.5 39t66.5 129l6 31q-77 -60 -165 -60q-105 0 -159.5 73t-31.5 195t107.5 195.5
t187.5 73.5zM335 476q-81 0 -145.5 -57t-84.5 -158t22 -157.5t125 -56.5q90 0 158 63l59 303q-43 63 -134 63zM357 588q-63 0 -99.5 36.5t-30.5 105.5q2 15 17 15h28q14 0 12 -13q-4 -46 18 -70.5t65 -24.5q42 0 73.5 24.5t45.5 70.5q2 13 16 13h28q7 0 10 -4.5t1 -10.5
q-19 -68 -70 -105t-114 -37z" />
    <glyph glyph-name="Gdotaccent" unicode="&#x120;" horiz-adv-x="698" 
d="M385 46q73 0 139 18l50 255h-194q-14 0 -12 14l6 28q2 14 17 14h243q14 0 12 -14l-64 -327q-1 -7 -13 -14q-91 -32 -197 -32q-170 0 -253.5 102t-53.5 260q30 157 151.5 259.5t284.5 102.5q107 0 182 -33q9 -2 6 -15l-10 -34q-1 -7 -8 -10.5t-14 0.5q-67 34 -165 34
q-135 0 -236 -85.5t-125 -218.5q-26 -135 43 -219.5t211 -84.5zM512 896q38 0 27 -53q-10 -53 -48 -53t-28 53q6 29 17.5 41t31.5 12z" />
    <glyph glyph-name="gdotaccent" unicode="&#x121;" horiz-adv-x="570" 
d="M338 530q91 0 142 -59l6 33q5 14 18 14h31q6 0 9.5 -4t1.5 -10l-91 -470q-24 -124 -89.5 -179t-186.5 -55q-92 0 -156 33q-11 6 -7 15l8 32q2 8 9 11t14 -1q60 -36 144 -36q87 0 135.5 39t66.5 129l6 31q-77 -60 -165 -60q-105 0 -159.5 73t-31.5 195t107.5 195.5
t187.5 73.5zM335 476q-81 0 -145.5 -57t-84.5 -158t22 -157.5t125 -56.5q90 0 158 63l59 303q-43 63 -134 63zM382 722q38 0 28 -53q-11 -53 -49 -53t-27 53q5 29 16 41t32 12z" />
    <glyph glyph-name="Gcommaaccent" unicode="&#x122;" horiz-adv-x="698" 
d="M385 46q73 0 139 18l50 255h-194q-14 0 -12 14l6 28q2 14 17 14h243q14 0 12 -14l-64 -327q-1 -7 -13 -14q-91 -32 -197 -32q-170 0 -253.5 102t-53.5 260q30 157 151.5 259.5t284.5 102.5q107 0 182 -33q9 -2 6 -15l-10 -34q-1 -7 -8 -10.5t-14 0.5q-67 34 -165 34
q-135 0 -236 -85.5t-125 -218.5q-26 -135 43 -219.5t211 -84.5zM307 -101q10 52 52 52q18 0 27.5 -13t4.5 -39q-19 -90 -87 -142q-6 -8 -11 -2l-5 6q-4 5 2 10q37 38 48 78q-20 0 -27.5 15t-3.5 35z" />
    <glyph glyph-name="gcommaaccent" unicode="&#x123;" horiz-adv-x="570" 
d="M338 530q91 0 142 -59l6 33q5 14 18 14h31q6 0 9.5 -4t1.5 -10l-91 -470q-24 -124 -89.5 -179t-186.5 -55q-92 0 -156 33q-11 6 -7 15l8 32q2 8 9 11t14 -1q60 -36 144 -36q87 0 135.5 39t66.5 129l6 31q-77 -60 -165 -60q-105 0 -159.5 73t-31.5 195t107.5 195.5
t187.5 73.5zM335 476q-81 0 -145.5 -57t-84.5 -158t22 -157.5t125 -56.5q90 0 158 63l59 303q-43 63 -134 63zM403 636q-10 -52 -52 -52q-39 0 -32 52q19 90 87 142q6 8 11 2l5 -6q4 -5 -2 -10q-37 -38 -48 -78q20 0 27.5 -15t3.5 -35z" />
    <glyph glyph-name="Hcircumflex" unicode="&#x124;" horiz-adv-x="693" 
d="M34 15l130 671q2 14 18 14h35q13 0 11 -14l-55 -285h401l55 285q2 14 18 14h35q13 0 11 -14l-130 -671q-2 -15 -17 -15h-35q-14 0 -12 15l64 330h-401l-64 -330q-2 -15 -17 -15h-35q-14 0 -12 15zM451 924h47q7 0 10 -5l87 -138q4 -7 -1.5 -15t-14.5 -8h-25q-7 0 -10 5
l-78 115l-124 -115q-5 -5 -11 -5h-26q-10 0 -12 8t6 15l141 138q5 5 11 5z" />
    <glyph glyph-name="hcircumflex" unicode="&#x125;" horiz-adv-x="572" 
d="M326 476q-95 0 -165 -67l-77 -395q-2 -14 -17 -14h-32q-13 0 -11 14l136 702q2 14 17 14h32q13 0 11 -14l-48 -248q78 62 173 62q101 0 145 -59.5t22 -170.5l-55 -286q-2 -14 -17 -14h-32q-13 0 -11 14l55 284q34 178 -126 178zM303 924h47q7 0 10 -5l87 -138
q4 -7 -1.5 -15t-14.5 -8h-25q-7 0 -10 5l-78 115l-124 -115q-5 -5 -11 -5h-26q-10 0 -12 8t6 15l141 138q5 5 11 5z" />
    <glyph glyph-name="Hbar" unicode="&#x126;" horiz-adv-x="703" 
d="M39 15l103 528h-49q-14 0 -12 15l5 23q2 14 17 14h49l17 91q2 14 18 14h35q13 0 11 -14l-17 -91h401l17 91q2 14 18 14h35q13 0 11 -14l-17 -91h48q14 0 12 -14l-5 -23q-2 -15 -17 -15h-48l-103 -528q-2 -15 -17 -15h-35q-14 0 -12 15l64 330h-401l-64 -330
q-2 -15 -17 -15h-35q-14 0 -12 15zM178 401h401l28 142h-401z" />
    <glyph glyph-name="hbar" unicode="&#x127;" horiz-adv-x="577" 
d="M331 476q-95 0 -165 -67l-77 -395q-2 -14 -17 -14h-32q-13 0 -11 14l114 587h-56q-13 0 -11 15l4 23q2 14 17 14h56l12 63q2 14 17 14h32q13 0 11 -14l-12 -63h191q14 0 12 -14l-4 -23q-1 -6 -6.5 -10.5t-11.5 -4.5h-191l-26 -133q78 62 173 62q101 0 145 -59.5
t22 -170.5l-55 -286q-2 -14 -17 -14h-32q-13 0 -11 14l55 284q34 178 -126 178z" />
    <glyph glyph-name="Itilde" unicode="&#x128;" horiz-adv-x="238" 
d="M186 700h36q13 0 11 -14l-130 -671q-2 -15 -17 -15h-36q-13 0 -11 15l130 671q2 14 17 14zM361 907h27q6 0 9.5 -4t1.5 -10q-28 -123 -110 -123q-18 0 -35 10.5t-22 16.5l-21 26q-1 2 -5 7l-5.5 7t-5 6t-5.5 5.5t-5 3.5t-6 3t-6 1q-37 0 -55 -70q-2 -14 -17 -14h-27
q-6 0 -9.5 4.5t-1.5 10.5q29 122 112 122q42 0 77 -53q1 -1 4 -5t4 -5.5t4 -5t4 -5t4 -4t4.5 -3.5t4 -2.5t5 -2t5.5 -0.5q37 0 54 71q2 13 16 13z" />
    <glyph glyph-name="itilde" unicode="&#x129;" horiz-adv-x="230" 
d="M192 504l-95 -490q-2 -14 -17 -14h-32q-13 0 -11 14l95 490q2 14 17 14h32q13 0 11 -14zM323 733h27q6 0 9.5 -4t1.5 -10q-28 -123 -110 -123q-42 0 -77 53q-25 33 -39 33q-37 0 -55 -70q-2 -14 -17 -14h-27q-13 0 -11 15q29 122 112 122q42 0 77 -53q1 -1 4 -5t4 -5.5
t4 -5t4 -5t4 -4t4.5 -3.5t4 -2.5t5 -2t5.5 -0.5q37 0 54 71q2 13 16 13z" />
    <glyph glyph-name="Imacron" unicode="&#x12a;" horiz-adv-x="238" 
d="M186 700h36q13 0 11 -14l-130 -671q-2 -15 -17 -15h-36q-13 0 -11 15l130 671q2 14 17 14zM87 829l5 23q2 14 16 14h256q14 0 12 -14l-5 -23q-2 -15 -17 -15h-256q-13 0 -11 15z" />
    <glyph glyph-name="imacron" unicode="&#x12b;" horiz-adv-x="230" 
d="M192 504l-95 -490q-2 -14 -17 -14h-32q-13 0 -11 14l95 490q2 14 17 14h32q13 0 11 -14zM49 655l5 23q2 14 17 14h256q13 0 11 -14l-5 -23q-2 -15 -17 -15h-256q-13 0 -11 15z" />
    <glyph glyph-name="Ibreve" unicode="&#x12c;" horiz-adv-x="238" 
d="M186 700h36q13 0 11 -14l-130 -671q-2 -15 -17 -15h-36q-13 0 -11 15l130 671q2 14 17 14zM217 762q-64 0 -101 37t-29 105q0 6 5 10.5t12 4.5h28q13 0 11 -13q-4 -46 18.5 -70.5t64.5 -24.5t73.5 24.5t45.5 70.5q5 13 17 13h28q6 0 9.5 -4.5t1.5 -10.5
q-21 -69 -71 -105.5t-113 -36.5z" />
    <glyph glyph-name="ibreve" unicode="&#x12d;" horiz-adv-x="230" 
d="M191 504l-95 -490q-2 -14 -17 -14h-32q-13 0 -11 14l95 490q2 14 17 14h32q13 0 11 -14zM178 588q-64 0 -101 37t-29 105q0 6 5 10.5t12 4.5h28q13 0 11 -13q-4 -46 18.5 -70.5t64.5 -24.5q43 0 75 24.5t44 70.5q5 13 17 13h28q6 0 9.5 -4.5t1.5 -10.5
q-21 -69 -71 -105.5t-113 -36.5z" />
    <glyph glyph-name="Iogonek" unicode="&#x12e;" horiz-adv-x="238" 
d="M-62 -134q6 32 33.5 69t71.5 68q-5 3 -3 12l130 671q2 14 17 14h36q13 0 11 -14l-131 -675q-2 -11 -16 -22q-76 -62 -88 -114q-4 -22 8 -32.5t40 -10.5q9 0 27 2q7 1 11 -3.5t3 -11.5l-4 -21q-2 -12 -15 -14q-36 -3 -43 -3q-52 0 -74 22.5t-14 62.5z" />
    <glyph glyph-name="iogonek" unicode="&#x12f;" horiz-adv-x="230" 
d="M-68 -135q11 68 103 136l98 503q2 14 17 14h32q13 0 11 -14l-96 -495q-1 -7 -13 -17q-79 -64 -91 -118q-4 -21 8.5 -31.5t40.5 -10.5q9 0 27 2q8 1 11.5 -2.5t1.5 -11.5l-4 -22q-3 -13 -16 -14q-13 -3 -42 -3q-51 0 -73.5 22.5t-14.5 61.5zM207 730q38 0 28 -53
q-11 -53 -49 -53t-27 53q5 29 16 41t32 12z" />
    <glyph glyph-name="Idot" unicode="&#x130;" horiz-adv-x="238" 
d="M186 700h36q13 0 11 -14l-130 -671q-2 -15 -17 -15h-36q-13 0 -11 15l130 671q2 14 17 14zM242 896q20 0 26.5 -12t1.5 -41q-11 -53 -48 -53q-39 0 -28 53q10 53 48 53z" />
    <glyph glyph-name="dotlessi" unicode="&#x131;" horiz-adv-x="230" 
d="M192 504l-95 -490q-2 -14 -17 -14h-32q-13 0 -11 14l95 490q2 14 17 14h32q13 0 11 -14z" />
    <glyph glyph-name="IJ" unicode="&#x132;" horiz-adv-x="622" 
d="M181 700h36q13 0 11 -14l-130 -671q-2 -15 -17 -15h-36q-13 0 -11 15l130 671q2 14 17 14zM469 225l89 461q2 14 18 14h35q13 0 11 -14l-89 -461q-48 -237 -248 -237q-72 0 -124 28q-8 5 -6 16l9 32q3 8 10 11t13 -1q45 -28 108 -28q136 0 174 179z" />
    <glyph glyph-name="ij" unicode="&#x133;" horiz-adv-x="471" 
d="M187 504l-95 -490q-2 -14 -17 -14h-32q-13 0 -11 14l95 490q2 14 17 14h32q13 0 11 -14zM201 730q38 0 28 -53q-11 -53 -49 -53t-27 53q5 29 16 41t32 12zM395 518h32q13 0 11 -14l-104 -535q-18 -89 -61.5 -129t-117.5 -40q-27 0 -43 5q-12 3 -8 15l8 28q5 14 19 9
q11 -4 31 -4q46 0 73 27t38 86l105 538q2 14 17 14zM452 730q38 0 28 -53q-11 -53 -49 -53t-27 53q5 29 16 41t32 12z" />
    <glyph glyph-name="Jcircumflex" unicode="&#x134;" horiz-adv-x="435" 
d="M281 225l90 461q2 14 17 14h35q14 0 12 -14l-90 -461q-48 -237 -248 -237q-72 0 -124 28q-8 5 -6 16l9 32q3 8 10 11t13 -1q46 -28 108 -28q140 0 174 179zM425 924h46q7 0 10 -5l87 -138q5 -7 -0.5 -15t-15.5 -8h-24q-7 0 -10 5l-79 115l-123 -115q-5 -5 -12 -5h-26
q-9 0 -11 8t5 15l141 138q5 5 12 5z" />
    <glyph glyph-name="jcircumflex" unicode="&#x135;" horiz-adv-x="225" 
d="M186 750h47q7 0 10 -5l87 -138q4 -8 -1 -15.5t-15 -7.5h-24q-8 0 -11 5l-78 115l-124 -115q-5 -5 -11 -5h-26q-9 0 -11 8t5 15l141 138q5 5 11 5zM149 518h32q13 0 11 -14l-104 -535q-18 -89 -61.5 -129t-117.5 -40q-27 0 -43 5q-12 3 -8 15l8 28q5 14 19 9q11 -4 31 -4
q46 0 73 27t38 86l105 538q2 14 17 14z" />
    <glyph glyph-name="Kcommaaccent" unicode="&#x136;" horiz-adv-x="581" 
d="M243 373l279 -348q7 -10 2.5 -17.5t-16.5 -7.5h-38q-14 0 -21 10l-284 350l-67 -345q-2 -15 -17 -15h-35q-14 0 -12 15l130 671q2 14 18 14h35q13 0 11 -14l-58 -302l371 306q11 10 25 10h34q12 0 14 -7.5t-10 -17.5zM192 -101q12 52 53 52t31 -52q-17 -88 -86 -142
q-7 -7 -12 -2l-4 6q-4 5 1 10q38 40 49 78q-38 0 -32 50z" />
    <glyph glyph-name="kcommaaccent" unicode="&#x137;" horiz-adv-x="497" 
d="M140 302l284 206q11 10 25 10h33q12 0 14 -8t-10 -17l-275 -202l208 -266q8 -10 3.5 -17.5t-16.5 -7.5h-33q-16 0 -23 10l-215 268l-51 -264q-2 -14 -17 -14h-32q-13 0 -11 14l136 702q2 14 17 14h32q13 0 11 -14zM151 -101q12 52 53 52t31 -52q-17 -88 -86 -142
q-7 -7 -12 -2l-4 6q-5 5 1 10q38 40 49 78q-38 0 -32 50z" />
    <glyph glyph-name="kgreenlandic" unicode="&#x138;" horiz-adv-x="497" 
d="M202 270l215 -245q8 -9 3.5 -17t-16.5 -8h-34q-11 0 -21 10l-218 249l-47 -245q-2 -14 -17 -14h-32q-13 0 -11 14l95 490q2 14 17 14h31q14 0 12 -14l-44 -224l290 228q11 10 25 10h34q12 0 14 -8t-10 -17z" />
    <glyph glyph-name="Lacute" unicode="&#x139;" horiz-adv-x="556" 
d="M34 15l130 671q2 14 18 14h35q13 0 11 -14l-122 -630h373q14 0 12 -14l-5 -27q-2 -15 -17 -15h-423q-14 0 -12 15zM180 780l130 139q5 5 12 5h43q10 0 11.5 -7.5t-6.5 -15.5l-145 -134q-5 -5 -12 -5h-28q-9 0 -10.5 5.5t5.5 12.5z" />
    <glyph glyph-name="lacute" unicode="&#x13a;" horiz-adv-x="214" 
d="M29 14l136 702q2 14 17 14h31q14 0 12 -14l-136 -702q-2 -14 -17 -14h-31q-14 0 -12 14zM183 780l130 139q5 5 12 5h43q10 0 11.5 -7.5t-6.5 -15.5l-145 -134q-5 -5 -12 -5h-28q-9 0 -10.5 5.5t5.5 12.5z" />
    <glyph glyph-name="Lcommaaccent" unicode="&#x13b;" horiz-adv-x="556" 
d="M34 15l130 671q2 14 18 14h35q13 0 11 -14l-122 -630h373q14 0 12 -14l-5 -27q-2 -15 -17 -15h-423q-14 0 -12 15zM199 -101q12 52 53 52t31 -52q-17 -88 -86 -142q-7 -7 -12 -2l-4 6q-5 5 1 10q38 40 49 78q-38 0 -32 50z" />
    <glyph glyph-name="lcommaaccent" unicode="&#x13c;" horiz-adv-x="214" 
d="M29 14l137 702q2 14 17 14h31q14 0 12 -14l-137 -702q-2 -14 -17 -14h-31q-14 0 -12 14zM-7 -101q12 52 53 52q18 0 27.5 -13t4.5 -39q-19 -90 -87 -142q-7 -7 -12 -2l-4 6q-5 5 1 10q38 40 49 78q-38 0 -32 50z" />
    <glyph glyph-name="Lcaron" unicode="&#x13d;" horiz-adv-x="556" 
d="M34 15l130 671q2 14 18 14h35q13 0 11 -14l-122 -630h373q14 0 12 -14l-5 -27q-2 -15 -17 -15h-423q-14 0 -12 15zM526 686q-10 -54 -28.5 -90.5t-55.5 -67.5q-11 -10 -16 -4l-6 11q-4 5 4 15q34 35 45 80q-40 1 -29 56q6 30 19 43t36 13q42 0 31 -56z" />
    <glyph glyph-name="lcaron" unicode="&#x13e;" horiz-adv-x="294" 
d="M29 14l136 702q2 14 17 14h31q14 0 12 -14l-136 -702q-2 -14 -17 -14h-31q-14 0 -12 14zM354 686q-10 -54 -28.5 -90.5t-55.5 -67.5q-11 -10 -16 -4l-6 11q-4 5 4 15q34 35 45 80q-40 1 -29 56q6 30 19 43t36 13q42 0 31 -56z" />
    <glyph glyph-name="Ldot" unicode="&#x13f;" horiz-adv-x="556" 
d="M34 15l130 671q2 14 18 14h35q13 0 11 -14l-122 -630h373q14 0 12 -14l-5 -27q-2 -15 -17 -15h-423q-14 0 -12 15zM420 432q38 0 28 -53q-11 -53 -49 -53t-27 53q5 29 16 41t32 12z" />
    <glyph glyph-name="ldot" unicode="&#x140;" horiz-adv-x="352" 
d="M29 14l136 702q2 14 17 14h31q14 0 12 -14l-136 -702q-2 -14 -17 -14h-31q-14 0 -12 14zM334 432q38 0 28 -53q-11 -53 -49 -53t-27 53q5 29 16 41t32 12z" />
    <glyph glyph-name="Lslash" unicode="&#x141;" horiz-adv-x="571" 
d="M48 15l50 258l-71 -42q-13 -8 -18 5l-8 20q-6 12 7 20l102 60l68 350q2 14 17 14h36q13 0 11 -14l-59 -307l301 180q13 9 19 -4l10 -18q8 -14 -7 -21l-336 -200l-50 -260h373q14 0 12 -14l-5 -27q-2 -15 -17 -15h-424q-13 0 -11 15z" />
    <glyph glyph-name="lslash" unicode="&#x142;" horiz-adv-x="369" 
d="M90 14l60 308l-117 -72q-14 -9 -19 3l-11 21q-5 12 8 19l152 95l64 328q2 14 16 14h32q14 0 12 -14l-56 -286l149 93q11 8 19 -2l11 -21q7 -12 -8 -20l-184 -115l-68 -351q-2 -14 -17 -14h-31q-14 0 -12 14z" />
    <glyph glyph-name="Nacute" unicode="&#x143;" horiz-adv-x="700" 
d="M34 15l130 671q2 14 18 14h56q9 0 11 -7l270 -609l117 602q2 14 18 14h35q13 0 11 -14l-130 -671q-2 -15 -17 -15h-56q-8 0 -11 7l-270 609l-117 -601q-2 -15 -17 -15h-36q-14 0 -12 15zM408 780l130 139q5 5 12 5h43q10 0 11.5 -7.5t-6.5 -15.5l-145 -134q-5 -5 -12 -5
h-28q-9 0 -10.5 5.5t5.5 12.5z" />
    <glyph glyph-name="nacute" unicode="&#x144;" horiz-adv-x="572" 
d="M326 476q-44 0 -88.5 -17.5t-76.5 -49.5l-77 -395q-2 -14 -17 -14h-32q-13 0 -11 14l95 490q2 14 17 14h32q13 0 11 -14l-7 -36q76 62 173 62q101 0 145 -59.5t22 -170.5l-55 -286q-2 -14 -17 -14h-32q-13 0 -11 14l55 284q34 178 -126 178zM306 606l130 139q5 5 12 5h43
q10 0 11.5 -7.5t-6.5 -15.5l-145 -134q-5 -5 -12 -5h-28q-9 0 -10.5 5.5t5.5 12.5z" />
    <glyph glyph-name="Ncommaaccent" unicode="&#x145;" horiz-adv-x="700" 
d="M34 15l130 671q2 14 18 14h56q9 0 11 -7l270 -609l117 602q2 14 18 14h35q13 0 11 -14l-130 -671q-2 -15 -17 -15h-56q-8 0 -11 7l-270 609l-117 -601q-2 -15 -17 -15h-36q-14 0 -12 15zM242 -101q12 52 53 52t31 -52q-17 -88 -86 -142q-7 -7 -12 -2l-4 6q-4 5 1 10
q38 40 49 78q-38 0 -32 50z" />
    <glyph glyph-name="ncommaaccent" unicode="&#x146;" horiz-adv-x="572" 
d="M326 476q-44 0 -88.5 -17.5t-76.5 -49.5l-77 -395q-2 -14 -17 -14h-32q-13 0 -11 14l95 490q2 14 17 14h32q13 0 11 -14l-7 -36q76 62 173 62q101 0 145 -59.5t22 -170.5l-55 -286q-2 -14 -17 -14h-32q-13 0 -11 14l55 284q34 178 -126 178zM179 -101q12 52 53 52t31 -52
q-17 -88 -86 -142q-7 -7 -12 -2l-4 6q-5 5 1 10q38 40 49 78q-38 0 -32 50z" />
    <glyph glyph-name="Ncaron" unicode="&#x147;" horiz-adv-x="700" 
d="M34 15l130 671q2 14 18 14h56q9 0 11 -7l270 -609l117 602q2 14 18 14h35q13 0 11 -14l-130 -671q-2 -15 -17 -15h-56q-8 0 -11 7l-270 609l-117 -601q-2 -15 -17 -15h-36q-14 0 -12 15zM469 758h-46q-5 0 -10 5l-87 138q-4 8 1 15.5t14 7.5h26q7 0 10 -4l78 -116
l124 116q4 4 12 4h24q10 0 12.5 -7.5t-5.5 -15.5l-141 -138q-5 -5 -12 -5z" />
    <glyph glyph-name="ncaron" unicode="&#x148;" horiz-adv-x="572" 
d="M326 476q-44 0 -88.5 -17.5t-76.5 -49.5l-77 -395q-2 -14 -17 -14h-32q-13 0 -11 14l95 490q2 14 17 14h32q13 0 11 -14l-7 -36q76 62 173 62q101 0 145 -59.5t22 -170.5l-55 -286q-2 -14 -17 -14h-32q-13 0 -11 14l55 284q34 178 -126 178zM373 584h-47q-5 0 -10 5
l-87 138q-4 8 1 15.5t14 7.5h26q7 0 10 -4l78 -116l124 116q4 4 12 4h24q10 0 12.5 -7.5t-5.5 -15.5l-141 -138q-5 -5 -11 -5z" />
    <glyph glyph-name="napostrophe" unicode="&#x149;" horiz-adv-x="619" 
d="M373 476q-44 0 -88.5 -17.5t-76.5 -49.5l-77 -395q-2 -14 -17 -14h-32q-13 0 -11 14l95 490q2 14 17 14h32q13 0 11 -14l-7 -36q76 62 173 62q101 0 145 -59.5t22 -170.5l-55 -286q-2 -14 -17 -14h-32q-13 0 -11 14l55 284q34 178 -126 178zM190 686q-10 -54 -28.5 -90.5
t-55.5 -67.5q-11 -10 -16 -4l-6 11q-4 5 4 15q34 35 45 80q-40 1 -29 56q6 30 19 43t36 13q42 0 31 -56z" />
    <glyph glyph-name="Eng" unicode="&#x14a;" horiz-adv-x="700" 
d="M34 15l130 671q2 14 18 14h56q9 0 11 -6l270 -610l117 602q2 14 18 14h35q13 0 11 -14l-135 -698q-21 -105 -64.5 -146.5t-121.5 -41.5q-26 0 -50 6q-4 1 -6.5 5.5t-0.5 9.5l9 31q6 16 20 11q19 -5 46 -5q41 0 64.5 25.5t38.5 94.5l-284 638l-117 -601q-2 -15 -17 -15
h-36q-14 0 -12 15z" />
    <glyph glyph-name="eng" unicode="&#x14b;" horiz-adv-x="572" 
d="M326 476q-95 0 -165 -67l-77 -395q-2 -14 -17 -14h-32q-13 0 -11 14l95 490q2 14 17 14h32q13 0 11 -14l-7 -36q78 62 173 62q101 0 145 -59.5t22 -170.5l-61 -313q-20 -101 -61.5 -144t-114.5 -43q-31 0 -57 6q-11 2 -9 15l8 27q5 16 20 11q19 -5 47 -5q43 0 68.5 29.5
t37.5 95.5l62 319q34 178 -126 178z" />
    <glyph glyph-name="Omacron" unicode="&#x14c;" horiz-adv-x="706" 
d="M677 350q-31 -158 -133 -260t-243 -102q-142 0 -204.5 102t-31.5 260t133 260t243 102q142 0 204.5 -102t31.5 -260zM611 350q27 137 -21.5 220.5t-159.5 83.5q-110 0 -191.5 -83.5t-107.5 -220.5q-27 -137 21.5 -220.5t159.5 -83.5q110 0 191.5 83.5t107.5 220.5z
M322 829l5 23q2 14 16 14h256q14 0 12 -14l-5 -23q-2 -15 -17 -15h-256q-13 0 -11 15z" />
    <glyph glyph-name="omacron" unicode="&#x14d;" horiz-adv-x="576" 
d="M42 259q23 119 106 195t193 76q109 0 162.5 -76t30.5 -195q-24 -118 -107.5 -194.5t-191.5 -76.5t-162.5 77t-30.5 194zM104 259q-20 -97 20.5 -157t121.5 -60t143.5 59.5t82.5 157.5q18 99 -21 158t-121 59q-80 0 -144 -59.5t-82 -157.5zM223 655l4 23q2 14 17 14h256
q13 0 11 -14l-4 -23q-2 -15 -17 -15h-256q-13 0 -11 15z" />
    <glyph glyph-name="Obreve" unicode="&#x14e;" horiz-adv-x="706" 
d="M677 350q-31 -158 -133 -260t-243 -102q-142 0 -204.5 102t-31.5 260t133 260t243 102q142 0 204.5 -102t31.5 -260zM611 350q27 137 -21.5 220.5t-159.5 83.5q-110 0 -191.5 -83.5t-107.5 -220.5q-27 -137 21.5 -220.5t159.5 -83.5q110 0 191.5 83.5t107.5 220.5z
M452 762q-64 0 -101 37t-29 105q0 6 5 10.5t12 4.5h28q13 0 11 -13q-4 -46 18.5 -70.5t64.5 -24.5t73.5 24.5t45.5 70.5q5 13 17 13h28q6 0 9.5 -4.5t1.5 -10.5q-21 -69 -71 -105.5t-113 -36.5z" />
    <glyph glyph-name="obreve" unicode="&#x14f;" horiz-adv-x="576" 
d="M42 259q23 119 106 195t193 76q109 0 162.5 -76t30.5 -195q-24 -118 -107.5 -194.5t-191.5 -76.5t-162.5 77t-30.5 194zM104 259q-20 -97 20.5 -157t121.5 -60t143.5 59.5t82.5 157.5q18 99 -21 158t-121 59q-80 0 -144 -59.5t-82 -157.5zM352 588q-63 0 -99.5 36.5
t-30.5 105.5q2 15 17 15h28q14 0 12 -13q-4 -46 18 -70.5t65 -24.5q42 0 73.5 24.5t45.5 70.5q2 13 16 13h28q7 0 10 -4.5t1 -10.5q-19 -68 -70 -105t-114 -37z" />
    <glyph glyph-name="Ohungarumlaut" unicode="&#x150;" horiz-adv-x="706" 
d="M677 350q-31 -158 -133 -260t-243 -102q-142 0 -204.5 102t-31.5 260t133 260t243 102q142 0 204.5 -102t31.5 -260zM611 350q27 137 -21.5 220.5t-159.5 83.5q-110 0 -191.5 -83.5t-107.5 -220.5q-27 -137 21.5 -220.5t159.5 -83.5q110 0 191.5 83.5t107.5 220.5z
M348 782l128 137q5 5 12 5h42q6 0 9 -4t2 -9.5t-6 -10.5l-144 -133q-5 -5 -13 -5h-22q-9 0 -12 6.5t4 13.5zM490 782l128 137q5 5 12 5h42q10 0 11.5 -8t-6.5 -16l-144 -133q-5 -5 -13 -5h-22q-9 0 -12 6.5t4 13.5z" />
    <glyph glyph-name="ohungarumlaut" unicode="&#x151;" horiz-adv-x="576" 
d="M42 259q23 119 106 195t193 76q109 0 162.5 -76t30.5 -195q-24 -118 -107.5 -194.5t-191.5 -76.5t-162.5 77t-30.5 194zM104 259q-20 -97 20.5 -157t121.5 -60t143.5 59.5t82.5 157.5q18 99 -21 158t-121 59q-80 0 -144 -59.5t-82 -157.5zM262 608l127 137q5 5 12 5h42
q10 0 12 -8t-6 -16l-145 -133q-5 -5 -12 -5h-22q-10 0 -12.5 6.5t4.5 13.5zM404 608l127 137q5 5 12 5h42q10 0 12 -8t-6 -16l-145 -133q-5 -5 -12 -5h-22q-10 0 -12.5 6.5t4.5 13.5z" />
    <glyph glyph-name="OE" unicode="&#x152;" horiz-adv-x="831" 
d="M65 352q30 161 145.5 257t283.5 96h360q13 0 11 -14l-6 -27q-2 -15 -16 -15h-296l-51 -259h271q6 0 9.5 -4t1.5 -10l-5 -27q-2 -15 -17 -15h-271l-54 -278h304q14 0 12 -14l-6 -27q-2 -15 -17 -15h-366q-168 0 -246.5 95.5t-46.5 256.5zM131 352q-27 -137 36.5 -212.5
t199.5 -83.5l115 592q-139 -6 -232 -81.5t-119 -214.5z" />
    <glyph glyph-name="oe" unicode="&#x153;" horiz-adv-x="905" 
d="M106 259q-20 -100 12.5 -159t107.5 -59q76 0 130 58.5t74 159.5t-11.5 159.5t-107.5 58.5q-75 0 -130 -58.5t-75 -159.5zM502 288h88q121 0 176 25.5t64 72.5q9 44 -19.5 67t-88.5 23q-74 0 -135.5 -49.5t-84.5 -138.5zM628 -12q-79 0 -127.5 38t-60.5 107
q-37 -67 -96 -106t-128 -39q-105 0 -150.5 74.5t-23.5 196.5q24 122 99.5 196.5t179.5 74.5q68 0 113 -38.5t55 -104.5q48 71 114 107t134 36q82 0 126 -39t30 -104q-30 -152 -297 -152h-104q-12 -89 25.5 -141t123.5 -52q66 0 121 28q19 9 19 -8l-2 -27q-2 -11 -10 -15
q-66 -32 -141 -32z" />
    <glyph glyph-name="Racute" unicode="&#x154;" horiz-adv-x="600" 
d="M594 500q-29 -146 -197 -186l130 -292q3 -8 -1.5 -15t-13.5 -7h-39q-9 0 -11 7l-129 296q-32 -2 -51 -2h-128l-56 -286q-2 -15 -17 -15h-35q-14 0 -12 15l130 671q2 14 18 14h196q116 0 175 -53t41 -147zM528 500q13 70 -29 107t-137 37h-142l-56 -287h142
q93 0 151.5 37.5t70.5 105.5zM337 780l130 139q5 5 12 5h43q10 0 11.5 -7.5t-6.5 -15.5l-145 -134q-5 -5 -12 -5h-28q-9 0 -10.5 5.5t5.5 12.5z" />
    <glyph glyph-name="racute" unicode="&#x155;" horiz-adv-x="360" 
d="M328 476q-102 0 -175 -106l-69 -356q-2 -14 -17 -14h-31q-14 0 -12 14l95 490q2 14 17 14h32q13 0 11 -14l-12 -61q72 87 177 87q32 0 48 -5q11 -3 8 -15l-10 -31q-5 -14 -19 -9q-17 6 -43 6zM199 606l130 139q5 5 12 5h43q10 0 11.5 -7.5t-6.5 -15.5l-145 -134
q-5 -5 -12 -5h-28q-9 0 -10.5 5.5t5.5 12.5z" />
    <glyph glyph-name="Rcommaaccent" unicode="&#x156;" horiz-adv-x="600" 
d="M594 500q-29 -146 -197 -186l130 -292q3 -8 -1.5 -15t-13.5 -7h-39q-9 0 -11 7l-129 296q-32 -2 -51 -2h-128l-56 -286q-2 -15 -17 -15h-35q-14 0 -12 15l130 671q2 14 18 14h196q116 0 175 -53t41 -147zM528 500q13 70 -29 107t-137 37h-142l-56 -287h142
q93 0 151.5 37.5t70.5 105.5zM199 -101q12 52 53 52t31 -52q-17 -88 -86 -142q-7 -7 -12 -2l-4 6q-5 5 1 10q38 40 49 78q-38 0 -32 50z" />
    <glyph glyph-name="rcommaaccent" unicode="&#x157;" horiz-adv-x="360" 
d="M328 476q-102 0 -175 -106l-69 -356q-2 -14 -16 -14h-32q-14 0 -12 14l95 490q5 14 18 14h31q6 0 9.5 -4t1.5 -10l-11 -61q72 87 176 87q32 0 48 -5q11 -3 8 -15l-9 -31q-7 -14 -19 -9q-18 6 -44 6zM-10 -101q12 52 53 52q18 0 27.5 -13t4.5 -39q-19 -90 -87 -142
q-7 -7 -12 -2l-4 6q-4 5 1 10q38 40 49 78q-38 0 -32 50z" />
    <glyph glyph-name="Rcaron" unicode="&#x158;" horiz-adv-x="600" 
d="M594 500q-29 -146 -197 -186l130 -292q3 -8 -1.5 -15t-13.5 -7h-39q-9 0 -11 7l-129 296q-32 -2 -51 -2h-128l-56 -286q-2 -15 -17 -15h-35q-14 0 -12 15l130 671q2 14 18 14h196q116 0 175 -53t41 -147zM528 500q13 70 -29 107t-137 37h-142l-56 -287h142
q93 0 151.5 37.5t70.5 105.5zM388 758h-46q-5 0 -10 5l-87 138q-4 8 1 15.5t14 7.5h26q7 0 10 -4l78 -116l124 116q4 4 12 4h24q10 0 12.5 -7.5t-5.5 -15.5l-141 -138q-5 -5 -12 -5z" />
    <glyph glyph-name="rcaron" unicode="&#x159;" horiz-adv-x="373" 
d="M331 476q-102 0 -175 -106l-69 -356q-2 -14 -17 -14h-31q-14 0 -12 14l95 490q2 14 17 14h32q13 0 11 -14l-12 -61q72 87 177 87q32 0 48 -5q11 -3 8 -15l-10 -31q-5 -14 -19 -9q-16 6 -43 6zM295 584h-47q-5 0 -10 5l-87 138q-4 8 1 15.5t14 7.5h26q7 0 10 -4l78 -116
l124 116q4 4 12 4h24q10 0 12.5 -7.5t-5.5 -15.5l-141 -138q-5 -5 -11 -5z" />
    <glyph glyph-name="Sacute" unicode="&#x15a;" horiz-adv-x="536" 
d="M525 674l-9 -35q-5 -18 -21 -10q-51 25 -132 25q-80 0 -130 -30.5t-61 -81.5q-10 -50 19.5 -85.5t105.5 -62.5q109 -39 149.5 -87.5t25.5 -128.5q-17 -88 -91.5 -139t-189.5 -51q-97 0 -169 41q-8 5 -5 16l10 35q5 19 21 10q69 -44 158 -44q85 0 136.5 34.5t63.5 95.5
q12 58 -22 94t-121 67q-96 33 -134 79.5t-24 123.5q16 79 89 125.5t181 46.5q83 0 143 -22q10 -4 7 -16zM332 780l130 139q5 5 13 5h43q10 0 11.5 -7.5t-7.5 -15.5l-145 -134q-5 -5 -11 -5h-29q-8 0 -9.5 5.5t4.5 12.5z" />
    <glyph glyph-name="sacute" unicode="&#x15b;" horiz-adv-x="457" 
d="M391 450q-49 26 -116 26q-58 0 -94 -21t-43 -58q-7 -36 18.5 -61.5t89.5 -43.5q85 -25 118 -63t21 -93q-14 -71 -73.5 -109.5t-152.5 -38.5q-88 0 -149 39q-7 4 -5 17l8 28q2 9 10 12t14 -2q55 -40 131 -40q66 0 106.5 24.5t48.5 67.5q8 38 -18.5 63.5t-96.5 45.5
q-155 41 -132 152q12 63 69.5 99t140.5 36q81 0 131 -25q9 -7 6 -17l-9 -29q-2 -8 -9 -10.5t-14 1.5zM254 606l130 139q5 5 12 5h43q10 0 11.5 -7.5t-6.5 -15.5l-145 -134q-5 -5 -12 -5h-28q-9 0 -10.5 5.5t5.5 12.5z" />
    <glyph glyph-name="Scircumflex" unicode="&#x15c;" horiz-adv-x="536" 
d="M525 674l-9 -35q-5 -18 -21 -10q-51 25 -132 25q-80 0 -130 -30.5t-61 -81.5q-10 -50 19.5 -85.5t105.5 -62.5q109 -39 149.5 -87.5t25.5 -128.5q-17 -88 -91.5 -139t-189.5 -51q-97 0 -169 41q-8 5 -5 16l10 35q5 19 21 10q69 -44 158 -44q85 0 136.5 34.5t63.5 95.5
q12 58 -22 94t-121 67q-96 33 -134 79.5t-24 123.5q16 79 89 125.5t181 46.5q83 0 143 -22q10 -4 7 -16zM373 924h46q7 0 10 -5l87 -138q5 -7 -0.5 -15t-15.5 -8h-24q-7 0 -10 5l-79 115l-123 -115q-5 -5 -12 -5h-26q-9 0 -11 8t5 15l141 138q5 5 12 5z" />
    <glyph glyph-name="scircumflex" unicode="&#x15d;" horiz-adv-x="457" 
d="M391 450q-49 26 -116 26q-58 0 -94 -21t-43 -58q-7 -36 18.5 -61.5t89.5 -43.5q85 -25 118 -63t21 -93q-14 -71 -73.5 -109.5t-152.5 -38.5q-88 0 -149 39q-7 4 -5 17l8 28q2 9 10 12t14 -2q55 -40 131 -40q66 0 106.5 24.5t48.5 67.5q8 38 -18.5 63.5t-96.5 45.5
q-155 41 -132 152q12 63 69.5 99t140.5 36q81 0 131 -25q9 -7 6 -17l-9 -29q-2 -8 -9 -10.5t-14 1.5zM291 750h47q7 0 10 -5l87 -138q4 -8 -1 -15.5t-15 -7.5h-24q-8 0 -11 5l-78 115l-124 -115q-5 -5 -11 -5h-26q-9 0 -11 8t5 15l141 138q5 5 11 5z" />
    <glyph glyph-name="Scedilla" unicode="&#x15e;" horiz-adv-x="536" 
d="M525 674l-9 -35q-5 -18 -21 -10q-51 25 -132 25q-80 0 -130 -30.5t-61 -81.5q-10 -50 19.5 -85.5t105.5 -62.5q109 -39 149.5 -87.5t25.5 -128.5q-14 -74 -70.5 -123.5t-143.5 -61.5l-42 -56q80 -18 71 -85q-19 -90 -140 -90q-25 0 -42 4q-11 2 -9 14l3 17q2 14 18 12
q15 -4 36 -4q70 0 79 48q8 47 -68 59q-8 1 -10.5 7.5t2.5 13.5l41 55h-6q-97 0 -169 41q-8 5 -5 16l10 35q5 19 21 10q69 -44 158 -44q85 0 136.5 34.5t63.5 95.5q12 58 -22 94t-121 67q-96 33 -134 79.5t-24 123.5q16 79 89 125.5t181 46.5q83 0 143 -22q10 -4 7 -16z" />
    <glyph glyph-name="scedilla" unicode="&#x15f;" horiz-adv-x="457" 
d="M391 450q-49 26 -116 26q-58 0 -94 -21t-43 -58q-7 -36 18.5 -61.5t89.5 -43.5q85 -25 118 -63t21 -93q-22 -117 -161 -143l-42 -56q41 -9 58.5 -32.5t11.5 -52.5q-19 -90 -140 -90q-25 0 -41 4q-12 2 -10 14l4 17q2 14 18 12q15 -4 36 -4q67 0 79 48q4 22 -12.5 37.5
t-56.5 21.5q-7 1 -10 7.5t2 13.5l42 55h-4q-88 0 -149 39q-7 4 -5 17l8 28q2 9 10 12t14 -2q55 -40 131 -40q66 0 106.5 24.5t48.5 67.5q8 38 -18.5 63.5t-96.5 45.5q-155 41 -132 152q12 63 69.5 99t140.5 36q81 0 131 -25q9 -7 6 -17l-9 -29q-2 -8 -9 -10.5t-14 1.5z" />
    <glyph glyph-name="Scaron" unicode="&#x160;" horiz-adv-x="536" 
d="M525 674l-9 -35q-5 -18 -21 -10q-51 25 -132 25q-80 0 -130 -30.5t-61 -81.5q-10 -50 19.5 -85.5t105.5 -62.5q109 -39 149.5 -87.5t25.5 -128.5q-17 -88 -91.5 -139t-189.5 -51q-97 0 -169 41q-8 5 -5 16l10 35q5 19 21 10q69 -44 158 -44q85 0 136.5 34.5t63.5 95.5
q12 58 -22 94t-121 67q-96 33 -134 79.5t-24 123.5q16 79 89 125.5t181 46.5q83 0 143 -22q10 -4 7 -16zM387 758h-47q-6 0 -9 5l-87 138q-5 8 0 15.5t15 7.5h26q6 0 9 -4l79 -116l123 116q4 4 12 4h25q9 0 11.5 -7.5t-4.5 -15.5l-141 -138q-5 -5 -12 -5z" />
    <glyph glyph-name="scaron" unicode="&#x161;" horiz-adv-x="457" 
d="M391 450q-49 26 -116 26q-58 0 -94 -21t-43 -58q-7 -36 18.5 -61.5t89.5 -43.5q85 -25 118 -63t21 -93q-14 -71 -73.5 -109.5t-152.5 -38.5q-88 0 -149 39q-7 4 -5 17l8 28q2 9 10 12t14 -2q55 -40 131 -40q66 0 106.5 24.5t48.5 67.5q8 38 -18.5 63.5t-96.5 45.5
q-155 41 -132 152q12 63 69.5 99t140.5 36q81 0 131 -25q9 -7 6 -17l-9 -29q-2 -8 -9 -10.5t-14 1.5zM306 584h-47q-5 0 -10 5l-87 138q-4 8 1 15.5t14 7.5h26q7 0 10 -4l78 -116l124 116q4 4 12 4h24q10 0 12.5 -7.5t-5.5 -15.5l-141 -138q-5 -5 -11 -5z" />
    <glyph glyph-name="Tcommaaccent" unicode="&#x162;" horiz-adv-x="534" 
d="M81 -220l3 17q2 14 18 12q15 -4 36 -4q70 0 79 48q8 47 -68 59q-8 1 -10.5 7.5t2.5 13.5l51 68q-6 5 -5 14l123 629h-209q-14 0 -12 15l6 27q2 14 17 14h481q14 0 12 -14l-6 -27q-2 -15 -17 -15h-208l-123 -629q-5 -19 -8 -22l-42 -56q80 -18 71 -85q-19 -90 -140 -90
q-25 0 -42 4q-11 2 -9 14z" />
    <glyph glyph-name="tcommaaccent" unicode="&#x163;" horiz-adv-x="367" 
d="M60 480l4 24q5 14 17 14h83l28 141q2 14 17 14h31q14 0 12 -14l-28 -141h152q6 0 9.5 -4t1.5 -10l-4 -24q-2 -14 -17 -14h-152l-56 -288q-14 -75 2.5 -105.5t69.5 -30.5q19 0 42 5q16 2 16 -10l-2 -29q-1 -13 -14 -16q-23 -4 -56 -4h-5l-38 -51q80 -18 71 -85
q-19 -90 -140 -90q-25 0 -42 4q-11 2 -9 14l3 17q2 14 18 12q15 -4 36 -4q70 0 79 48q8 47 -68 59q-8 1 -10.5 7.5t2.5 13.5l47 62q-93 25 -65 166l59 305h-83q-13 0 -11 14z" />
    <glyph glyph-name="Tcaron" unicode="&#x164;" horiz-adv-x="534" 
d="M187 15l122 629h-209q-13 0 -11 15l5 27q2 14 17 14h482q13 0 11 -14l-5 -27q-2 -15 -17 -15h-209l-122 -629q-2 -15 -17 -15h-36q-13 0 -11 15zM386 758h-46q-5 0 -10 5l-87 138q-4 8 1 15.5t14 7.5h26q7 0 10 -4l78 -116l124 116q4 4 12 4h24q10 0 12.5 -7.5
t-5.5 -15.5l-141 -138q-5 -5 -12 -5z" />
    <glyph glyph-name="tcaron" unicode="&#x165;" horiz-adv-x="447" 
d="M59 480l4 24q5 14 17 14h83l28 141q2 14 17 14h31q14 0 12 -14l-28 -141h152q6 0 9.5 -4t1.5 -10l-4 -24q-2 -14 -17 -14h-152l-56 -288q-14 -75 2.5 -105.5t69.5 -30.5q19 0 42 5q16 2 16 -10l-2 -29q-1 -13 -14 -16q-23 -4 -56 -4q-79 0 -109 42t-12 131l59 305h-83
q-13 0 -11 14zM507 686q-10 -54 -29 -90.5t-56 -67.5q-10 -10 -15 -4l-7 11q-4 6 5 15q32 35 45 80q-41 1 -29 56q11 56 54 56t32 -56z" />
    <glyph glyph-name="Tbar" unicode="&#x166;" horiz-adv-x="534" 
d="M186 15l60 308h-149q-13 0 -11 15l4 23q2 14 17 14h149l52 269h-209q-13 0 -11 15l5 27q2 14 17 14h482q13 0 11 -14l-5 -27q-2 -15 -17 -15h-209l-52 -269h149q14 0 12 -14l-4 -23q-2 -15 -18 -15h-149l-60 -308q-2 -15 -17 -15h-36q-13 0 -11 15z" />
    <glyph glyph-name="tbar" unicode="&#x167;" horiz-adv-x="367" 
d="M59 480l5 24q2 14 17 14h83l27 141q2 14 17 14h31q14 0 12 -14l-27 -141h152q13 0 11 -14l-5 -24q-2 -14 -16 -14h-152l-28 -141h132q6 0 9.5 -4t1.5 -10l-4 -23q-2 -15 -17 -15h-132l-18 -95q-16 -74 1.5 -105t70.5 -31q19 0 42 5q7 1 11.5 -1.5t3.5 -8.5l-1 -29
q-1 -13 -15 -16q-23 -4 -56 -4q-78 0 -108 42t-13 131l22 112h-65q-13 0 -11 15l4 23q5 14 17 14h65l28 141h-83q-14 0 -12 14z" />
    <glyph glyph-name="Utilde" unicode="&#x168;" horiz-adv-x="708" 
d="M301 -12q-123 0 -183.5 74.5t-34.5 207.5l81 416q2 14 18 14h35q13 0 11 -14l-79 -410q-23 -115 20 -172.5t143 -57.5q206 0 253 230l79 410q2 14 18 14h35q13 0 11 -14l-81 -416q-26 -133 -115.5 -207.5t-210.5 -74.5zM595 907h27q6 0 9.5 -4t1.5 -10
q-28 -123 -110 -123q-18 0 -35 10.5t-22 16.5l-21 26q-1 2 -5 7l-5.5 7t-5 6t-5.5 5.5t-5 3.5t-6 3t-6 1q-37 0 -55 -70q-2 -14 -17 -14h-27q-6 0 -9.5 4.5t-1.5 10.5q29 122 112 122q42 0 77 -53q1 -1 4 -5t4 -5.5t4 -5t4 -5t4 -4t4.5 -3.5t4 -2.5t5 -2t5.5 -0.5
q37 0 54 71q2 13 16 13z" />
    <glyph glyph-name="utilde" unicode="&#x169;" horiz-adv-x="572" 
d="M245 42q94 0 166 67l76 395q5 14 17 14h32q6 0 9.5 -4t1.5 -10l-95 -490q-2 -14 -16 -14h-32q-14 0 -12 14l7 36q-74 -62 -172 -62q-101 0 -145.5 60t-22.5 170l55 286q5 14 18 14h31q6 0 9.5 -4t1.5 -10l-55 -284q-34 -178 126 -178zM498 733h26q14 0 12 -14
q-28 -123 -111 -123q-18 0 -34 9.5t-23 17.5t-20 26q-1 2 -5 7l-5.5 7t-5 6t-5.5 5.5t-5 3.5t-6 3t-6 1q-37 0 -55 -70q-5 -14 -17 -14h-27q-6 0 -9.5 4.5t-1.5 10.5q29 122 112 122q17 0 33 -10t23 -17.5t21 -25.5q1 -1 4 -5t4 -5.5t4 -5t4 -5t4 -4t4.5 -3.5t4 -2.5t5 -2
t5.5 -0.5q36 0 53 71q6 13 17 13z" />
    <glyph glyph-name="Umacron" unicode="&#x16a;" horiz-adv-x="708" 
d="M301 -12q-123 0 -183.5 74.5t-34.5 207.5l81 416q2 14 18 14h35q13 0 11 -14l-79 -410q-23 -115 20 -172.5t143 -57.5q206 0 253 230l79 410q2 14 18 14h35q13 0 11 -14l-81 -416q-26 -133 -115.5 -207.5t-210.5 -74.5zM322 829l5 23q2 14 16 14h256q14 0 12 -14l-5 -23
q-2 -15 -17 -15h-256q-13 0 -11 15z" />
    <glyph glyph-name="umacron" unicode="&#x16b;" horiz-adv-x="572" 
d="M245 42q94 0 166 67l76 395q5 14 17 14h32q6 0 9.5 -4t1.5 -10l-95 -490q-2 -14 -16 -14h-32q-14 0 -12 14l7 36q-74 -62 -172 -62q-101 0 -145.5 60t-22.5 170l55 286q5 14 18 14h31q6 0 9.5 -4t1.5 -10l-55 -284q-34 -178 126 -178zM220 655l4 23q2 14 17 14h256
q13 0 11 -14l-4 -23q-2 -15 -17 -15h-256q-13 0 -11 15z" />
    <glyph glyph-name="Ubreve" unicode="&#x16c;" horiz-adv-x="708" 
d="M301 -12q-123 0 -183.5 74.5t-34.5 207.5l81 416q2 14 18 14h35q13 0 11 -14l-79 -410q-23 -115 20 -172.5t143 -57.5q206 0 253 230l79 410q2 14 18 14h35q13 0 11 -14l-81 -416q-26 -133 -115.5 -207.5t-210.5 -74.5zM452 762q-64 0 -101 37t-29 105q0 6 5 10.5t12 4.5
h28q13 0 11 -13q-4 -46 18.5 -70.5t64.5 -24.5t73.5 24.5t45.5 70.5q5 13 17 13h28q6 0 9.5 -4.5t1.5 -10.5q-21 -69 -71 -105.5t-113 -36.5z" />
    <glyph glyph-name="ubreve" unicode="&#x16d;" horiz-adv-x="572" 
d="M245 42q94 0 166 67l76 395q5 14 17 14h32q6 0 9.5 -4t1.5 -10l-95 -490q-2 -14 -16 -14h-32q-14 0 -12 14l7 36q-74 -62 -172 -62q-101 0 -145.5 60t-22.5 170l55 286q5 14 18 14h31q6 0 9.5 -4t1.5 -10l-55 -284q-34 -178 126 -178zM347 588q-63 0 -99.5 36.5
t-30.5 105.5q2 15 17 15h28q14 0 12 -13q-4 -46 18 -70.5t65 -24.5q42 0 73.5 24.5t45.5 70.5q2 13 16 13h28q7 0 10 -4.5t1 -10.5q-19 -68 -70 -105t-114 -37z" />
    <glyph glyph-name="Uring" unicode="&#x16e;" horiz-adv-x="708" 
d="M301 -12q-123 0 -183.5 74.5t-34.5 207.5l81 416q2 14 18 14h35q13 0 11 -14l-79 -410q-23 -115 20 -172.5t143 -57.5q206 0 253 230l79 410q2 14 18 14h35q13 0 11 -14l-81 -416q-26 -133 -115.5 -207.5t-210.5 -74.5zM487 947q45 0 68.5 -29.5t15.5 -73.5
q-7 -43 -43.5 -73t-80.5 -30t-68 29.5t-16 73.5t44 73.5t80 29.5zM456 786q25 0 44.5 17.5t23.5 40.5q4 25 -7.5 41.5t-38.5 16.5q-26 0 -45 -17t-23 -41q-4 -23 8 -40.5t38 -17.5z" />
    <glyph glyph-name="uring" unicode="&#x16f;" horiz-adv-x="572" 
d="M245 42q94 0 166 67l76 395q5 14 17 14h32q6 0 9.5 -4t1.5 -10l-95 -490q-2 -14 -16 -14h-32q-14 0 -12 14l7 36q-74 -62 -172 -62q-101 0 -145.5 60t-22.5 170l55 286q5 14 18 14h31q6 0 9.5 -4t1.5 -10l-55 -284q-34 -178 126 -178zM387 772q44 0 68 -29.5t16 -73.5
q-10 -44 -45 -73.5t-79 -29.5t-69 30t-15 73q8 44 43.5 73.5t80.5 29.5zM355 611q25 0 43.5 17t25.5 41q4 25 -8.5 41.5t-37.5 16.5q-26 0 -45 -17t-23 -41q-6 -22 7 -40t38 -18z" />
    <glyph glyph-name="Uhungarumlaut" unicode="&#x170;" horiz-adv-x="708" 
d="M301 -12q-123 0 -183.5 74.5t-34.5 207.5l81 416q2 14 18 14h35q13 0 11 -14l-79 -410q-23 -115 20 -172.5t143 -57.5q206 0 253 230l79 410q2 14 18 14h35q13 0 11 -14l-81 -416q-26 -133 -115.5 -207.5t-210.5 -74.5zM346 782l128 137q5 5 12 5h42q6 0 9 -4t2 -9.5
t-6 -10.5l-144 -133q-5 -5 -13 -5h-22q-9 0 -12 6.5t4 13.5zM488 782l128 137q5 5 12 5h42q10 0 11.5 -8t-6.5 -16l-144 -133q-5 -5 -13 -5h-22q-9 0 -12 6.5t4 13.5z" />
    <glyph glyph-name="uhungarumlaut" unicode="&#x171;" horiz-adv-x="572" 
d="M245 42q94 0 166 67l76 395q5 14 17 14h32q6 0 9.5 -4t1.5 -10l-95 -490q-2 -14 -16 -14h-32q-14 0 -12 14l7 36q-74 -62 -172 -62q-101 0 -145.5 60t-22.5 170l55 286q5 14 18 14h31q6 0 9.5 -4t1.5 -10l-55 -284q-34 -178 126 -178zM248 608l127 137q5 5 12 5h42
q10 0 12 -8t-6 -16l-145 -133q-5 -5 -12 -5h-22q-10 0 -12.5 6.5t4.5 13.5zM390 608l127 137q5 5 12 5h42q10 0 12 -8t-6 -16l-145 -133q-5 -5 -12 -5h-22q-10 0 -12.5 6.5t4.5 13.5z" />
    <glyph glyph-name="Uogonek" unicode="&#x172;" horiz-adv-x="708" 
d="M709 686l-81 -416q-24 -118 -97 -190.5t-176 -87.5q-81 -61 -91 -118q-4 -21 8.5 -31.5t39.5 -10.5q21 0 27 2q7 1 11 -2.5t3 -11.5l-5 -22q-2 -12 -14 -14q-39 -3 -43 -3q-51 0 -73.5 22.5t-15.5 61.5q13 64 87 123q-117 4 -173.5 77.5t-31.5 204.5l81 416q2 14 17 14
h35q14 0 12 -14l-80 -410q-22 -115 20 -172.5t143 -57.5q100 0 165.5 57.5t87.5 172.5l80 410q2 14 17 14h35q14 0 12 -14z" />
    <glyph glyph-name="uogonek" unicode="&#x173;" horiz-adv-x="572" 
d="M390 0l9 50q-74 -62 -172 -62q-101 0 -145.5 60t-22.5 170l55 286q5 14 18 14h31q6 0 9.5 -4t1.5 -10l-55 -284q-34 -178 126 -178q94 0 166 67l76 395q5 14 17 14h32q6 0 9.5 -4t1.5 -10l-95 -490q-2 -13 -32 -38q-61 -51 -72 -102q-4 -21 8.5 -31.5t39.5 -10.5
q21 0 27 2q7 1 11 -2.5t3 -11.5l-5 -22q-2 -12 -14 -14q-39 -3 -43 -3q-51 0 -73.5 22.5t-15.5 61.5q16 73 104 135z" />
    <glyph glyph-name="Wcircumflex" unicode="&#x174;" horiz-adv-x="986" 
d="M552 700h53q9 0 11 -11l48 -601l312 602q6 10 16 10h39q8 0 10.5 -5.5t-1.5 -12.5l-351 -672q-4 -10 -15 -10h-53q-10 0 -12 11l-49 596l-279 -596q-6 -11 -16 -11h-52q-12 0 -13 10l-90 672q-1 7 3.5 12.5t12.5 5.5h39q11 0 12 -10l78 -603l282 603q4 10 15 10zM599 924
h46q7 0 10 -5l87 -138q5 -7 -0.5 -15t-15.5 -8h-24q-7 0 -10 5l-79 115l-123 -115q-5 -5 -12 -5h-26q-9 0 -11 8t5 15l141 138q5 5 12 5z" />
    <glyph glyph-name="wcircumflex" unicode="&#x175;" horiz-adv-x="780" 
d="M420 518h39q4 0 7.5 -3t3.5 -7l49 -422l220 422q6 10 15 10h38q19 0 10 -19l-263 -489q-8 -10 -15 -10h-41q-10 0 -12 10l-50 412l-212 -412q-6 -10 -15 -10h-41q-4 0 -7.5 3t-3.5 7l-73 489q-2 19 17 19h38q10 0 12 -11l55 -421l213 422q6 10 16 10zM461 750h46
q8 0 10 -5l87 -138q5 -7 -0.5 -15t-14.5 -8h-25q-7 0 -10 5l-79 115l-123 -115q-5 -5 -11 -5h-26q-10 0 -12 8t5 15l141 138q5 5 12 5z" />
    <glyph glyph-name="Ycircumflex" unicode="&#x176;" horiz-adv-x="654" 
d="M178 694l159 -355l298 355q5 6 14 6h38q9 0 11 -7.5t-5 -15.5l-335 -399l-52 -263q-2 -15 -16 -15h-36q-14 0 -12 15l52 263l-181 400q-4 7 1 14.5t14 7.5h39q7 0 11 -6zM428 924h46q7 0 10 -5l87 -138q5 -7 -0.5 -15t-15.5 -8h-24q-7 0 -10 5l-79 115l-123 -115
q-5 -5 -12 -5h-26q-9 0 -11 8t5 15l141 138q5 5 12 5z" />
    <glyph glyph-name="ycircumflex" unicode="&#x177;" horiz-adv-x="526" 
d="M229 75l255 434q4 9 15 9h38q9 0 11.5 -5.5t-2.5 -12.5l-407 -684q-5 -9 -15 -9h-35q-9 0 -11.5 5.5t1.5 12.5l104 175l-113 498q-2 8 3 14t14 6h37q9 0 11 -8zM334 750h46q8 0 10 -5l87 -138q5 -7 -0.5 -15t-14.5 -8h-25q-7 0 -10 5l-79 115l-123 -115q-5 -5 -11 -5h-26
q-10 0 -12 8t5 15l141 138q5 5 12 5z" />
    <glyph glyph-name="Ydieresis" unicode="&#x178;" horiz-adv-x="654" 
d="M178 694l159 -355l298 355q5 6 14 6h38q9 0 11 -7.5t-5 -15.5l-335 -399l-52 -263q-2 -15 -16 -15h-36q-14 0 -12 15l52 263l-181 400q-4 7 1 14.5t14 7.5h39q7 0 11 -6zM547 896q38 0 27 -53q-10 -53 -48 -53t-28 53q6 29 17.5 41t31.5 12zM345 896q38 0 27 -53
q-10 -53 -48 -53t-28 53q6 29 17.5 41t31.5 12z" />
    <glyph glyph-name="Zacute" unicode="&#x179;" horiz-adv-x="557" 
d="M0 70l515 574h-379q-14 0 -12 15l5 27q2 14 18 14h439q13 0 11 -14l-7 -38q-1 -9 -10 -18l-515 -574h405q14 0 12 -14l-5 -27q-2 -15 -17 -15h-465q-14 0 -12 15l8 37q1 10 9 18zM335 780l130 139q5 5 12 5h43q10 0 11.5 -7.5t-6.5 -15.5l-145 -134q-5 -5 -12 -5h-28
q-9 0 -10.5 5.5t5.5 12.5z" />
    <glyph glyph-name="zacute" unicode="&#x17a;" horiz-adv-x="463" 
d="M-22 14l7 34q1 10 9 18l400 400h-299q-14 0 -12 14l5 24q2 14 17 14h357q13 0 11 -14l-6 -33q-4 -11 -10 -17l-399 -402h323q13 0 11 -14l-4 -24q-2 -14 -17 -14h-381q-14 0 -12 14zM254 606l130 139q5 5 12 5h43q10 0 11.5 -7.5t-6.5 -15.5l-145 -134q-5 -5 -12 -5h-28
q-9 0 -10.5 5.5t5.5 12.5z" />
    <glyph glyph-name="Zdotaccent" unicode="&#x17b;" horiz-adv-x="557" 
d="M0 70l515 574h-379q-14 0 -12 15l5 27q2 14 18 14h439q13 0 11 -14l-7 -38q-1 -9 -10 -18l-515 -574h405q14 0 12 -14l-5 -27q-2 -15 -17 -15h-465q-14 0 -12 15l8 37q1 10 9 18zM398 896q20 0 26.5 -12t1.5 -41q-11 -53 -48 -53q-39 0 -28 53q10 53 48 53z" />
    <glyph glyph-name="zdotaccent" unicode="&#x17c;" horiz-adv-x="463" 
d="M-22 14l7 34q1 10 9 18l400 400h-299q-14 0 -12 14l5 24q2 14 17 14h357q13 0 11 -14l-6 -33q-4 -11 -10 -17l-399 -402h323q13 0 11 -14l-4 -24q-2 -14 -17 -14h-381q-14 0 -12 14zM316 722q21 0 27.5 -12t0.5 -41q-10 -53 -48 -53t-28 53q11 53 48 53z" />
    <glyph glyph-name="Zcaron" unicode="&#x17d;" horiz-adv-x="557" 
d="M0 70l515 574h-379q-14 0 -12 15l5 27q2 14 18 14h439q13 0 11 -14l-7 -38q-1 -9 -10 -18l-515 -574h405q14 0 12 -14l-5 -27q-2 -15 -17 -15h-465q-14 0 -12 15l8 37q1 10 9 18zM397 758h-46q-5 0 -10 5l-87 138q-4 8 1 15.5t14 7.5h26q7 0 10 -4l78 -116l124 116
q4 4 12 4h24q10 0 12.5 -7.5t-5.5 -15.5l-141 -138q-5 -5 -12 -5z" />
    <glyph glyph-name="zcaron" unicode="&#x17e;" horiz-adv-x="463" 
d="M-22 14l7 34q1 10 9 18l400 400h-299q-14 0 -12 14l5 24q2 14 17 14h357q13 0 11 -14l-6 -33q-4 -11 -10 -17l-399 -402h323q13 0 11 -14l-4 -24q-2 -14 -17 -14h-381q-14 0 -12 14zM317 584h-47q-5 0 -10 5l-87 138q-4 8 1 15.5t14 7.5h26q7 0 10 -4l78 -116l124 116
q4 4 12 4h24q10 0 12.5 -7.5t-5.5 -15.5l-141 -138q-5 -5 -11 -5z" />
    <glyph glyph-name="longs" unicode="&#x17f;" horiz-adv-x="340" 
d="M171 518l7 34q17 89 65.5 133.5t122.5 44.5q39 0 58 -6q11 -3 8 -14l-10 -30q-5 -14 -18 -9q-15 5 -45 5q-52 0 -80.5 -30.5t-42.5 -102.5l-140 -722q-2 -14 -18 -14h-31q-13 0 -11 14l125 645h-95q-14 0 -12 14l4 24q5 14 18 14h95z" />
    <glyph glyph-name="uni0191" unicode="&#x191;" horiz-adv-x="530" 
d="M28 -12l136 698q2 14 17 14h395q14 0 12 -14l-6 -27q-2 -15 -17 -15h-345l-49 -252h320q14 0 12 -14l-5 -27q-2 -15 -18 -15h-320l-70 -357q-18 -89 -67 -134t-121 -45q-36 0 -57 5q-5 1 -8 5.5t-1 9.5l10 31q6 17 19 12q15 -5 43 -5q47 0 77 30.5t43 99.5z" />
    <glyph glyph-name="florin" unicode="&#x192;" horiz-adv-x="340" 
d="M221 466l-95 -488q-17 -88 -65.5 -133t-122.5 -45q-39 0 -58 6q-11 3 -8 14l10 30q5 14 18 9q15 -5 45 -5q52 0 80.5 30.5t42.5 102.5l93 479h-95q-14 0 -12 14l4 24q5 14 18 14h95l7 34q17 89 65.5 133.5t122.5 44.5q39 0 58 -6q11 -3 8 -14l-10 -30q-5 -14 -18 -9
q-15 5 -45 5q-52 0 -80.5 -30.5t-42.5 -102.5l-5 -25h137q6 0 9.5 -4t1.5 -10l-4 -24q-2 -14 -17 -14h-137z" />
    <glyph glyph-name="Aringacute" unicode="&#x1fa;" horiz-adv-x="640" 
d="M429 843q44 0 68 -29.5t16 -73.5q-12 -57 -66 -88h-1l128 -632q5 -20 -15 -20h-41q-9 0 -12 10l-34 181h-339l-106 -181q-4 -10 -15 -10h-40q-9 0 -11.5 6t2.5 14l374 632q-44 31 -32 88q8 44 44 73.5t80 29.5zM387 629l-221 -382h295zM398 682q25 0 43 17t25 41
q4 25 -8 41.5t-38 16.5t-45 -17t-23 -41q-6 -22 7 -40t39 -18zM419 892l70 82q6 6 13 6h42q10 0 11.5 -8t-6.5 -15l-87 -82q-7 -5 -12 -5h-26q-9 0 -10.5 7.5t5.5 14.5z" />
    <glyph glyph-name="aringacute" unicode="&#x1fb;" horiz-adv-x="570" 
d="M390 14l7 33q-78 -59 -166 -59q-103 0 -157.5 74.5t-31.5 196.5q23 123 107 197t188 74q92 0 142 -60l6 34q5 14 17 14h32q6 0 9.5 -4t1.5 -10l-95 -490q-2 -14 -16 -14h-32q-14 0 -12 14zM250 42q90 0 158 63l60 308q-43 63 -134 63q-81 0 -145.5 -58t-84.5 -159
q-20 -102 21.5 -159.5t124.5 -57.5zM379 820l71 82q6 6 13 6h42q10 0 11.5 -8t-6.5 -15l-88 -82q-5 -5 -12 -5h-26q-9 0 -10 7.5t5 14.5zM389 771q44 0 69 -29.5t15 -73.5q-8 -44 -43.5 -73.5t-80.5 -29.5q-44 0 -68 29.5t-16 73.5q10 45 44.5 74t79.5 29zM358 610
q25 0 44.5 17.5t23.5 40.5q4 25 -7.5 41.5t-37.5 16.5q-25 0 -45 -17t-24 -41q-4 -23 8.5 -40.5t37.5 -17.5z" />
    <glyph glyph-name="AEacute" unicode="&#x1fc;" horiz-adv-x="842" 
d="M400 193h-235l-134 -185q-5 -8 -13 -8h-46q-9 0 -11 6t3 14l488 673q4 7 14 7h391q13 0 11 -14l-5 -27q-2 -15 -17 -15h-295l-49 -254h269q14 0 12 -14l-5 -27q-2 -15 -18 -15h-269l-54 -278h303q14 0 12 -14l-5 -27q-2 -15 -17 -15h-353q-14 0 -12 15zM487 643
l-283 -394h206zM616 780l130 139q5 5 12 5h43q10 0 11.5 -7.5t-6.5 -15.5l-145 -134q-5 -5 -12 -5h-28q-9 0 -10.5 5.5t5.5 12.5z" />
    <glyph glyph-name="aeacute" unicode="&#x1fd;" horiz-adv-x="850" 
d="M173 46q63 0 116.5 37.5t79.5 118.5l12 65h-125q-155 0 -178 -113q-9 -53 18.5 -80.5t76.5 -27.5zM447 292h88q121 0 176 25.5t64 72.5q9 44 -19.5 67t-88.5 23q-77 0 -136 -47.5t-84 -140.5zM586 46q66 0 121 28q19 9 19 -8l-2 -27q0 -11 -10 -15q-62 -32 -142 -32
q-76 0 -123.5 35t-61.5 100q-81 -135 -223 -135q-77 0 -120 42t-28 118q32 167 248 167h129l4 24q28 137 -115 137q-73 0 -137 -27q-8 -3 -14 -1t-5 10l1 24q2 12 12 17q78 31 156 31q77 0 117 -33.5t34 -95.5q90 129 236 129q82 0 125.5 -39t31.5 -104q-29 -152 -298 -152
h-104q-12 -89 25.5 -141t123.5 -52zM444 606l130 139q5 5 13 5h43q10 0 11.5 -7.5t-7.5 -15.5l-145 -134q-5 -5 -11 -5h-29q-8 0 -9.5 5.5t4.5 12.5z" />
    <glyph glyph-name="Oslashacute" unicode="&#x1fe;" horiz-adv-x="706" 
d="M669 350q-31 -157 -133.5 -259.5t-243.5 -102.5q-83 0 -140 37l-90 -118q-4 -7 -13 -7h-31q-9 0 -11 6.5t4 14.5l103 136q-46 48 -60.5 124.5t3.5 168.5q31 158 132.5 260t243.5 102q91 0 148 -43l96 124q5 7 14 7h31q9 0 10.5 -6.5t-4.5 -14.5l-110 -144
q87 -101 51 -285zM123 350q-30 -156 33 -238l385 504q-44 38 -119 38q-111 0 -191.5 -83.5t-107.5 -220.5zM603 350q29 146 -28 229l-383 -502q45 -31 111 -31q111 0 191.5 83t108.5 221zM398 780l130 139q5 5 13 5h43q10 0 11.5 -7.5t-7.5 -15.5l-145 -134q-5 -5 -11 -5
h-29q-8 0 -9.5 5.5t4.5 12.5z" />
    <glyph glyph-name="oslashacute" unicode="&#x1ff;" horiz-adv-x="576" 
d="M34 259q23 119 106 195t193 76q59 0 106 -26l90 117q5 7 14 7h30q9 0 11 -6t-4 -14l-103 -133q75 -75 49 -216q-24 -118 -107.5 -194.5t-191.5 -76.5q-56 0 -106 26l-90 -117q-4 -7 -13 -7h-31q-9 0 -10.5 6.5t4.5 14.5l102 132q-75 75 -49 216zM96 259q-20 -107 26 -165
l280 362q-35 20 -80 20q-80 0 -144 -59.5t-82 -157.5zM464 259q19 104 -26 165l-280 -362q34 -20 80 -20q81 0 143.5 59.5t82.5 157.5zM299 606l130 139q5 5 13 5h43q10 0 11.5 -7.5t-7.5 -15.5l-145 -134q-5 -5 -11 -5h-29q-8 0 -9.5 5.5t4.5 12.5z" />
    <glyph glyph-name="Scommaaccent" unicode="&#x218;" horiz-adv-x="536" 
d="M525 674l-9 -35q-5 -18 -21 -10q-51 25 -132 25q-80 0 -130 -30.5t-61 -81.5q-10 -50 19.5 -85.5t105.5 -62.5q109 -39 149.5 -87.5t25.5 -128.5q-17 -88 -91.5 -139t-189.5 -51q-97 0 -169 41q-8 5 -5 16l10 35q5 19 21 10q69 -44 158 -44q85 0 136.5 34.5t63.5 95.5
q12 58 -22 94t-121 67q-96 33 -134 79.5t-24 123.5q16 79 89 125.5t181 46.5q83 0 143 -22q10 -4 7 -16zM171 -101q10 52 52 52q18 0 27.5 -13t4.5 -39q-19 -90 -87 -142q-6 -8 -11 -2l-5 6q-4 5 2 10q37 38 48 78q-20 0 -27.5 15t-3.5 35z" />
    <glyph glyph-name="scommaaccent" unicode="&#x219;" horiz-adv-x="457" 
d="M391 450q-49 26 -116 26q-58 0 -94 -21t-43 -58q-7 -36 18.5 -61.5t89.5 -43.5q85 -25 118 -63t21 -93q-14 -71 -73.5 -109.5t-152.5 -38.5q-88 0 -149 39q-7 4 -5 17l8 28q2 9 10 12t14 -2q55 -40 131 -40q66 0 106.5 24.5t48.5 67.5q8 38 -18.5 63.5t-96.5 45.5
q-155 41 -132 152q12 63 69.5 99t140.5 36q81 0 131 -25q9 -7 6 -17l-9 -29q-2 -8 -9 -10.5t-14 1.5zM128 -101q12 52 53 52t31 -52q-17 -88 -86 -142q-7 -7 -12 -2l-4 6q-4 5 1 10q38 40 49 78q-38 0 -32 50z" />
    <glyph glyph-name="uni021A" unicode="&#x21a;" horiz-adv-x="534" 
d="M187 15l122 629h-209q-13 0 -11 15l5 27q2 14 17 14h482q13 0 11 -14l-5 -27q-2 -15 -17 -15h-209l-122 -629q-2 -15 -17 -15h-36q-13 0 -11 15zM155 -101q12 52 53 52t31 -52q-17 -88 -86 -142q-7 -7 -12 -2l-4 6q-5 5 1 10q38 40 49 78q-38 0 -32 50z" />
    <glyph glyph-name="uni021B" unicode="&#x21b;" horiz-adv-x="367" 
d="M59 480l4 24q5 14 17 14h83l28 141q2 14 17 14h31q14 0 12 -14l-28 -141h152q6 0 9.5 -4t1.5 -10l-4 -24q-2 -14 -17 -14h-152l-56 -288q-14 -75 2.5 -105.5t69.5 -30.5q19 0 42 5q16 2 16 -10l-2 -29q-1 -13 -14 -16q-23 -4 -56 -4q-79 0 -109 42t-12 131l59 305h-83
q-13 0 -11 14zM106 -101q10 52 52 52q18 0 27.5 -13t4.5 -39q-19 -90 -87 -142q-6 -8 -11 -2l-5 6q-4 5 2 10q37 38 48 78q-20 0 -27.5 15t-3.5 35z" />
    <glyph glyph-name="dotlessj" unicode="&#x237;" horiz-adv-x="225" 
d="M149 518h32q13 0 11 -14l-104 -535q-18 -89 -61.5 -129t-117.5 -40q-27 0 -43 5q-12 3 -8 15l8 28q5 14 19 9q11 -4 31 -4q46 0 73 27t38 86l105 538q2 14 17 14z" />
    <glyph glyph-name="apostrophe" unicode="&#x2bc;" horiz-adv-x="404" 
d="M327 686q-10 -54 -28.5 -90.5t-55.5 -67.5q-11 -10 -16 -4l-6 11q-4 5 4 15q34 35 45 80q-40 1 -29 56q6 30 18.5 43t36.5 13q42 0 31 -56z" />
    <glyph glyph-name="circumflex" unicode="&#x2c6;" horiz-adv-x="404" 
d="M256 730h47q7 0 10 -5l87 -138q5 -7 -0.5 -15t-15.5 -8h-24q-8 0 -10 5l-79 115l-123 -115q-7 -5 -12 -5h-26q-9 0 -11 8t5 15l141 138q5 5 11 5z" />
    <glyph glyph-name="caron" unicode="&#x2c7;" horiz-adv-x="404" 
d="M276 564h-47q-6 0 -9 5l-88 138q-4 8 1 15.5t14 7.5h26q7 0 10 -4l79 -116l123 116q4 4 12 4h24q10 0 12.5 -7.5t-5.5 -15.5l-140 -138q-5 -5 -12 -5z" />
    <glyph glyph-name="uni02C9" unicode="&#x2c9;" horiz-adv-x="404" 
d="M132 634l4 23q2 14 17 14h256q13 0 11 -14l-4 -23q-2 -15 -17 -15h-256q-13 0 -11 15z" />
    <glyph glyph-name="breve" unicode="&#x2d8;" horiz-adv-x="404" 
d="M256 568q-63 0 -99.5 36.5t-30.5 105.5q2 15 17 15h28q14 0 12 -13q-4 -46 18 -70.5t65 -24.5q42 0 73.5 24.5t45.5 70.5q2 13 16 13h28q7 0 10.5 -4.5t0.5 -10.5q-19 -68 -70 -105t-114 -37z" />
    <glyph glyph-name="dotaccent" unicode="&#x2d9;" horiz-adv-x="404" 
d="M288 702q38 0 28 -53q-11 -53 -49 -53t-27 53q5 29 16 41t32 12z" />
    <glyph glyph-name="ring" unicode="&#x2da;" horiz-adv-x="404" 
d="M297 751q44 0 69 -29.5t15 -73.5q-8 -44 -43.5 -73.5t-80.5 -29.5q-44 0 -68 29.5t-16 73.5q10 45 44.5 74t79.5 29zM266 590q25 0 44.5 17.5t23.5 40.5q4 25 -7.5 41.5t-37.5 16.5q-25 0 -45 -17t-24 -41q-4 -23 8.5 -40.5t37.5 -17.5z" />
    <glyph glyph-name="ogonek" unicode="&#x2db;" horiz-adv-x="404" 
d="M149 0h24q11 0 12.5 -9t-6.5 -16q-60 -50 -71 -101q-4 -21 8.5 -31.5t39.5 -10.5q21 0 27 2q7 1 11 -2.5t3 -11.5l-5 -22q-2 -12 -14 -14q-39 -3 -43 -3q-51 0 -73.5 22.5t-15.5 61.5q13 69 103 135z" />
    <glyph glyph-name="tilde" unicode="&#x2dc;" horiz-adv-x="404" 
d="M406 715h27q6 0 9.5 -4t1.5 -10q-28 -123 -110 -123q-42 0 -77 53q-25 33 -39 33q-37 0 -55 -70q-2 -14 -17 -14h-27q-13 0 -11 15q29 122 112 122q42 0 77 -53q1 -1 4 -5t4 -5.5t4 -5t4 -5t4 -4t4.5 -3.5t4 -2.5t5 -2t5.5 -0.5q37 0 54 71q2 13 16 13z" />
    <glyph glyph-name="hungarumlaut" unicode="&#x2dd;" horiz-adv-x="404" 
d="M104 588l127 137q7 5 12 5h42q10 0 12 -8t-6 -16l-145 -133q-5 -5 -12 -5h-22q-10 0 -12.5 6.5t4.5 13.5zM246 588l127 137q7 5 12 5h42q10 0 12 -8t-6 -16l-145 -133q-5 -5 -12 -5h-22q-10 0 -12.5 6.5t4.5 13.5z" />
    <glyph glyph-name="gravecomb" unicode="&#x300;" horiz-adv-x="0" 
d="M-239 725l76 -139q4 -7 0 -12.5t-12 -5.5h-29q-6 0 -9 5l-93 134q-6 8 -1.5 15.5t14.5 7.5h43q8 0 11 -5z" />
    <glyph glyph-name="acutecomb" unicode="&#x301;" horiz-adv-x="0" 
d="M-255 586l130 139q7 5 13 5h43q10 0 11 -7.5t-7 -15.5l-145 -134q-5 -5 -11 -5h-29q-8 0 -9.5 5.5t4.5 12.5z" />
    <glyph glyph-name="uni0302" unicode="&#x302;" horiz-adv-x="0" 
d="M-201 730h46q8 0 10 -5l87 -138q5 -7 -0.5 -15t-14.5 -8h-25q-8 0 -10 5l-79 115l-123 -115q-5 -5 -11 -5h-26q-10 0 -12 8t6 15l140 138q7 5 12 5z" />
    <glyph glyph-name="tildecomb" unicode="&#x303;" horiz-adv-x="0" 
d="M-55 715h26q6 0 9.5 -4t1.5 -10q-28 -123 -110 -123q-18 0 -34 9.5t-23 17.5t-20 26q-1 2 -5 7l-5.5 7t-5 6t-5.5 5.5t-5 3.5t-6 3t-6 1q-37 0 -55 -70q-5 -14 -17 -14h-27q-6 0 -9.5 4.5t-1.5 10.5q29 122 112 122q17 0 33 -10t23 -17.5t21 -25.5q1 -1 4 -5t4 -5.5t4 -5
t4 -5t4 -4t4.5 -3.5t4 -2.5t5 -2t5.5 -0.5q36 0 53 71q6 13 17 13z" />
    <glyph glyph-name="uni0304" unicode="&#x304;" horiz-adv-x="0" 
d="M-319 634l5 23q2 14 16 14h256q13 0 11 -14l-4 -23q-2 -15 -17 -15h-256q-13 0 -11 15z" />
    <glyph glyph-name="uni0306" unicode="&#x306;" horiz-adv-x="0" 
d="M-201 568q-64 0 -101 37t-29 105q2 15 17 15h28q13 0 11 -13q-4 -46 18.5 -70.5t64.5 -24.5q43 0 75 24.5t44 70.5q5 13 16 13h28q7 0 10.5 -4.5t0.5 -10.5q-19 -68 -69.5 -105t-113.5 -37z" />
    <glyph glyph-name="uni0307" unicode="&#x307;" horiz-adv-x="0" 
d="M-169 702q21 0 27.5 -12t0.5 -41q-10 -53 -48 -53t-28 53q11 53 48 53z" />
    <glyph glyph-name="uni0308" unicode="&#x308;" horiz-adv-x="0" 
d="M-67 702q38 0 28 -53q-11 -53 -48 -53q-38 0 -28 53q11 53 48 53zM-269 702q21 0 27.5 -12t0.5 -41q-10 -53 -48 -53t-28 53q11 53 48 53z" />
    <glyph glyph-name="uni030A" unicode="&#x30a;" horiz-adv-x="0" 
d="M-159 752q45 0 68.5 -29.5t15.5 -73.5q-7 -43 -43.5 -73t-80.5 -30t-68 29.5t-16 73.5t44 73.5t80 29.5zM-190 591q25 0 44.5 17.5t23.5 40.5q4 25 -7.5 41.5t-38.5 16.5q-26 0 -45 -17t-23 -41q-4 -23 8 -40.5t38 -17.5z" />
    <glyph glyph-name="uni030C" unicode="&#x30c;" horiz-adv-x="0" 
d="M-182 564h-46q-7 0 -10 5l-87 138q-5 8 0 15.5t15 7.5h26q7 0 10 -4l78 -116l124 116q4 4 11 4h24q10 0 12.5 -7.5t-5.5 -15.5l-140 -138q-5 -5 -12 -5z" />
    <glyph glyph-name="uni0327" unicode="&#x327;" horiz-adv-x="0" 
d="M-432 -220l4 17q2 14 18 12q15 -4 36 -4q67 0 79 48q4 22 -12.5 37.5t-56.5 21.5q-7 1 -10 7.5t2 13.5l47 61q5 6 11 6h29q9 0 11 -6t-4 -13l-33 -44q41 -9 58.5 -32.5t11.5 -52.5q-19 -90 -140 -90q-25 0 -41 4q-12 2 -10 14z" />
    <glyph glyph-name="tonos" unicode="&#x384;" horiz-adv-x="404" 
d="M187 570l95 152q6 8 15 8h46q9 0 10.5 -6.5t-4.5 -13.5l-111 -150q-6 -8 -14 -8h-28q-8 0 -10.5 5.5t1.5 12.5z" />
    <glyph glyph-name="dieresistonos" unicode="&#x385;" horiz-adv-x="404" 
d="M244 639l113 116q7 7 17 7h43q9 0 10 -7t-6 -13l-130 -113q-8 -8 -17 -8h-26q-8 0 -9 6t5 12zM369 601q38 0 28 -53q-11 -53 -49 -53t-27 53q5 29 16 41t32 12zM167 601q38 0 28 -53q-11 -53 -49 -53t-27 53q5 29 16 41t32 12z" />
    <glyph glyph-name="Alphatonos" unicode="&#x386;" horiz-adv-x="640" 
d="M375 700h52q10 0 12 -10l135 -670q5 -20 -15 -20h-41q-9 0 -12 10l-34 181h-339l-106 -181q-4 -10 -15 -10h-40q-9 0 -11.5 6t2.5 14l396 670q8 10 16 10zM387 629l-221 -382h295zM95 540l95 152q6 8 15 8h47q8 0 9.5 -6.5t-4.5 -13.5l-111 -150q-6 -8 -14 -8h-28
q-8 0 -10.5 5.5t1.5 12.5z" />
    <glyph glyph-name="anoteleia" unicode="&#x387;" horiz-adv-x="292" 
d="M202 331q-11 -56 -54 -56t-32 56t54 56t32 -56z" />
    <glyph glyph-name="Epsilontonos" unicode="&#x388;" horiz-adv-x="633" 
d="M106 15l131 671q2 14 17 14h395q14 0 12 -14l-6 -27q-2 -15 -17 -15h-345l-50 -254h321q6 0 9.5 -4t1.5 -10l-5 -27q-2 -15 -17 -15h-321l-54 -278h355q14 0 12 -14l-6 -27q-2 -15 -17 -15h-404q-14 0 -12 15zM30 540l94 152q8 8 16 8h46q9 0 10.5 -6.5t-4.5 -13.5
l-111 -150q-6 -8 -14 -8h-28q-9 0 -11 5.5t2 12.5z" />
    <glyph glyph-name="Etatonos" unicode="&#x389;" horiz-adv-x="770" 
d="M107 15l131 671q2 14 17 14h35q14 0 12 -14l-56 -285h401l56 285q2 14 17 14h35q14 0 12 -14l-131 -671q-2 -15 -17 -15h-35q-14 0 -12 15l65 330h-401l-65 -330q-2 -15 -17 -15h-35q-14 0 -12 15zM30 540l94 152q8 8 16 8h46q9 0 10.5 -6.5t-4.5 -13.5l-111 -150
q-6 -8 -14 -8h-28q-9 0 -11 5.5t2 12.5z" />
    <glyph glyph-name="Iotatonos" unicode="&#x38a;" horiz-adv-x="305" 
d="M250 700h35q14 0 12 -14l-131 -671q-2 -15 -17 -15h-35q-14 0 -12 15l131 671q2 14 17 14zM30 540l94 152q8 8 16 8h46q9 0 10.5 -6.5t-4.5 -13.5l-111 -150q-6 -8 -14 -8h-28q-9 0 -11 5.5t2 12.5z" />
    <glyph glyph-name="Omicrontonos" unicode="&#x38c;" horiz-adv-x="731" 
d="M698 350q-31 -157 -133.5 -259.5t-243.5 -102.5t-203.5 102.5t-31.5 259.5q31 158 132.5 260t243.5 102q141 0 204 -102t32 -260zM632 350q26 137 -22.5 220.5t-158.5 83.5q-111 0 -191.5 -83.5t-107.5 -220.5q-28 -137 21 -220.5t159 -83.5q111 0 191.5 83t108.5 221z
M30 540l94 152q8 8 16 8h46q9 0 10.5 -6.5t-4.5 -13.5l-111 -150q-6 -8 -14 -8h-28q-9 0 -11 5.5t2 12.5z" />
    <glyph glyph-name="Upsilontonos" unicode="&#x38e;" horiz-adv-x="775" 
d="M300 694l159 -355l298 355q5 6 14 6h38q9 0 11 -7.5t-5 -15.5l-335 -399l-52 -263q-2 -15 -16 -15h-36q-14 0 -12 15l52 263l-181 400q-4 7 1 14.5t14 7.5h39q7 0 11 -6zM30 540l94 152q8 8 16 8h46q9 0 10.5 -6.5t-4.5 -13.5l-111 -150q-6 -8 -14 -8h-28q-9 0 -11 5.5
t2 12.5z" />
    <glyph glyph-name="Omegatonos" unicode="&#x38f;" horiz-adv-x="735" 
d="M465 712q143 0 206 -95.5t34 -246.5q-18 -94 -77 -177t-147 -137h137q14 0 12 -14l-6 -27q-2 -15 -17 -15h-211q-14 0 -12 15l6 31q1 6 10 12q201 116 239 312q26 128 -24 206t-161 78q-112 0 -191 -77.5t-106 -206.5q-38 -196 120 -312q6 -6 4 -12l-6 -31
q-2 -15 -17 -15h-212q-14 0 -12 15l6 27q2 14 17 14h137q-67 54 -94 136.5t-9 177.5q28 150 129.5 246t244.5 96zM30 540l94 152q8 8 16 8h46q9 0 10.5 -6.5t-4.5 -13.5l-111 -150q-6 -8 -14 -8h-28q-9 0 -11 5.5t2 12.5z" />
    <glyph glyph-name="iotadieresistonos" unicode="&#x390;" horiz-adv-x="287" 
d="M138 518h32q13 0 11 -14l-68 -349q-12 -60 4.5 -87t62.5 -27q18 0 33 4q7 2 11.5 -1.5t3.5 -10.5l-2 -23q0 -15 -13 -17q-28 -5 -46 -5q-74 0 -102.5 40.5t-10.5 128.5l67 347q2 14 17 14zM159 712l113 116q7 7 17 7h43q9 0 10 -7t-6 -13l-130 -113q-8 -8 -17 -8h-26
q-8 0 -9 6t5 12zM284 674q20 0 26.5 -12t1.5 -41q-11 -53 -49 -53t-27 53q10 53 48 53zM82 674q20 0 26.5 -12t1.5 -41q-11 -53 -49 -53t-27 53q10 53 48 53z" />
    <glyph glyph-name="Alpha" unicode="&#x391;" horiz-adv-x="640" 
d="M375 700h52q10 0 12 -10l135 -670q5 -20 -15 -20h-41q-9 0 -12 10l-34 181h-339l-106 -181q-4 -10 -15 -10h-40q-9 0 -11.5 6t2.5 14l396 670q8 10 16 10zM387 629l-221 -382h295z" />
    <glyph glyph-name="Beta" unicode="&#x392;" horiz-adv-x="618" 
d="M34 15l130 671q2 14 18 14h217q104 0 155 -50t36 -131q-22 -112 -123 -151q119 -37 96 -173q-18 -92 -94 -143.5t-197 -51.5h-226q-14 0 -12 15zM496 195q14 74 -29.5 107t-147.5 33h-159l-54 -279h169q195 0 221 139zM523 517q12 60 -25 93.5t-118 33.5h-160l-49 -253
h153q90 0 138.5 29.5t60.5 96.5z" />
    <glyph glyph-name="Gamma" unicode="&#x393;" horiz-adv-x="520" 
d="M34 15l130 671q2 14 18 14h397q13 0 11 -14l-5 -27q-2 -15 -17 -15h-348l-122 -629q-2 -15 -17 -15h-35q-14 0 -12 15z" />
    <glyph glyph-name="uni0394" unicode="&#x394;" horiz-adv-x="642" 
d="M558 0h-585q-9 0 -12 6.5t2 13.5l399 671q4 9 16 9h48q10 0 11 -9l138 -671q2 -8 -3 -14t-14 -6zM55 56h442l-111 564z" />
    <glyph glyph-name="Epsilon" unicode="&#x395;" horiz-adv-x="557" 
d="M34 15l130 671q2 14 18 14h395q13 0 11 -14l-5 -27q-2 -15 -17 -15h-346l-49 -254h320q14 0 12 -14l-5 -27q-1 -6 -6.5 -10.5t-11.5 -4.5h-320l-54 -278h354q14 0 12 -14l-5 -27q-2 -15 -17 -15h-404q-14 0 -12 15z" />
    <glyph glyph-name="Zeta" unicode="&#x396;" horiz-adv-x="557" 
d="M0 70l515 574h-379q-14 0 -12 15l5 27q2 14 18 14h439q13 0 11 -14l-7 -38q-1 -9 -10 -18l-515 -574h405q14 0 12 -14l-5 -27q-2 -15 -17 -15h-465q-14 0 -12 15l8 37q1 10 9 18z" />
    <glyph glyph-name="Eta" unicode="&#x397;" horiz-adv-x="693" 
d="M34 15l130 671q2 14 18 14h35q13 0 11 -14l-55 -285h401l55 285q2 14 18 14h35q13 0 11 -14l-130 -671q-2 -15 -17 -15h-35q-14 0 -12 15l64 330h-401l-64 -330q-2 -15 -17 -15h-35q-14 0 -12 15z" />
    <glyph glyph-name="Theta" unicode="&#x398;" horiz-adv-x="706" 
d="M478 324h-223q-13 0 -11 15l4 23q2 14 18 14h222q13 0 11 -14l-4 -23q-2 -15 -17 -15zM677 350q-31 -158 -133 -260t-243 -102q-142 0 -204.5 102t-31.5 260t133 260t243 102q142 0 204.5 -102t31.5 -260zM611 350q27 137 -21.5 220.5t-159.5 83.5q-110 0 -191.5 -83.5
t-107.5 -220.5q-27 -137 21.5 -220.5t159.5 -83.5q110 0 191.5 83.5t107.5 220.5z" />
    <glyph glyph-name="Iota" unicode="&#x399;" horiz-adv-x="238" 
d="M186 700h36q13 0 11 -14l-130 -671q-2 -15 -17 -15h-36q-13 0 -11 15l130 671q2 14 17 14z" />
    <glyph glyph-name="Kappa" unicode="&#x39a;" horiz-adv-x="581" 
d="M243 373l279 -348q7 -10 2.5 -17.5t-16.5 -7.5h-38q-14 0 -21 10l-284 350l-67 -345q-2 -15 -17 -15h-35q-14 0 -12 15l130 671q2 14 18 14h35q13 0 11 -14l-58 -302l371 306q11 10 25 10h34q12 0 14 -7.5t-10 -17.5z" />
    <glyph glyph-name="Lambda" unicode="&#x39b;" horiz-adv-x="640" 
d="M-37 19l397 672q7 9 16 9h52q9 0 11 -9l136 -672q1 -7 -4 -13t-13 -6h-39q-11 0 -12 9l-120 617l-359 -617q-6 -9 -15 -9h-39q-9 0 -12 6t1 13z" />
    <glyph glyph-name="Mu" unicode="&#x39c;" horiz-adv-x="836" 
d="M435 240h-42q-8 0 -11 7l-169 360l-115 -592q-2 -15 -17 -15h-35q-14 0 -12 15l130 671q2 14 18 14h50q8 0 11 -6l183 -392l335 392q5 6 13 6h51q13 0 11 -14l-130 -671q-2 -15 -17 -15h-35q-14 0 -12 15l115 592l-309 -360q-4 -7 -13 -7z" />
    <glyph glyph-name="Nu" unicode="&#x39d;" horiz-adv-x="700" 
d="M34 15l130 671q2 14 18 14h56q9 0 11 -7l270 -609l117 602q2 14 18 14h35q13 0 11 -14l-130 -671q-2 -15 -17 -15h-56q-8 0 -11 7l-270 609l-117 -601q-2 -15 -17 -15h-36q-14 0 -12 15z" />
    <glyph glyph-name="Xi" unicode="&#x39e;" horiz-adv-x="552" 
d="M596 686l-5 -27q-2 -15 -17 -15h-447q-14 0 -12 15l5 27q2 14 18 14h447q13 0 11 -14zM486 367l-5 -27q-2 -15 -17 -15h-347q-14 0 -12 15l5 27q2 14 18 14h347q13 0 11 -14zM471 42l-5 -27q-2 -15 -17 -15h-447q-15 0 -13 15l6 27q2 14 17 14h447q14 0 12 -14z" />
    <glyph glyph-name="Omicron" unicode="&#x39f;" horiz-adv-x="706" 
d="M677 350q-31 -158 -133 -260t-243 -102q-142 0 -204.5 102t-31.5 260t133 260t243 102q142 0 204.5 -102t31.5 -260zM611 350q27 137 -21.5 220.5t-159.5 83.5q-110 0 -191.5 -83.5t-107.5 -220.5q-27 -137 21.5 -220.5t159.5 -83.5q110 0 191.5 83.5t107.5 220.5z" />
    <glyph glyph-name="Pi" unicode="&#x3a0;" horiz-adv-x="693" 
d="M34 15l130 671q2 14 18 14h500q13 0 11 -14l-130 -671q-2 -15 -17 -15h-35q-14 0 -12 15l122 629h-400l-122 -629q-2 -15 -17 -15h-36q-14 0 -12 15z" />
    <glyph glyph-name="Rho" unicode="&#x3a1;" horiz-adv-x="583" 
d="M590 487q-20 -102 -101.5 -158t-203.5 -56h-137l-50 -258q-2 -15 -17 -15h-36q-13 0 -11 15l130 671q2 14 17 14h187q122 0 181.5 -55.5t40.5 -157.5zM524 487q15 80 -29 118.5t-144 38.5h-131l-61 -315h131q204 0 234 158z" />
    <glyph glyph-name="Sigma" unicode="&#x3a3;" horiz-adv-x="528" 
d="M-1 68l250 304l-138 260q-6 9 -3 19l6 35q2 14 18 14h445q13 0 11 -14l-5 -27q-2 -15 -17 -15h-382l134 -252q3 -6 2 -17l-2 -8q-1 -9 -8 -18l-241 -293h383q13 0 11 -14l-5 -27q-2 -15 -17 -15h-446q-14 0 -12 15l7 34q2 9 9 19z" />
    <glyph glyph-name="Tau" unicode="&#x3a4;" horiz-adv-x="534" 
d="M187 15l122 629h-209q-13 0 -11 15l5 27q2 14 17 14h482q13 0 11 -14l-5 -27q-2 -15 -17 -15h-209l-122 -629q-2 -15 -17 -15h-36q-13 0 -11 15z" />
    <glyph glyph-name="Upsilon" unicode="&#x3a5;" horiz-adv-x="654" 
d="M178 694l159 -355l298 355q5 6 14 6h38q9 0 11 -7.5t-5 -15.5l-335 -399l-52 -263q-2 -15 -16 -15h-36q-14 0 -12 15l52 263l-181 400q-4 7 1 14.5t14 7.5h39q7 0 11 -6z" />
    <glyph glyph-name="Phi" unicode="&#x3a6;" horiz-adv-x="710" 
d="M275 15l17 89q-123 9 -188.5 73.5t-43.5 172.5t111.5 173t216.5 73l17 90q2 14 18 14h35q13 0 11 -14l-17 -90q123 -9 188.5 -73.5t43.5 -172.5q-19 -106 -110.5 -172t-217.5 -74l-17 -89q-2 -15 -17 -15h-35q-14 0 -12 15zM618 350q17 86 -32.5 135.5t-144.5 53.5
l-74 -378q97 4 165 53.5t86 135.5zM126 350q-17 -85 32.5 -135t144.5 -54l74 378q-97 -4 -165 -53t-86 -136z" />
    <glyph glyph-name="Chi" unicode="&#x3a7;" horiz-adv-x="655" 
d="M682 677l-310 -322l191 -332q5 -7 0 -15t-15 -8h-40q-7 0 -10 6l-174 300l-288 -300q-7 -6 -13 -6h-40q-10 0 -12 8t5 15l321 332l-184 322q-5 8 0 15.5t15 7.5h39q7 0 10 -5l167 -291l279 290q6 6 13 6h40q10 0 11.5 -7.5t-5.5 -15.5z" />
    <glyph glyph-name="Psi" unicode="&#x3a8;" horiz-adv-x="688" 
d="M310 0h-35q-14 0 -12 15l27 138q-111 8 -162 80t-26 200l49 253q2 14 18 14h35q13 0 11 -14l-48 -248q-38 -208 134 -227l92 475q2 14 18 14h35q13 0 11 -14l-92 -475q91 10 147.5 69t74.5 158l48 248q2 14 17 14h36q13 0 11 -14l-49 -253q-26 -129 -104.5 -200
t-191.5 -80l-27 -138q-2 -15 -17 -15z" />
    <glyph glyph-name="uni03A9" unicode="&#x3a9;" horiz-adv-x="708" 
d="M441 712q143 0 206.5 -95.5t34.5 -246.5q-18 -95 -77 -178t-147 -136h136q14 0 12 -14l-5 -27q-2 -15 -17 -15h-211q-14 0 -12 15l6 31q1 4 9 12q202 115 240 312q24 130 -24.5 207t-161.5 77q-111 0 -191.5 -78t-104.5 -206q-38 -198 119 -312q6 -6 5 -12l-6 -31
q-2 -15 -17 -15h-212q-14 0 -12 15l5 27q2 14 17 14h138q-67 54 -94 136.5t-9 177.5q28 150 129 246t244 96z" />
    <glyph glyph-name="Iotadieresis" unicode="&#x3aa;" horiz-adv-x="238" 
d="M186 700h36q13 0 11 -14l-130 -671q-2 -15 -17 -15h-36q-13 0 -11 15l130 671q2 14 17 14zM343 896q20 0 26.5 -12t1.5 -41q-11 -53 -48 -53q-39 0 -28 53q10 53 48 53zM141 896q20 0 26.5 -12t1.5 -41q-11 -53 -48 -53q-39 0 -28 53q10 53 48 53z" />
    <glyph glyph-name="Upsilondieresis" unicode="&#x3ab;" horiz-adv-x="654" 
d="M178 694l159 -355l298 355q5 6 14 6h38q9 0 11 -7.5t-5 -15.5l-335 -399l-52 -263q-2 -15 -16 -15h-36q-14 0 -12 15l52 263l-181 400q-4 7 1 14.5t14 7.5h39q7 0 11 -6zM547 896q38 0 27 -53q-10 -53 -48 -53t-28 53q6 29 17.5 41t31.5 12zM345 896q38 0 27 -53
q-10 -53 -48 -53t-28 53q6 29 17.5 41t31.5 12z" />
    <glyph glyph-name="alphatonos" unicode="&#x3ac;" horiz-adv-x="600" 
d="M607 502l-140 -262q2 -89 10 -131t17 -49.5t29 -7.5h5q13 0 11 -14l-4 -24q-2 -14 -17 -14h-20q-24 0 -39 10t-27 48t-14 109q-61 -107 -115 -143t-116 -36q-87 0 -128.5 71.5t-16.5 199.5q24 120 95.5 195.5t161.5 75.5q141 0 159 -192l91 171q6 9 16 9h33q18 0 9 -16z
M197 42q55 0 100 41.5t116 169.5q0 223 -125 223q-62 0 -114 -61.5t-70 -155.5q-19 -101 7 -159t86 -58zM335 606l130 139q5 5 12 5h43q10 0 11.5 -7.5t-6.5 -15.5l-145 -134q-5 -5 -12 -5h-28q-9 0 -10.5 5.5t5.5 12.5z" />
    <glyph glyph-name="epsilontonos" unicode="&#x3ad;" horiz-adv-x="466" 
d="M361 286l-5 -24q-2 -15 -17 -15q-110 -2 -174.5 -32t-74.5 -81q-8 -45 30 -68.5t124 -23.5q66 0 142 22q8 3 12.5 -0.5t3.5 -10.5l-2 -29q-2 -10 -14 -15q-67 -21 -155 -21q-107 0 -162.5 35.5t-41.5 107.5q10 52 59 90t119 50q-69 9 -100 41t-21 83q25 135 243 135
q79 0 145 -18q9 -2 7 -14l-8 -29q-8 -18 -21 -12q-60 19 -133 19q-155 0 -171 -81q-10 -45 43 -69t160 -26q5 0 9 -4t3 -10zM274 606l130 139q5 5 12 5h43q10 0 11.5 -7.5t-6.5 -15.5l-145 -134q-5 -5 -12 -5h-28q-9 0 -10.5 5.5t5.5 12.5z" />
    <glyph glyph-name="etatonos" unicode="&#x3ae;" horiz-adv-x="572" 
d="M326 476q-44 0 -88.5 -17.5t-76.5 -49.5l-77 -395q-2 -14 -17 -14h-32q-13 0 -11 14l95 490q2 14 17 14h32q13 0 11 -14l-7 -36q76 62 173 62q101 0 145 -59.5t22 -170.5l-93 -479q-2 -14 -17 -14h-32q-13 0 -11 14l93 477q34 178 -126 178zM306 606l130 139q5 5 12 5h43
q10 0 11.5 -7.5t-6.5 -15.5l-145 -134q-5 -5 -12 -5h-28q-9 0 -10.5 5.5t5.5 12.5z" />
    <glyph glyph-name="iotatonos" unicode="&#x3af;" horiz-adv-x="287" 
d="M137 518h32q13 0 11 -14l-68 -349q-12 -60 4.5 -87t62.5 -27q18 0 33 4q7 2 11.5 -1.5t3.5 -10.5l-2 -23q0 -15 -13 -17q-28 -5 -46 -5q-74 0 -102.5 40.5t-10.5 128.5l67 347q2 14 17 14zM139 606l130 139q5 5 12 5h43q10 0 11.5 -7.5t-6.5 -15.5l-145 -134
q-5 -5 -12 -5h-28q-9 0 -10.5 5.5t5.5 12.5z" />
    <glyph glyph-name="upsilondieresistonos" unicode="&#x3b0;" horiz-adv-x="545" 
d="M77 213l35 179q9 49 3.5 64t-26.5 15q-12 0 -17 -1q-6 -1 -9.5 2.5t-2.5 9.5l2 24q0 6 5 11t11 6q16 2 30 2q49 0 65.5 -28t4.5 -97l-35 -181q-18 -91 9 -134t99 -43q146 0 182 186q28 145 -5 270q-2 7 2 13.5t12 6.5h39q9 0 11 -8q36 -130 5 -282q-22 -116 -86.5 -178
t-169.5 -62q-103 0 -144 57.5t-20 167.5zM303 712l113 116q7 7 17 7h43q9 0 10 -7t-6 -13l-130 -113q-8 -8 -17 -8h-26q-8 0 -9 6t5 12zM428 674q20 0 26.5 -12t1.5 -41q-11 -53 -49 -53t-27 53q10 53 48 53zM226 674q20 0 26.5 -12t1.5 -41q-11 -53 -49 -53t-27 53
q10 53 48 53z" />
    <glyph glyph-name="alpha" unicode="&#x3b1;" horiz-adv-x="600" 
d="M607 502l-140 -262q2 -89 10 -131t17 -49.5t29 -7.5h5q13 0 11 -14l-4 -24q-2 -14 -17 -14h-20q-24 0 -39 10t-27 48t-14 109q-61 -107 -115 -143t-116 -36q-87 0 -128.5 71.5t-16.5 199.5q24 120 95.5 195.5t161.5 75.5q141 0 159 -192l91 171q6 9 16 9h33q18 0 9 -16z
M197 42q55 0 100 41.5t116 169.5q0 223 -125 223q-62 0 -114 -61.5t-70 -155.5q-19 -101 7 -159t86 -58z" />
    <glyph glyph-name="beta" unicode="&#x3b2;" horiz-adv-x="536" 
d="M239 368l5 24q2 14 16 14q92 3 141 45t62 106q12 60 -17.5 95.5t-93.5 35.5q-63 0 -107 -42.5t-61 -129.5l-135 -695q-2 -14 -17 -14h-35q-14 0 -12 14l135 689q22 115 86 173.5t158 58.5q89 0 133.5 -51.5t27.5 -132.5q-26 -135 -170 -177q77 -27 106 -81.5t15 -125.5
q-15 -82 -78.5 -134t-156.5 -52q-67 0 -111 26q-7 2 -5 14l8 30q7 18 23 9q42 -25 93 -25q67 0 110 36t55 96q15 78 -32 127t-132 53q-13 2 -11 14z" />
    <glyph glyph-name="gamma" unicode="&#x3b3;" horiz-adv-x="549" 
d="M183 -200q-53 0 -82.5 31.5t-19.5 81.5q9 58 131 207l-140 377q-3 8 1 14.5t13 6.5h37q8 0 11 -7l122 -333l251 333q4 7 13 7h38q8 0 9.5 -6.5t-4.5 -14.5l-286 -377q37 -105 47 -142t4 -65q-10 -50 -51 -81.5t-94 -31.5zM234 63q-85 -105 -93 -147q-5 -28 8.5 -45
t43.5 -17t50 17t25 45q5 24 0 48t-17.5 55t-16.5 44z" />
    <glyph glyph-name="delta" unicode="&#x3b4;" horiz-adv-x="575" 
d="M42 259q21 116 104.5 189.5t187.5 73.5h10l-172 149q-4 5 -3 12l7 33q2 14 16 14h353q14 0 12 -14l-5 -23q-2 -15 -17 -15h-277l214 -189q87 -80 61 -230q-24 -118 -106.5 -194.5t-190.5 -76.5q-109 0 -163.5 77t-30.5 194zM104 259q-19 -98 20.5 -157.5t121.5 -59.5
q81 0 143.5 59.5t81.5 157.5q18 99 -20.5 158t-120.5 59t-145 -59.5t-81 -157.5z" />
    <glyph glyph-name="epsilon" unicode="&#x3b5;" horiz-adv-x="466" 
d="M361 286l-5 -24q-2 -15 -17 -15q-110 -2 -174.5 -32t-74.5 -81q-8 -45 30 -68.5t124 -23.5q66 0 142 22q8 3 12.5 -0.5t3.5 -10.5l-2 -29q-2 -10 -14 -15q-67 -21 -155 -21q-107 0 -162.5 35.5t-41.5 107.5q10 52 59 90t119 50q-69 9 -100 41t-21 83q25 135 243 135
q79 0 145 -18q9 -2 7 -14l-8 -29q-8 -18 -21 -12q-60 19 -133 19q-155 0 -171 -81q-10 -45 43 -69t160 -26q5 0 9 -4t3 -10z" />
    <glyph glyph-name="zeta" unicode="&#x3b6;" horiz-adv-x="420" 
d="M499 716l-7 -37q-1 -7 -8 -12q-161 -92 -262.5 -208t-123.5 -234q-9 -43 4.5 -77t46 -55.5t73 -34.5t92.5 -21q26 -4 35.5 -15t5.5 -32q-5 -22 -30 -57l-90 -119q-6 -7 -14 -7h-36q-9 0 -10.5 6.5t4.5 14.5l102 136q6 7 7 15q1 3 -2.5 4.5t-14.5 3.5q-5 1 -8 2
q-124 22 -185.5 77.5t-42.5 156.5q49 246 379 455h-224q-13 0 -11 15l4 23q2 14 17 14h288q13 0 11 -14z" />
    <glyph glyph-name="eta" unicode="&#x3b7;" horiz-adv-x="572" 
d="M326 476q-44 0 -88.5 -17.5t-76.5 -49.5l-77 -395q-2 -14 -17 -14h-32q-13 0 -11 14l95 490q2 14 17 14h32q13 0 11 -14l-7 -36q76 62 173 62q101 0 145 -59.5t22 -170.5l-93 -479q-2 -14 -17 -14h-32q-13 0 -11 14l93 477q34 178 -126 178z" />
    <glyph glyph-name="theta" unicode="&#x3b8;" horiz-adv-x="582" 
d="M238 -12q-118 0 -164 101t-12 276q35 176 120 276.5t203 100.5t164 -100.5t11 -276.5q-34 -175 -118.5 -276t-203.5 -101zM249 42q85 0 148.5 77.5t93.5 219.5h-370q-24 -143 9 -220t119 -77zM374 688q-86 0 -149 -77t-93 -220h370q24 143 -9 220t-119 77z" />
    <glyph glyph-name="iota" unicode="&#x3b9;" horiz-adv-x="287" 
d="M137 518h32q13 0 11 -14l-68 -349q-12 -60 4.5 -87t62.5 -27q18 0 33 4q7 2 11.5 -1.5t3.5 -10.5l-2 -23q0 -15 -13 -17q-28 -5 -46 -5q-74 0 -102.5 40.5t-10.5 128.5l67 347q2 14 17 14z" />
    <glyph glyph-name="kappa" unicode="&#x3ba;" horiz-adv-x="502" 
d="M179 504l-43 -221l189 156q59 46 92.5 64.5t64.5 18.5q18 0 31 -3q11 -2 6 -15l-9 -28q-6 -15 -18 -10q-10 2 -21 2q-26 0 -60 -28l-208 -169l215 -247q6 -6 2 -15t-14 -9h-38q-9 0 -17 8l-220 251l-47 -245q-2 -14 -17 -14h-32q-13 0 -11 14l95 490q2 14 17 14h32
q13 0 11 -14z" />
    <glyph glyph-name="lambda" unicode="&#x3bb;" horiz-adv-x="506" 
d="M375 8l-96 400l-256 -399q-7 -9 -14 -9h-36q-9 0 -12 6.5t2 13.5l299 464l-53 226q-3 8 1.5 14t13.5 6h36q10 0 12 -8l166 -702q2 -7 -2.5 -13.5t-12.5 -6.5h-36q-10 0 -12 8z" />
    <glyph glyph-name="uni03BC" unicode="&#x3bc;" horiz-adv-x="602" 
d="M511 42q7 0 15 2q7 1 11 -2t3 -11l-1 -20q-2 -14 -14 -19q-17 -4 -39 -4q-34 0 -55 16t-19 52q-73 -68 -172 -68q-98 0 -146 63l-44 -230q-2 -14 -17 -14h-36q-14 0 -12 14l133 683q5 14 18 14h35q6 0 9.5 -4t1.5 -10l-76 -394q47 -68 144 -68q96 0 169 68l76 394
q5 14 17 14h36q6 0 9.5 -4t1.5 -10l-77 -399q-8 -35 -0.5 -49t29.5 -14z" />
    <glyph glyph-name="nu" unicode="&#x3bd;" horiz-adv-x="527" 
d="M171 9l-102 490q-2 19 17 19h37q9 0 11 -9l88 -441q195 187 257 437q2 13 17 13h33q13 0 11 -15q-78 -297 -301 -498q-7 -5 -11 -5h-45q-10 0 -12 9z" />
    <glyph glyph-name="xi" unicode="&#x3be;" horiz-adv-x="428" 
d="M209 6q-97 23 -138 79.5t-25 132.5q13 62 62.5 114.5t130.5 77.5q-62 17 -86.5 59.5t-14.5 96.5q17 78 80 121t173 43h42q14 0 12 -14l-5 -23q-2 -15 -17 -15h-44q-156 0 -179 -112q-9 -51 27 -87t112 -36h32q14 0 12 -14l-5 -24q-2 -14 -17 -14q-100 -4 -169 -49
t-84 -124q-13 -65 21 -104t96 -54q81 -20 113 -37.5t26 -49.5q-5 -28 -23 -49l-86 -110q-6 -7 -14 -7h-40q-9 0 -10.5 6.5t4.5 14.5l82 104q13 18 18 32q2 7 -4.5 13t-26 13t-55.5 16z" />
    <glyph glyph-name="omicron" unicode="&#x3bf;" horiz-adv-x="576" 
d="M42 259q23 119 106 195t193 76q109 0 162.5 -76t30.5 -195q-24 -118 -107.5 -194.5t-191.5 -76.5t-162.5 77t-30.5 194zM104 259q-20 -97 20.5 -157t121.5 -60t143.5 59.5t82.5 157.5q18 99 -21 158t-121 59q-80 0 -144 -59.5t-82 -157.5z" />
    <glyph glyph-name="pi" unicode="&#x3c0;" horiz-adv-x="611" 
d="M55 480l4 24q5 14 17 14h535q6 0 9.5 -4t1.5 -10l-4 -24q-2 -14 -17 -14h-137l-56 -288q-13 -74 3 -105t63 -31q25 0 41 5q7 1 11 -2.5t3 -9.5l-1 -26q0 -15 -15 -17q-17 -4 -53 -4q-149 0 -115 172l59 306h-149q-54 -288 -183 -467q-10 -12 -19 -7l-31 14q-13 7 -3 21
q121 165 174 439h-127q-13 0 -11 14z" />
    <glyph glyph-name="rho" unicode="&#x3c1;" horiz-adv-x="565" 
d="M85 47l-44 -226q-2 -14 -17 -14h-33q-13 0 -11 14l94 481q21 110 92 169t170 59q105 0 157.5 -72.5t28.5 -198.5q-26 -125 -106.5 -198t-184.5 -73q-91 0 -146 59zM136 309l-40 -203q46 -64 136 -64q82 0 145 57.5t83 159.5q20 103 -18 160t-121 57q-71 0 -120 -43
t-65 -124z" />
    <glyph glyph-name="sigma1" unicode="&#x3c2;" horiz-adv-x="478" 
d="M266 -12q-124 6 -186 78.5t-38 192.5q24 122 115.5 196.5t210.5 74.5q76 0 128 -24q8 -2 6 -13l-9 -30q-7 -18 -21 -10q-45 23 -114 23q-93 0 -164 -58t-90 -159q-20 -99 28.5 -155t144.5 -62q72 -4 104 -31t22 -80q-10 -51 -55.5 -79.5t-122.5 -30.5q-14 0 -12 14l5 25
q2 13 16 15q95 4 107 56q5 27 -13 40.5t-62 16.5z" />
    <glyph glyph-name="sigma" unicode="&#x3c3;" horiz-adv-x="576" 
d="M41 253q22 115 105 190t193 75h256q6 0 9.5 -4t1.5 -10l-4 -24q-2 -14 -17 -14h-123q50 -34 67 -91.5t4 -121.5q-22 -115 -105 -190t-192 -75t-163 75t-32 190zM103 253q-20 -93 21 -152t122 -59t143 58t82 153q18 95 -22.5 153t-120.5 58q-82 0 -144.5 -58t-80.5 -153z
" />
    <glyph glyph-name="tau" unicode="&#x3c4;" horiz-adv-x="445" 
d="M59 480l4 24q5 14 17 14h373q6 0 9.5 -4t1.5 -10l-4 -24q-2 -14 -17 -14h-163l-56 -289q-16 -73 0.5 -104t64.5 -31q23 0 45 5q6 1 10 -2t3 -10l-1 -27q0 -14 -14 -16q-25 -4 -56 -4q-149 0 -115 172l59 306h-150q-13 0 -11 14z" />
    <glyph glyph-name="upsilon" unicode="&#x3c5;" horiz-adv-x="545" 
d="M77 213l35 179q9 49 3.5 64t-26.5 15q-12 0 -17 -1q-6 -1 -9.5 2.5t-2.5 9.5l2 24q0 6 5 11t11 6q16 2 30 2q49 0 65.5 -28t4.5 -97l-35 -181q-18 -91 9 -134t99 -43q146 0 182 186q28 145 -5 270q-2 7 2 13.5t12 6.5h39q9 0 11 -8q36 -130 5 -282q-22 -116 -86.5 -178
t-169.5 -62q-103 0 -144 57.5t-20 167.5z" />
    <glyph glyph-name="phi" unicode="&#x3c6;" horiz-adv-x="649" 
d="M253 -193h-36q-13 0 -11 14l32 165q-112 10 -165.5 81.5t-31.5 188.5q29 144 146 265q10 10 19 3l23 -17q13 -8 1 -21q-101 -108 -125 -232q-18 -94 20.5 -150.5t122.5 -64.5l61 314q34 177 174 177q79 0 115 -68.5t9 -199.5q-24 -121 -105.5 -194.5t-199.5 -81.5
l-32 -165q-2 -14 -17 -14zM543 261q22 103 0.5 159t-72.5 56q-77 0 -100 -135l-59 -302q84 4 147.5 63t83.5 159z" />
    <glyph glyph-name="chi" unicode="&#x3c7;" horiz-adv-x="514" 
d="M-67 -172l264 343l-122 326q-3 8 1 14.5t13 6.5h38q8 0 10 -7l106 -277l216 277q6 7 14 7h38q9 0 10 -6.5t-5 -14.5l-249 -326l131 -342q3 -8 -1 -15t-13 -7h-41q-6 0 -11 7l-113 294l-227 -294q-4 -7 -13 -7h-40q-9 0 -10.5 6.5t4.5 14.5z" />
    <glyph glyph-name="psi" unicode="&#x3c8;" horiz-adv-x="661" 
d="M213 -179l33 167q-109 8 -157 76t-24 187l49 253q2 14 17 14h34q14 0 12 -14l-49 -251q-38 -199 128 -212l90 463q2 14 17 14h35q14 0 12 -14l-90 -463q82 8 136.5 62.5t72.5 149.5l49 251q2 14 17 14h34q14 0 12 -14l-49 -253q-24 -120 -97 -187.5t-185 -75.5l-33 -167
q-2 -14 -17 -14h-36q-13 0 -11 14z" />
    <glyph glyph-name="omega" unicode="&#x3c9;" horiz-adv-x="770" 
d="M491 -13q-129 0 -122 188q-68 -188 -195 -188q-78 0 -111 80.5t-5 224.5q25 122 69 222q6 11 17 11l34 -3q7 -1 9.5 -6.5t-0.5 -11.5q-45 -96 -66 -210q-24 -130 -6 -191.5t71 -61.5q59 0 108.5 85t90.5 290q2 14 17 14h32q13 0 11 -14q-19 -105 -24 -179.5t4 -116.5
t27 -60.5t47 -18.5q51 0 95 64.5t69 188.5q21 111 15 210q0 16 16 18l34 2q13 2 13 -10q6 -109 -17 -222q-28 -144 -91.5 -224.5t-141.5 -80.5z" />
    <glyph glyph-name="iotadieresis" unicode="&#x3ca;" horiz-adv-x="287" 
d="M137 518h32q13 0 11 -14l-68 -349q-12 -60 4.5 -87t62.5 -27q18 0 33 4q7 2 11.5 -1.5t3.5 -10.5l-2 -23q0 -15 -13 -17q-28 -5 -46 -5q-74 0 -102.5 40.5t-10.5 128.5l67 347q2 14 17 14zM293 722q21 0 27.5 -12t0.5 -41q-10 -53 -48 -53t-28 53q11 53 48 53zM91 722
q21 0 27.5 -12t0.5 -41q-10 -53 -48 -53t-28 53q11 53 48 53z" />
    <glyph glyph-name="upsilondieresis" unicode="&#x3cb;" horiz-adv-x="545" 
d="M77 213l35 179q9 49 3.5 64t-26.5 15q-12 0 -17 -1q-6 -1 -9.5 2.5t-2.5 9.5l2 24q0 6 5 11t11 6q16 2 30 2q49 0 65.5 -28t4.5 -97l-35 -181q-18 -91 9 -134t99 -43q146 0 182 186q28 145 -5 270q-2 7 2 13.5t12 6.5h39q9 0 11 -8q36 -130 5 -282q-22 -116 -86.5 -178
t-169.5 -62q-103 0 -144 57.5t-20 167.5zM439 722q21 0 27.5 -12t0.5 -41q-10 -53 -48 -53t-28 53q11 53 48 53zM237 722q21 0 27.5 -12t0.5 -41q-10 -53 -48 -53t-28 53q11 53 48 53z" />
    <glyph glyph-name="omicrontonos" unicode="&#x3cc;" horiz-adv-x="576" 
d="M42 259q23 119 106 195t193 76q109 0 162.5 -76t30.5 -195q-24 -118 -107.5 -194.5t-191.5 -76.5t-162.5 77t-30.5 194zM104 259q-20 -97 20.5 -157t121.5 -60t143.5 59.5t82.5 157.5q18 99 -21 158t-121 59q-80 0 -144 -59.5t-82 -157.5zM302 606l130 139q5 5 13 5h43
q10 0 11.5 -7.5t-7.5 -15.5l-145 -134q-5 -5 -11 -5h-29q-8 0 -9.5 5.5t4.5 12.5z" />
    <glyph glyph-name="upsilontonos" unicode="&#x3cd;" horiz-adv-x="545" 
d="M77 213l35 179q9 49 3.5 64t-26.5 15q-12 0 -17 -1q-6 -1 -9.5 2.5t-2.5 9.5l2 24q0 6 5 11t11 6q16 2 30 2q49 0 65.5 -28t4.5 -97l-35 -181q-18 -91 9 -134t99 -43q146 0 182 186q28 145 -5 270q-2 7 2 13.5t12 6.5h39q9 0 11 -8q36 -130 5 -282q-22 -116 -86.5 -178
t-169.5 -62q-103 0 -144 57.5t-20 167.5zM283 606l130 139q5 5 12 5h43q10 0 11.5 -7.5t-6.5 -15.5l-145 -134q-5 -5 -12 -5h-28q-9 0 -10.5 5.5t5.5 12.5z" />
    <glyph glyph-name="omegatonos" unicode="&#x3ce;" horiz-adv-x="770" 
d="M491 -13q-129 0 -122 188q-68 -188 -195 -188q-78 0 -111 80.5t-5 224.5q25 122 69 222q6 11 17 11l34 -3q7 -1 9.5 -6.5t-0.5 -11.5q-45 -96 -66 -210q-24 -130 -6 -191.5t71 -61.5q59 0 108.5 85t90.5 290q2 14 17 14h32q13 0 11 -14q-19 -105 -24 -179.5t4 -116.5
t27 -60.5t47 -18.5q51 0 95 64.5t69 188.5q21 111 15 210q0 16 16 18l34 2q13 2 13 -10q6 -109 -17 -222q-28 -144 -91.5 -224.5t-141.5 -80.5zM410 606l130 139q5 5 13 5h43q10 0 11.5 -7.5t-7.5 -15.5l-145 -134q-5 -5 -11 -5h-29q-8 0 -9.5 5.5t4.5 12.5z" />
    <glyph glyph-name="uni0400" unicode="&#x400;" horiz-adv-x="557" 
d="M34 15l130 671q2 14 18 14h395q13 0 11 -14l-5 -27q-2 -15 -17 -15h-346l-49 -254h320q14 0 12 -14l-5 -27q-1 -6 -6.5 -10.5t-11.5 -4.5h-320l-54 -278h354q14 0 12 -14l-5 -27q-2 -15 -17 -15h-404q-14 0 -12 15zM393 919l76 -139q3 -7 -0.5 -12.5t-11.5 -5.5h-29
q-6 0 -9 5l-93 134q-6 8 -1.5 15.5t14.5 7.5h43q8 0 11 -5z" />
    <glyph glyph-name="afii10023" unicode="&#x401;" horiz-adv-x="557" 
d="M34 15l130 671q2 14 18 14h395q13 0 11 -14l-5 -27q-2 -15 -17 -15h-346l-49 -254h320q14 0 12 -14l-5 -27q-1 -6 -6.5 -10.5t-11.5 -4.5h-320l-54 -278h354q14 0 12 -14l-5 -27q-2 -15 -17 -15h-404q-14 0 -12 15zM517 896q20 0 26.5 -12t1.5 -41q-11 -53 -48 -53
q-39 0 -28 53q10 53 48 53zM315 896q20 0 26.5 -12t1.5 -41q-11 -53 -48 -53q-39 0 -28 53q10 53 48 53z" />
    <glyph glyph-name="afii10051" unicode="&#x402;" horiz-adv-x="702" 
d="M187 15l122 629h-209q-13 0 -11 15l5 27q2 14 17 14h482q13 0 11 -14l-5 -27q-2 -15 -17 -15h-209l-46 -236h124q114 0 165 -54t31 -159q-20 -98 -83.5 -152.5t-158.5 -54.5q-45 0 -74 11q-10 6 -8 14l6 34q5 18 21 11q28 -12 65 -12q67 0 109 39t57 109q15 81 -19 119.5
t-119 38.5h-127l-65 -337q-2 -15 -17 -15h-36q-13 0 -11 15z" />
    <glyph glyph-name="afii10052" unicode="&#x403;" horiz-adv-x="520" 
d="M34 15l130 671q2 14 18 14h397q13 0 11 -14l-5 -27q-2 -15 -17 -15h-348l-122 -629q-2 -15 -17 -15h-35q-14 0 -12 15zM348 780l130 139q5 5 12 5h43q10 0 11.5 -7.5t-6.5 -15.5l-145 -134q-5 -5 -12 -5h-28q-9 0 -10.5 5.5t5.5 12.5z" />
    <glyph glyph-name="afii10053" unicode="&#x404;" horiz-adv-x="603" 
d="M65 350q30 162 148 262t282 100q82 0 136 -24q8 -5 6 -15l-9 -32q-5 -20 -22 -11q-49 24 -120 24q-131 0 -223 -74.5t-127 -201.5h398q13 0 11 -14l-5 -27q-2 -15 -17 -15h-397q-18 -126 47.5 -201t196.5 -75q65 0 131 26q8 4 13.5 0t4.5 -12l-4 -30q0 -11 -11 -16
q-64 -26 -148 -26q-165 0 -244 99.5t-47 262.5z" />
    <glyph glyph-name="afii10054" unicode="&#x405;" horiz-adv-x="536" 
d="M525 674l-9 -35q-5 -18 -21 -10q-51 25 -132 25q-80 0 -130 -30.5t-61 -81.5q-10 -50 19.5 -85.5t105.5 -62.5q109 -39 149.5 -87.5t25.5 -128.5q-17 -88 -91.5 -139t-189.5 -51q-97 0 -169 41q-8 5 -5 16l10 35q5 19 21 10q69 -44 158 -44q85 0 136.5 34.5t63.5 95.5
q12 58 -22 94t-121 67q-96 33 -134 79.5t-24 123.5q16 79 89 125.5t181 46.5q83 0 143 -22q10 -4 7 -16z" />
    <glyph glyph-name="afii10055" unicode="&#x406;" horiz-adv-x="238" 
d="M186 700h36q13 0 11 -14l-130 -671q-2 -15 -17 -15h-36q-13 0 -11 15l130 671q2 14 17 14z" />
    <glyph glyph-name="afii10056" unicode="&#x407;" horiz-adv-x="238" 
d="M186 700h36q13 0 11 -14l-130 -671q-2 -15 -17 -15h-36q-13 0 -11 15l130 671q2 14 17 14zM343 896q20 0 26.5 -12t1.5 -41q-11 -53 -48 -53q-39 0 -28 53q10 53 48 53zM141 896q20 0 26.5 -12t1.5 -41q-11 -53 -48 -53q-39 0 -28 53q10 53 48 53z" />
    <glyph glyph-name="afii10057" unicode="&#x408;" horiz-adv-x="435" 
d="M281 225l90 461q2 14 17 14h35q14 0 12 -14l-90 -461q-48 -237 -248 -237q-72 0 -124 28q-8 5 -6 16l9 32q3 8 10 11t13 -1q46 -28 108 -28q140 0 174 179z" />
    <glyph glyph-name="afii10058" unicode="&#x409;" horiz-adv-x="941" 
d="M887 202q-18 -93 -91 -147.5t-182 -54.5h-177q-14 0 -12 15l123 629h-238l-96 -492q-30 -164 -191 -164q-31 0 -51 4q-6 1 -8.5 6t-0.5 11l9 29q5 15 18 13q25 -5 43 -5q51 0 79.5 28.5t40.5 94.5l101 517q2 14 17 14h337q14 0 12 -14l-55 -283h127q109 0 161 -54.5
t34 -146.5zM821 202q13 69 -24.5 107t-121.5 38h-121l-57 -291h121q84 0 136.5 38t66.5 108z" />
    <glyph glyph-name="afii10059" unicode="&#x40a;" horiz-adv-x="977" 
d="M602 404h127q108 0 160 -55t34 -147q-18 -93 -91 -147.5t-181 -54.5h-178q-13 0 -11 15l65 333h-363l-65 -333q-2 -15 -17 -15h-36q-14 0 -12 15l130 671q2 14 18 14h36q13 0 11 -14l-54 -282h363l54 282q2 14 17 14h36q13 0 11 -14zM534 56h121q84 0 136.5 38.5
t65.5 107.5q13 70 -24.5 108t-120.5 38h-121z" />
    <glyph glyph-name="afii10060" unicode="&#x40b;" horiz-adv-x="773" 
d="M187 15l122 629h-209q-13 0 -11 15l5 27q2 14 17 14h482q13 0 11 -14l-5 -27q-2 -15 -17 -15h-209l-44 -229q86 48 186 48q110 0 158 -58t27 -174l-42 -216q-2 -15 -17 -15h-31q-14 0 -12 15l42 214q33 178 -140 178q-106 0 -184 -55l-65 -337q-2 -15 -17 -15h-36
q-13 0 -11 15z" />
    <glyph glyph-name="afii10061" unicode="&#x40c;" horiz-adv-x="581" 
d="M243 373l279 -348q7 -10 2.5 -17.5t-16.5 -7.5h-38q-14 0 -21 10l-284 350l-67 -345q-2 -15 -17 -15h-35q-14 0 -12 15l130 671q2 14 18 14h35q13 0 11 -14l-58 -302l371 306q11 10 25 10h34q12 0 14 -7.5t-10 -17.5zM348 780l130 139q5 5 12 5h43q10 0 11.5 -7.5
t-6.5 -15.5l-145 -134q-5 -5 -12 -5h-28q-9 0 -10.5 5.5t5.5 12.5z" />
    <glyph glyph-name="uni040D" unicode="&#x40d;" horiz-adv-x="700" 
d="M700 686l-130 -671q-2 -15 -17 -15h-36q-14 0 -12 15l117 601l-507 -609q-6 -7 -14 -7h-56q-13 0 -11 15l130 671q2 14 17 14h36q13 0 11 -14l-117 -602l507 609q4 7 14 7h57q13 0 11 -14zM401 919l76 -139q3 -7 -0.5 -12.5t-11.5 -5.5h-29q-6 0 -9 5l-93 134
q-6 8 -1.5 15.5t14.5 7.5h43q8 0 11 -5z" />
    <glyph glyph-name="afii10062" unicode="&#x40e;" horiz-adv-x="579" 
d="M301 293l270 399q5 8 15 8h38q8 0 10.5 -6t-3.5 -14l-451 -672q-6 -8 -14 -8h-38q-9 0 -11 6.5t3 13.5l136 203l-150 456q-2 7 3 14t13 7h38q10 0 11 -7zM384 762q-63 0 -99.5 36.5t-30.5 105.5q2 15 17 15h28q14 0 12 -13q-5 -46 17.5 -70.5t65.5 -24.5q42 0 73.5 24.5
t45.5 70.5q2 13 16 13h28q7 0 10 -4.5t1 -10.5q-19 -68 -70 -105t-114 -37z" />
    <glyph glyph-name="afii10145" unicode="&#x40f;" horiz-adv-x="692" 
d="M106 56h400l122 630q2 14 18 14h35q13 0 11 -14l-130 -671q-2 -15 -17 -15h-218l-29 -150q-2 -14 -17 -14h-35q-14 0 -12 14l29 150h-217q-14 0 -12 15l130 671q2 14 18 14h35q13 0 11 -14z" />
    <glyph glyph-name="afii10017" unicode="&#x410;" horiz-adv-x="640" 
d="M375 700h52q10 0 12 -10l135 -670q5 -20 -15 -20h-41q-9 0 -12 10l-34 181h-339l-106 -181q-4 -10 -15 -10h-40q-9 0 -11.5 6t2.5 14l396 670q8 10 16 10zM387 629l-221 -382h295z" />
    <glyph glyph-name="afii10018" unicode="&#x411;" horiz-adv-x="569" 
d="M182 700h365q13 0 11 -14l-5 -27q-2 -15 -17 -15h-316l-40 -206h143q108 0 158.5 -59t32.5 -160q-20 -99 -95.5 -159t-180.5 -60h-192q-14 0 -12 15l130 671q2 14 18 14zM448 219q14 77 -21.5 120t-120.5 43h-137l-63 -326h137q85 0 136.5 43t68.5 120z" />
    <glyph glyph-name="afii10019" unicode="&#x412;" horiz-adv-x="618" 
d="M34 15l130 671q2 14 18 14h217q104 0 155 -50t36 -131q-22 -112 -123 -151q119 -37 96 -173q-18 -92 -94 -143.5t-197 -51.5h-226q-14 0 -12 15zM496 195q14 74 -29.5 107t-147.5 33h-159l-54 -279h169q195 0 221 139zM523 517q12 60 -25 93.5t-118 33.5h-160l-49 -253
h153q90 0 138.5 29.5t60.5 96.5z" />
    <glyph glyph-name="afii10020" unicode="&#x413;" horiz-adv-x="520" 
d="M34 15l130 671q2 14 18 14h397q13 0 11 -14l-5 -27q-2 -15 -17 -15h-348l-122 -629q-2 -15 -17 -15h-35q-14 0 -12 15z" />
    <glyph glyph-name="afii10021" unicode="&#x414;" horiz-adv-x="613" 
d="M547 42l-25 -128q-2 -14 -17 -14h-34q-14 0 -12 14l17 86h-452l-17 -86q-2 -14 -17 -14h-35q-14 0 -12 14l25 128q2 14 17 14h37q210 274 287 630q2 14 17 14h259q13 0 11 -14l-122 -630h61q14 0 12 -14zM97 56h313l114 588h-159q-72 -311 -268 -588z" />
    <glyph glyph-name="afii10022" unicode="&#x415;" horiz-adv-x="557" 
d="M34 15l130 671q2 14 18 14h395q13 0 11 -14l-5 -27q-2 -15 -17 -15h-346l-49 -254h320q14 0 12 -14l-5 -27q-1 -6 -6.5 -10.5t-11.5 -4.5h-320l-54 -278h354q14 0 12 -14l-5 -27q-2 -15 -17 -15h-404q-14 0 -12 15z" />
    <glyph glyph-name="afii10024" unicode="&#x416;" horiz-adv-x="794" 
d="M645 6l-210 351l-66 -342q-2 -15 -17 -15h-35q-14 0 -12 15l66 342l-345 -351q-6 -6 -12 -6h-51q-9 0 -10.5 8t5.5 16l352 349l-181 304q-5 7 0 15t15 8h45q9 0 10 -6l178 -307l58 299q2 14 18 14h35q13 0 11 -14l-58 -299l297 307q8 6 13 6h46q10 0 11.5 -7.5
t-6.5 -15.5l-298 -304l215 -349q4 -9 -0.5 -16.5t-13.5 -7.5h-49q-8 0 -11 6z" />
    <glyph glyph-name="afii10025" unicode="&#x417;" horiz-adv-x="532" 
d="M156 351l6 30q2 13 17 15q115 4 193.5 42t92.5 105q8 52 -30.5 81.5t-128.5 29.5q-82 0 -160 -30q-8 -2 -13.5 1.5t-4.5 11.5l3 31q2 13 13 15q78 29 176 29q112 0 169 -44.5t43 -119.5q-14 -69 -78 -116.5t-151 -64.5q91 -16 135.5 -65.5t29.5 -124.5q-16 -85 -99 -137
t-201 -52q-100 0 -170 27q-4 1 -6 5.5t0 8.5l9 33q8 17 22 11q67 -27 154 -27q91 0 152.5 37t73.5 96q14 74 -47.5 113t-188.5 45q-13 0 -11 14z" />
    <glyph glyph-name="afii10026" unicode="&#x418;" horiz-adv-x="700" 
d="M700 686l-130 -671q-2 -15 -17 -15h-36q-14 0 -12 15l117 601l-507 -609q-6 -7 -14 -7h-56q-13 0 -11 15l130 671q2 14 17 14h36q13 0 11 -14l-117 -602l507 609q4 7 14 7h57q13 0 11 -14z" />
    <glyph glyph-name="afii10027" unicode="&#x419;" horiz-adv-x="700" 
d="M700 686l-130 -671q-2 -15 -17 -15h-36q-14 0 -12 15l117 601l-507 -609q-6 -7 -14 -7h-56q-13 0 -11 15l130 671q2 14 17 14h36q13 0 11 -14l-117 -602l507 609q4 7 14 7h57q13 0 11 -14zM448 762q-64 0 -101 37t-29 105q0 6 5 10.5t12 4.5h28q13 0 11 -13
q-4 -46 18.5 -70.5t64.5 -24.5t73.5 24.5t45.5 70.5q5 13 17 13h28q6 0 9.5 -4.5t1.5 -10.5q-21 -69 -71 -105.5t-113 -36.5z" />
    <glyph glyph-name="afii10028" unicode="&#x41a;" horiz-adv-x="581" 
d="M243 373l279 -348q7 -10 2.5 -17.5t-16.5 -7.5h-38q-14 0 -21 10l-284 350l-67 -345q-2 -15 -17 -15h-35q-14 0 -12 15l130 671q2 14 18 14h35q13 0 11 -14l-58 -302l371 306q11 10 25 10h34q12 0 14 -7.5t-10 -17.5z" />
    <glyph glyph-name="afii10029" unicode="&#x41b;" horiz-adv-x="687" 
d="M310 644l-95 -490q-34 -166 -191 -166q-33 0 -52 5q-6 1 -8.5 6t-0.5 10l8 29q1 6 7 10t12 3q25 -5 44 -5q49 0 78.5 29.5t41.5 95.5l100 515q2 14 17 14h404q13 0 11 -14l-130 -671q-2 -15 -18 -15h-34q-14 0 -12 15l122 629h-304z" />
    <glyph glyph-name="afii10030" unicode="&#x41c;" horiz-adv-x="836" 
d="M435 240h-42q-8 0 -11 7l-169 360l-115 -592q-2 -15 -17 -15h-35q-14 0 -12 15l130 671q2 14 18 14h50q8 0 11 -6l183 -392l335 392q5 6 13 6h51q13 0 11 -14l-130 -671q-2 -15 -17 -15h-35q-14 0 -12 15l115 592l-309 -360q-4 -7 -13 -7z" />
    <glyph glyph-name="afii10031" unicode="&#x41d;" horiz-adv-x="693" 
d="M34 15l130 671q2 14 18 14h35q13 0 11 -14l-55 -285h401l55 285q2 14 18 14h35q13 0 11 -14l-130 -671q-2 -15 -17 -15h-35q-14 0 -12 15l64 330h-401l-64 -330q-2 -15 -17 -15h-35q-14 0 -12 15z" />
    <glyph glyph-name="afii10032" unicode="&#x41e;" horiz-adv-x="706" 
d="M677 350q-31 -158 -133 -260t-243 -102q-142 0 -204.5 102t-31.5 260t133 260t243 102q142 0 204.5 -102t31.5 -260zM611 350q27 137 -21.5 220.5t-159.5 83.5q-110 0 -191.5 -83.5t-107.5 -220.5q-27 -137 21.5 -220.5t159.5 -83.5q110 0 191.5 83.5t107.5 220.5z" />
    <glyph glyph-name="afii10033" unicode="&#x41f;" horiz-adv-x="693" 
d="M34 15l130 671q2 14 18 14h500q13 0 11 -14l-130 -671q-2 -15 -17 -15h-35q-14 0 -12 15l122 629h-400l-122 -629q-2 -15 -17 -15h-36q-14 0 -12 15z" />
    <glyph glyph-name="afii10034" unicode="&#x420;" horiz-adv-x="583" 
d="M590 487q-20 -102 -101.5 -158t-203.5 -56h-137l-50 -258q-2 -15 -17 -15h-36q-13 0 -11 15l130 671q2 14 17 14h187q122 0 181.5 -55.5t40.5 -157.5zM524 487q15 80 -29 118.5t-144 38.5h-131l-61 -315h131q204 0 234 158z" />
    <glyph glyph-name="afii10035" unicode="&#x421;" horiz-adv-x="603" 
d="M629 689q11 -5 8 -17l-8 -31q-6 -19 -24 -11q-49 24 -119 24q-138 0 -233 -83t-122 -221q-29 -139 36 -221.5t203 -82.5q69 0 129 25q9 4 15 1t5 -11l-4 -31q-2 -13 -15 -17q-63 -25 -144 -25q-165 0 -244 99.5t-47 262.5q30 162 148 262t282 100q79 0 134 -23z" />
    <glyph glyph-name="afii10036" unicode="&#x422;" horiz-adv-x="534" 
d="M187 15l122 629h-209q-13 0 -11 15l5 27q2 14 17 14h482q13 0 11 -14l-5 -27q-2 -15 -17 -15h-209l-122 -629q-2 -15 -17 -15h-36q-13 0 -11 15z" />
    <glyph glyph-name="afii10037" unicode="&#x423;" horiz-adv-x="579" 
d="M301 293l270 399q5 8 15 8h38q8 0 10.5 -6t-3.5 -14l-451 -672q-6 -8 -14 -8h-38q-9 0 -11 6.5t3 13.5l136 203l-150 456q-2 7 3 14t13 7h38q10 0 11 -7z" />
    <glyph glyph-name="afii10038" unicode="&#x424;" horiz-adv-x="710" 
d="M274 15l17 89q-123 9 -188.5 73.5t-43.5 172.5t111.5 173t216.5 73l17 90q2 14 18 14h35q13 0 11 -14l-17 -90q123 -9 188.5 -73.5t43.5 -172.5q-19 -106 -110.5 -172t-217.5 -74l-17 -89q-2 -15 -17 -15h-35q-14 0 -12 15zM617 350q17 86 -32.5 135.5t-144.5 53.5
l-74 -378q97 4 165 53.5t86 135.5zM125 350q-17 -85 32.5 -135t144.5 -54l74 378q-97 -4 -165 -53t-86 -136z" />
    <glyph glyph-name="afii10039" unicode="&#x425;" horiz-adv-x="655" 
d="M682 677l-310 -322l191 -332q5 -7 0 -15t-15 -8h-40q-7 0 -10 6l-174 300l-288 -300q-7 -6 -13 -6h-40q-10 0 -12 8t5 15l321 332l-184 322q-5 8 0 15.5t15 7.5h39q7 0 10 -5l167 -291l279 290q6 6 13 6h40q10 0 11.5 -7.5t-5.5 -15.5z" />
    <glyph glyph-name="afii10040" unicode="&#x426;" horiz-adv-x="698" 
d="M106 56h400l122 630q2 14 18 14h35q13 0 11 -14l-122 -629h52q13 0 11 -14l-27 -141q-2 -14 -17 -14h-35q-14 0 -12 14l19 98h-516q-13 0 -11 15l130 671q2 14 17 14h36q13 0 11 -14z" />
    <glyph glyph-name="afii10041" unicode="&#x427;" horiz-adv-x="641" 
d="M296 251q113 0 210 62l72 373q2 14 18 14h35q13 0 11 -14l-130 -671q-2 -15 -17 -15h-35q-14 0 -12 15l46 238q-102 -56 -212 -56q-106 0 -154 62.5t-26 176.5l48 250q2 14 18 14h31q13 0 11 -14l-48 -250q-18 -89 16.5 -137t117.5 -48z" />
    <glyph glyph-name="afii10042" unicode="&#x428;" horiz-adv-x="822" 
d="M106 56h233l122 630q2 14 18 14h35q13 0 11 -14l-122 -630h233l122 630q2 14 18 14h35q14 0 12 -14l-131 -671q-2 -15 -17 -15h-629q-14 0 -12 15l130 671q2 14 18 14h35q13 0 11 -14z" />
    <glyph glyph-name="afii10043" unicode="&#x429;" horiz-adv-x="828" 
d="M106 56h233l122 630q2 14 18 14h35q13 0 11 -14l-122 -630h233l122 630q2 14 18 14h35q13 0 11 -14l-122 -630h52q13 0 11 -14l-27 -140q-2 -14 -17 -14h-35q-14 0 -12 14l19 98h-645q-14 0 -12 15l130 671q2 14 18 14h35q13 0 11 -14z" />
    <glyph glyph-name="afii10044" unicode="&#x42a;" horiz-adv-x="657" 
d="M111 700h195q13 0 11 -14l-48 -247h146q108 0 159 -59.5t33 -160.5q-20 -100 -94 -159.5t-183 -59.5h-195q-14 0 -12 15l122 629h-145q-13 0 -11 15l5 27q2 14 17 14zM541 219q14 77 -22 120.5t-121 43.5h-140l-63 -327h140q85 0 137 43t69 120z" />
    <glyph glyph-name="afii10045" unicode="&#x42b;" horiz-adv-x="755" 
d="M182 700h36q13 0 11 -14l-48 -247h146q108 0 159 -59.5t33 -160.5q-20 -100 -94 -159.5t-183 -59.5h-196q-14 0 -12 15l130 671q2 14 18 14zM709 700h35q13 0 11 -14l-130 -671q-2 -15 -17 -15h-35q-14 0 -12 15l130 671q2 14 18 14zM453 219q14 77 -22 120.5t-121 43.5
h-140l-63 -327h140q85 0 137 43t69 120z" />
    <glyph glyph-name="afii10046" unicode="&#x42c;" horiz-adv-x="569" 
d="M182 700h36q13 0 11 -14l-48 -247h146q108 0 159 -59.5t33 -160.5q-20 -100 -94 -159.5t-183 -59.5h-196q-14 0 -12 15l130 671q2 14 18 14zM453 219q14 77 -22 120.5t-121 43.5h-140l-63 -327h140q85 0 137 43t69 120z" />
    <glyph glyph-name="afii10047" unicode="&#x42d;" horiz-adv-x="603" 
d="M572 350q-32 -164 -149.5 -263t-282.5 -99q-82 0 -138 26q-8 5 -6 16l9 30q7 20 22 12q55 -26 121 -26q131 0 224.5 74.5t127.5 201.5h-397q-14 0 -12 15l6 27q2 14 17 14h396q16 127 -47 201.5t-194 74.5q-72 0 -130 -24q-9 -4 -13.5 -1t-3.5 12l3 32q0 8 12 15
q65 24 145 24q163 0 242.5 -100t47.5 -262z" />
    <glyph glyph-name="afii10048" unicode="&#x42e;" horiz-adv-x="826" 
d="M182 700h35q13 0 11 -14l-60 -308h118q37 152 122 243t201 91q121 0 170.5 -100t16.5 -262q-31 -162 -118.5 -262t-208.5 -100q-117 0 -167.5 92t-25.5 242h-118l-60 -307q-2 -15 -17 -15h-35q-14 0 -12 15l130 671q2 14 18 14zM347 350q-27 -143 6.5 -223.5t126.5 -80.5
q92 0 158 81.5t92 222.5q28 141 -6 222.5t-126 81.5q-93 0 -158 -81t-93 -223z" />
    <glyph glyph-name="afii10049" unicode="&#x42f;" horiz-adv-x="600" 
d="M89 500q18 93 98.5 146.5t195.5 53.5h197q13 0 11 -14l-130 -671q-2 -15 -17 -15h-35q-14 0 -12 15l56 286h-128q-19 0 -51 2l-244 -296q-6 -7 -14 -7h-39q-9 0 -11 7t4 15l244 292q-154 41 -125 186zM155 500q-13 -69 30 -106t136 -37h142l56 287h-142q-94 0 -151 -37.5
t-71 -106.5z" />
    <glyph glyph-name="afii10065" unicode="&#x430;" horiz-adv-x="570" 
d="M390 14l7 33q-78 -59 -166 -59q-103 0 -157.5 74.5t-31.5 196.5q23 123 107 197t188 74q92 0 142 -60l6 34q5 14 17 14h32q6 0 9.5 -4t1.5 -10l-95 -490q-2 -14 -16 -14h-32q-14 0 -12 14zM250 42q90 0 158 63l60 308q-43 63 -134 63q-81 0 -145.5 -58t-84.5 -159
q-20 -102 21.5 -159.5t124.5 -57.5z" />
    <glyph glyph-name="afii10066" unicode="&#x431;" horiz-adv-x="545" 
d="M324 496q104 0 152 -67t24 -187q-23 -119 -97 -186.5t-171 -67.5q-120 0 -164.5 89.5t-13.5 246.5q39 192 156 286.5t352 118.5q6 1 10 -3.5t3 -10.5l-3 -24q-2 -15 -16 -17q-169 -15 -270.5 -72.5t-141.5 -178.5q77 73 180 73zM310 443q-102 0 -187 -88l-7 -31
q-27 -147 4.5 -214.5t121.5 -67.5q73 0 125 54.5t70 145.5q19 99 -14.5 150t-112.5 51z" />
    <glyph glyph-name="afii10067" unicode="&#x432;" horiz-adv-x="512" 
d="M187 0h-152q-13 0 -11 14l95 490q2 14 17 14h147q102 0 149 -34t34 -99q-7 -40 -37 -69.5t-77 -42.5q54 -12 79 -46t16 -82q-29 -145 -260 -145zM404 381q8 43 -25 64t-113 21h-95l-33 -171h101q146 0 165 86zM385 146q9 48 -27 72.5t-126 24.5h-104l-37 -191h99
q177 0 195 94z" />
    <glyph glyph-name="afii10068" unicode="&#x433;" horiz-adv-x="432" 
d="M446 466h-274l-88 -452q-2 -14 -17 -14h-31q-14 0 -12 14l95 490q2 14 17 14h320q13 0 11 -14l-5 -24q-2 -14 -16 -14z" />
    <glyph glyph-name="afii10069" unicode="&#x434;" horiz-adv-x="553" 
d="M486 38l-24 -124q-2 -14 -17 -14h-31q-14 0 -12 14l17 86h-398l-17 -86q-2 -14 -17 -14h-33q-13 0 -11 14l24 124q2 14 17 14h35q168 215 227 453q5 13 17 13h227q13 0 11 -14l-88 -452h62q13 0 11 -14zM87 52h266l81 414h-139q-60 -216 -208 -414z" />
    <glyph glyph-name="afii10070" unicode="&#x435;" horiz-adv-x="540" 
d="M402 75q9 4 14 1.5t4 -10.5l-3 -28q0 -11 -11 -16q-67 -34 -157 -34q-120 0 -175 74t-31 198q23 126 108.5 198t199.5 72q88 0 138.5 -39.5t38.5 -103.5q-13 -68 -90.5 -110.5t-230.5 -42.5h-105q-10 -92 29.5 -142t129.5 -50q82 0 141 33zM113 287h89q245 0 262 99
q8 41 -28.5 65.5t-97.5 24.5q-76 0 -138 -49t-87 -140z" />
    <glyph glyph-name="afii10072" unicode="&#x436;" horiz-adv-x="698" 
d="M-32 24l270 246l-158 225q-6 7 -1.5 15t14.5 8h46q7 0 10 -4l161 -232l43 222q2 14 17 14h31q14 0 12 -14l-43 -222l251 232q4 4 12 4h46q10 0 11 -8t-7 -15l-247 -225l175 -246q5 -8 1 -16t-14 -8h-46q-6 0 -9 5l-178 252l-47 -243q-2 -14 -17 -14h-32q-13 0 -11 14
l47 243l-276 -252q-7 -5 -11 -5h-46q-10 0 -11 8t7 16z" />
    <glyph glyph-name="afii10073" unicode="&#x437;" horiz-adv-x="472" 
d="M126 262l5 24q2 14 16 14q222 5 240 95q8 41 -26 61.5t-112 20.5q-75 0 -141 -19q-7 -3 -11.5 1t-4.5 11l3 27q1 11 14 16q68 17 153 17q107 0 153.5 -34.5t34.5 -100.5q-19 -100 -169 -124q141 -36 122 -140q-14 -72 -82 -107.5t-176 -35.5q-86 0 -148 22q-11 2 -6 15
l8 27q7 16 21 11q69 -22 133 -22q171 0 188 93q10 51 -43 81t-161 32q-13 0 -11 15z" />
    <glyph glyph-name="afii10074" unicode="&#x438;" horiz-adv-x="594" 
d="M457 0h-33q-14 0 -12 14l80 415l-398 -423q-6 -6 -13 -6h-45q-14 0 -12 14l95 490q2 14 17 14h35q13 0 11 -14l-81 -416l400 425q5 5 12 5h45q13 0 11 -14l-95 -490q-2 -14 -17 -14z" />
    <glyph glyph-name="afii10075" unicode="&#x439;" horiz-adv-x="594" 
d="M457 0h-33q-14 0 -12 14l80 415l-398 -423q-6 -6 -13 -6h-45q-14 0 -12 14l95 490q2 14 17 14h35q13 0 11 -14l-81 -416l400 425q5 5 12 5h45q13 0 11 -14l-95 -490q-2 -14 -17 -14zM361 588q-64 0 -101 37t-29 105q0 6 5 10.5t12 4.5h28q13 0 11 -13q-4 -46 18.5 -70.5
t64.5 -24.5q43 0 75 24.5t44 70.5q5 13 17 13h28q6 0 9.5 -4.5t1.5 -10.5q-21 -69 -71 -105.5t-113 -36.5z" />
    <glyph glyph-name="afii10076" unicode="&#x43a;" horiz-adv-x="497" 
d="M354 5l-223 254l-47 -245q-2 -14 -17 -14h-32q-13 0 -11 14l95 490q2 14 17 14h32q13 0 11 -14l-44 -224l295 232q9 6 18 6h37q7 0 10 -4t1 -10t-8 -11l-286 -223l216 -246q6 -7 1 -15.5t-14 -8.5h-41q-5 0 -10 5z" />
    <glyph glyph-name="afii10077" unicode="&#x43b;" horiz-adv-x="580" 
d="M270 466l-53 -273q-22 -112 -64.5 -158.5t-128.5 -46.5q-33 0 -53 4q-12 3 -8 16l8 28q6 12 19 10q17 -4 42 -4q55 0 81.5 29.5t38.5 98.5l65 334q5 14 17 14h309q6 0 9.5 -4t1.5 -10l-95 -490q-2 -14 -17 -14h-31q-14 0 -12 14l88 452h-217z" />
    <glyph glyph-name="afii10078" unicode="&#x43c;" horiz-adv-x="687" 
d="M338 172h-24q-8 0 -10 6l-141 245l-79 -409q-2 -14 -17 -14h-32q-13 0 -11 14l95 490q2 14 17 14h39q7 0 10 -5l154 -278l261 278q5 5 12 5h39q13 0 11 -14l-95 -490q-2 -14 -17 -14h-32q-13 0 -11 14l79 409l-235 -245q-5 -6 -13 -6z" />
    <glyph glyph-name="afii10079" unicode="&#x43d;" horiz-adv-x="576" 
d="M141 308h312l38 196q2 14 17 14h31q14 0 12 -14l-95 -490q-2 -14 -17 -14h-32q-13 0 -11 14l47 242h-312l-47 -242q-2 -14 -17 -14h-32q-13 0 -11 14l95 490q2 14 17 14h32q13 0 11 -14z" />
    <glyph glyph-name="afii10080" unicode="&#x43e;" horiz-adv-x="576" 
d="M42 259q23 119 106 195t193 76q109 0 162.5 -76t30.5 -195q-24 -118 -107.5 -194.5t-191.5 -76.5t-162.5 77t-30.5 194zM104 259q-20 -97 20.5 -157t121.5 -60t143.5 59.5t82.5 157.5q18 99 -21 158t-121 59q-80 0 -144 -59.5t-82 -157.5z" />
    <glyph glyph-name="afii10081" unicode="&#x43f;" horiz-adv-x="559" 
d="M467 466h-295l-88 -452q-2 -14 -17 -14h-31q-14 0 -12 14l95 490q2 14 17 14h387q13 0 11 -14l-95 -490q-2 -14 -17 -14h-32q-13 0 -11 14z" />
    <glyph glyph-name="afii10082" unicode="&#x440;" horiz-adv-x="570" 
d="M338 530q103 0 157.5 -73.5t31.5 -197.5q-23 -122 -107 -196.5t-187 -74.5q-90 0 -143 60l-44 -227q-1 -6 -6.5 -10.5t-11.5 -4.5h-31q-14 0 -12 15l133 683q5 14 18 14h31q6 0 9.5 -4t1.5 -10l-6 -33q74 59 166 59zM319 476q-92 0 -158 -63l-60 -308q41 -63 134 -63
q81 0 145.5 58t84.5 159t-22 159t-124 58z" />
    <glyph glyph-name="afii10083" unicode="&#x441;" horiz-adv-x="499" 
d="M42 259q24 122 115.5 196.5t210.5 74.5q72 0 127 -23q10 -4 7 -15l-9 -30q-7 -18 -22 -10q-45 24 -113 24q-93 0 -164 -58t-90 -159q-19 -100 29.5 -158.5t143.5 -58.5q63 0 125 27q8 4 13 0.5t4 -11.5l-2 -27q-1 -11 -13 -16q-65 -27 -138 -27q-123 0 -185.5 74
t-38.5 197z" />
    <glyph glyph-name="afii10084" unicode="&#x442;" horiz-adv-x="473" 
d="M157 14l88 452h-180q-13 0 -11 14l4 24q5 14 17 14h421q6 0 9.5 -4t1.5 -10l-4 -24q-2 -14 -17 -14h-181l-88 -452q-2 -14 -16 -14h-32q-14 0 -12 14z" />
    <glyph glyph-name="afii10085" unicode="&#x443;" horiz-adv-x="526" 
d="M229 75l255 434q4 9 15 9h38q9 0 11.5 -5.5t-2.5 -12.5l-407 -684q-5 -9 -15 -9h-35q-9 0 -11.5 5.5t1.5 12.5l104 175l-113 498q-2 8 3 14t14 6h37q9 0 11 -8z" />
    <glyph glyph-name="afii10086" unicode="&#x444;" horiz-adv-x="892" 
d="M436 49l-45 -228q-2 -15 -17 -15h-31q-14 0 -12 15l45 228q-73 -61 -160 -61q-98 0 -148 73.5t-26 197.5q26 124 103.5 197.5t176.5 73.5q87 0 135 -62l48 248q2 14 17 14h32q13 0 11 -14l-48 -248q71 62 161 62q98 0 148 -73.5t24 -197.5q-23 -123 -101.5 -197
t-175.5 -74q-92 0 -137 61zM387 107l59 303q-39 66 -127 66q-75 0 -135 -58t-80 -159t17.5 -159t112.5 -58q90 0 153 65zM506 410l-59 -303q38 -65 127 -65q75 0 134.5 58t79.5 159t-17 159t-112 58q-89 0 -153 -66z" />
    <glyph glyph-name="afii10087" unicode="&#x445;" horiz-adv-x="503" 
d="M355 6l-123 214l-204 -214q-6 -6 -13 -6h-38q-10 0 -11.5 7.5t5.5 15.5l234 244l-129 229q-4 7 1 14.5t14 7.5h37q7 0 10 -5l113 -199l191 200q4 4 12 4h36q10 0 12 -7.5t-5 -14.5l-220 -229l139 -244q5 -7 0.5 -15t-14.5 -8h-37q-9 0 -10 6z" />
    <glyph glyph-name="afii10088" unicode="&#x446;" horiz-adv-x="572" 
d="M91 52h295l88 452q2 14 17 14h32q13 0 11 -14l-88 -452h49q13 0 11 -14l-24 -128q-5 -14 -18 -14h-31q-6 0 -9.5 4t-1.5 10l17 90h-404q-13 0 -11 14l95 490q2 14 17 14h32q13 0 11 -14z" />
    <glyph glyph-name="afii10089" unicode="&#x447;" horiz-adv-x="533" 
d="M252 228q85 0 152 51l44 225q2 14 17 14h32q13 0 11 -14l-95 -490q-2 -14 -17 -14h-32q-13 0 -11 14l40 205q-75 -45 -158 -45q-90 0 -131 57.5t-23 156.5l23 116q2 14 17 14h32q13 0 11 -14l-23 -116q-14 -76 14.5 -118t96.5 -42z" />
    <glyph glyph-name="afii10090" unicode="&#x448;" horiz-adv-x="688" 
d="M333 52h182l88 452q2 14 17 14h32q13 0 11 -14l-95 -490q-2 -14 -17 -14h-516q-13 0 -11 14l95 490q2 14 17 14h32q13 0 11 -14l-88 -452h182l88 452q2 14 17 14h32q13 0 11 -14z" />
    <glyph glyph-name="afii10091" unicode="&#x449;" horiz-adv-x="700" 
d="M333 52h182l88 452q2 14 17 14h32q13 0 11 -14l-88 -452h48q13 0 11 -14l-24 -128q-5 -14 -18 -14h-31q-6 0 -9.5 4t-1.5 10l17 90h-532q-13 0 -11 14l95 490q2 14 17 14h32q13 0 11 -14l-88 -452h182l88 452q2 14 17 14h32q13 0 11 -14z" />
    <glyph glyph-name="afii10092" unicode="&#x44a;" horiz-adv-x="610" 
d="M559 168q-31 -168 -288 -168h-154q-14 0 -12 14l88 452h-132q-13 0 -11 14l4 24q5 14 17 14h178q6 0 9.5 -4t1.5 -10l-32 -167h109q255 0 222 -169zM497 168q12 59 -28 88t-142 29h-109l-45 -233h109q194 0 215 116z" />
    <glyph glyph-name="afii10093" unicode="&#x44b;" horiz-adv-x="708" 
d="M528 14l95 490q2 14 17 14h32q13 0 11 -14l-95 -490q-2 -14 -17 -14h-31q-14 0 -12 14zM136 518h31q14 0 12 -14l-32 -167h108q128 0 183.5 -42t39.5 -127q-34 -168 -289 -168h-154q-13 0 -11 14l95 490q2 14 17 14zM416 168q10 60 -29 88.5t-142 28.5h-109l-45 -233h109
q102 0 153 28.5t63 87.5z" />
    <glyph glyph-name="afii10094" unicode="&#x44c;" horiz-adv-x="528" 
d="M136 518h31q14 0 12 -14l-32 -167h108q128 0 183.5 -42t39.5 -127q-34 -168 -289 -168h-154q-13 0 -11 14l95 490q2 14 17 14zM416 168q10 60 -29 88.5t-142 28.5h-109l-45 -233h109q102 0 153 28.5t63 87.5z" />
    <glyph glyph-name="afii10095" unicode="&#x44d;" horiz-adv-x="499" 
d="M455 259q-24 -123 -114.5 -197t-214.5 -74q-73 0 -129 27q-8 6 -6 15l9 28q7 19 22 11q49 -27 115 -27q88 0 156 51t94 140h-298q-14 0 -12 14l5 24q2 14 17 14h298q8 90 -39.5 140.5t-132.5 50.5q-68 0 -123 -24q-9 -4 -14 0t-4 13l3 27q0 9 11 14q61 24 138 24
q119 0 181 -74.5t38 -196.5z" />
    <glyph glyph-name="afii10096" unicode="&#x44e;" horiz-adv-x="695" 
d="M24 14l95 490q2 14 17 14h32q13 0 11 -14l-43 -219h77q28 109 102 176.5t168 67.5q99 0 146 -75t23 -195q-22 -119 -99 -194.5t-175 -75.5q-96 0 -142.5 66.5t-32.5 177.5h-77l-42 -219q-2 -14 -17 -14h-31q-14 0 -12 14zM270 259q-19 -98 13.5 -158t104.5 -60
q71 0 127 60t75 158t-13.5 158t-103.5 60q-72 0 -128 -59.5t-75 -158.5z" />
    <glyph glyph-name="afii10097" unicode="&#x44f;" horiz-adv-x="529" 
d="M378 209h-116q-10 0 -30 2t-25 2l-175 -207q-4 -6 -13 -6h-43q-9 0 -10.5 7.5t5.5 14.5l173 202q-96 36 -77 139q14 72 75 113.5t154 41.5h188q6 0 9.5 -4t1.5 -10l-95 -490q-2 -14 -16 -14h-32q-14 0 -12 14zM248 261h140l40 205h-140q-137 0 -159 -103q-9 -48 19 -75
t100 -27z" />
    <glyph glyph-name="uni0450" unicode="&#x450;" horiz-adv-x="540" 
d="M402 75q9 4 14 1.5t4 -10.5l-3 -28q0 -11 -11 -16q-67 -34 -157 -34q-120 0 -175 74t-31 198q23 126 108.5 198t199.5 72q88 0 138.5 -39.5t38.5 -103.5q-13 -68 -90.5 -110.5t-230.5 -42.5h-105q-10 -92 29.5 -142t129.5 -50q82 0 141 33zM113 287h89q245 0 262 99
q8 41 -28.5 65.5t-97.5 24.5q-76 0 -138 -49t-87 -140zM322 745l76 -139q3 -7 -0.5 -12.5t-11.5 -5.5h-29q-6 0 -9 5l-93 134q-6 8 -1.5 15.5t14.5 7.5h43q8 0 11 -5z" />
    <glyph glyph-name="afii10071" unicode="&#x451;" horiz-adv-x="540" 
d="M402 75q9 4 14 1.5t4 -10.5l-3 -28q0 -11 -11 -16q-67 -34 -157 -34q-120 0 -175 74t-31 198q23 126 108.5 198t199.5 72q88 0 138.5 -39.5t38.5 -103.5q-13 -68 -90.5 -110.5t-230.5 -42.5h-105q-10 -92 29.5 -142t129.5 -50q82 0 141 33zM113 287h89q245 0 262 99
q8 41 -28.5 65.5t-97.5 24.5q-76 0 -138 -49t-87 -140zM470 722q21 0 27.5 -12t0.5 -41q-10 -53 -48 -53t-28 53q11 53 48 53zM268 722q21 0 27.5 -12t0.5 -41q-10 -53 -48 -53t-28 53q11 53 48 53z" />
    <glyph glyph-name="afii10099" unicode="&#x452;" horiz-adv-x="577" 
d="M331 476q-44 0 -88.5 -17.5t-76.5 -49.5l-77 -395q-2 -14 -17 -14h-31q-14 0 -12 14l114 587h-56q-13 0 -11 15l4 23q2 14 17 14h56l12 63q2 14 17 14h31q14 0 12 -14l-12 -63h191q14 0 12 -14l-4 -23q-1 -6 -6.5 -10.5t-11.5 -4.5h-191l-26 -133q78 62 173 62
q101 0 145 -59.5t22 -170.5l-61 -313q-20 -101 -61.5 -144t-114.5 -43q-33 0 -58 7q-10 1 -8 14l8 27q5 14 20 12q22 -6 47 -6q43 0 67.5 28.5t38.5 96.5l62 319q34 178 -126 178z" />
    <glyph glyph-name="afii10100" unicode="&#x453;" horiz-adv-x="432" 
d="M446 466h-274l-88 -452q-2 -14 -17 -14h-31q-14 0 -12 14l95 490q2 14 17 14h320q13 0 11 -14l-5 -24q-2 -14 -16 -14zM254 606l130 139q5 5 12 5h43q10 0 11.5 -7.5t-6.5 -15.5l-145 -134q-5 -5 -12 -5h-28q-9 0 -10.5 5.5t5.5 12.5z" />
    <glyph glyph-name="afii10101" unicode="&#x454;" horiz-adv-x="498" 
d="M42 259q24 122 115.5 196.5t210.5 74.5q74 0 128 -24q8 -5 6 -14l-9 -27q-2 -9 -8.5 -13t-13.5 0q-45 24 -113 24q-86 0 -153.5 -50.5t-93.5 -140.5h298q14 0 12 -14l-5 -24q-2 -14 -17 -14h-298q-10 -89 38.5 -140t137.5 -51q63 0 125 27q8 4 13 0.5t4 -11.5l-2 -28
q-2 -9 -12 -15q-64 -27 -139 -27q-123 0 -185.5 74t-38.5 197z" />
    <glyph glyph-name="afii10102" unicode="&#x455;" horiz-adv-x="457" 
d="M391 450q-49 26 -116 26q-58 0 -94 -21t-43 -58q-7 -36 18.5 -61.5t89.5 -43.5q85 -25 118 -63t21 -93q-14 -71 -73.5 -109.5t-152.5 -38.5q-88 0 -149 39q-7 4 -5 17l8 28q2 9 10 12t14 -2q55 -40 131 -40q66 0 106.5 24.5t48.5 67.5q8 38 -18.5 63.5t-96.5 45.5
q-155 41 -132 152q12 63 69.5 99t140.5 36q81 0 131 -25q9 -7 6 -17l-9 -29q-2 -8 -9 -10.5t-14 1.5z" />
    <glyph glyph-name="afii10103" unicode="&#x456;" horiz-adv-x="230" 
d="M192 504l-95 -490q-2 -14 -17 -14h-32q-13 0 -11 14l95 490q2 14 17 14h32q13 0 11 -14zM206 730q38 0 28 -53q-11 -53 -49 -53t-27 53q5 29 16 41t32 12z" />
    <glyph glyph-name="afii10104" unicode="&#x457;" horiz-adv-x="230" 
d="M192 504l-95 -490q-2 -14 -17 -14h-32q-13 0 -11 14l95 490q2 14 17 14h32q13 0 11 -14zM305 722q21 0 27.5 -12t0.5 -41q-10 -53 -48 -53t-28 53q11 53 48 53zM103 722q21 0 27.5 -12t0.5 -41q-10 -53 -48 -53t-28 53q11 53 48 53z" />
    <glyph glyph-name="afii10105" unicode="&#x458;" horiz-adv-x="225" 
d="M149 518h32q13 0 11 -14l-104 -535q-18 -89 -61.5 -129t-117.5 -40q-27 0 -43 5q-12 3 -8 15l8 28q5 14 19 9q11 -4 31 -4q46 0 73 27t38 86l105 538q2 14 17 14zM206 730q38 0 28 -53q-11 -53 -49 -53t-27 53q5 29 16 41t32 12z" />
    <glyph glyph-name="afii10106" unicode="&#x459;" horiz-adv-x="802" 
d="M267 466l-53 -273q-22 -112 -65 -158.5t-129 -46.5q-31 0 -52 4q-14 2 -9 16l8 26q5 14 20 12q17 -4 41 -4q55 0 80.5 29t40.5 99l65 334q2 14 17 14h273q13 0 11 -14l-35 -181h54q126 0 179 -39t37 -123q-31 -161 -279 -161h-100q-13 0 -11 14l88 452h-181zM471 271
l-43 -219h55q97 0 146 27t59 82q11 57 -27.5 83.5t-134.5 26.5h-55z" />
    <glyph glyph-name="afii10107" unicode="&#x45a;" horiz-adv-x="786" 
d="M453 518h35q13 0 11 -14l-35 -181h52q126 0 180 -39.5t38 -122.5q-31 -161 -280 -161h-101q-14 0 -12 14l48 250h-255l-48 -250q-2 -14 -17 -14h-33q-14 0 -12 14l95 490q2 14 17 14h34q13 0 11 -14l-37 -188h255l37 188q2 14 17 14zM453 270l-42 -218h55q97 0 146 27
t59 82q12 57 -26.5 83t-136.5 26h-55z" />
    <glyph glyph-name="afii10108" unicode="&#x45b;" horiz-adv-x="577" 
d="M331 476q-95 0 -165 -67l-77 -395q-2 -14 -17 -14h-32q-13 0 -11 14l114 587h-56q-13 0 -11 15l4 23q2 14 17 14h56l12 63q2 14 17 14h32q13 0 11 -14l-12 -63h191q14 0 12 -14l-4 -23q-1 -6 -6.5 -10.5t-11.5 -4.5h-191l-26 -133q78 62 173 62q101 0 145 -59.5
t22 -170.5l-55 -286q-2 -14 -17 -14h-32q-13 0 -11 14l55 284q34 178 -126 178z" />
    <glyph glyph-name="afii10109" unicode="&#x45c;" horiz-adv-x="497" 
d="M202 270l215 -245q8 -9 3.5 -17t-16.5 -8h-34q-11 0 -21 10l-218 249l-47 -245q-2 -14 -17 -14h-32q-13 0 -11 14l95 490q2 14 17 14h31q14 0 12 -14l-44 -224l290 228q11 10 25 10h34q12 0 14 -8t-10 -17zM281 606l130 139q5 5 12 5h43q10 0 11.5 -7.5t-6.5 -15.5
l-145 -134q-5 -5 -12 -5h-28q-9 0 -10.5 5.5t5.5 12.5z" />
    <glyph glyph-name="uni045D" unicode="&#x45d;" horiz-adv-x="594" 
d="M457 0h-33q-14 0 -12 14l80 415l-398 -423q-6 -6 -13 -6h-45q-14 0 -12 14l95 490q2 14 17 14h35q13 0 11 -14l-81 -416l400 425q5 5 12 5h45q13 0 11 -14l-95 -490q-2 -14 -17 -14zM328 745l76 -139q3 -7 -0.5 -12.5t-11.5 -5.5h-29q-6 0 -9 5l-93 134q-6 8 -1.5 15.5
t14.5 7.5h43q8 0 11 -5z" />
    <glyph glyph-name="afii10110" unicode="&#x45e;" horiz-adv-x="526" 
d="M229 75l255 434q4 9 15 9h38q9 0 11.5 -5.5t-2.5 -12.5l-407 -684q-5 -9 -15 -9h-35q-9 0 -11.5 5.5t1.5 12.5l104 175l-113 498q-2 8 3 14t14 6h37q9 0 11 -8zM320 588q-63 0 -99.5 36.5t-30.5 105.5q2 15 17 15h28q14 0 12 -13q-4 -46 18 -70.5t65 -24.5
q42 0 73.5 24.5t45.5 70.5q2 13 16 13h28q7 0 10 -4.5t1 -10.5q-19 -68 -70 -105t-114 -37z" />
    <glyph glyph-name="afii10193" unicode="&#x45f;" horiz-adv-x="559" 
d="M91 52h295l88 452q2 14 17 14h32q13 0 11 -14l-95 -490q-2 -14 -17 -14h-163l-17 -90q-5 -14 -18 -14h-32q-6 0 -9.5 4t-1.5 10l17 90h-162q-14 0 -12 14l95 490q2 14 17 14h32q13 0 11 -14z" />
    <glyph glyph-name="afii10050" unicode="&#x490;" horiz-adv-x="520" 
d="M34 15l130 671q2 14 18 14h347l21 109q2 14 17 14h36q13 0 11 -14l-29 -150q-2 -15 -17 -15h-348l-122 -629q-2 -15 -17 -15h-35q-14 0 -12 15z" />
    <glyph glyph-name="afii10098" unicode="&#x491;" horiz-adv-x="430" 
d="M444 466h-272l-88 -452q-2 -14 -17 -14h-31q-14 0 -12 14l95 490q2 14 17 14h272l23 118q2 14 16 14h32q14 0 12 -14l-31 -156q-2 -14 -16 -14z" />
    <glyph glyph-name="Wgrave" unicode="&#x1e80;" horiz-adv-x="986" 
d="M552 700h53q9 0 11 -11l48 -601l312 602q6 10 16 10h39q8 0 10.5 -5.5t-1.5 -12.5l-351 -672q-4 -10 -15 -10h-53q-10 0 -12 11l-49 596l-279 -596q-6 -11 -16 -11h-52q-12 0 -13 10l-90 672q-1 7 3.5 12.5t12.5 5.5h39q11 0 12 -10l78 -603l282 603q4 10 15 10zM539 919
l76 -139q4 -7 0.5 -12.5t-12.5 -5.5h-28q-5 0 -10 5l-93 134q-5 8 -0.5 15.5t14.5 7.5h43q7 0 10 -5z" />
    <glyph glyph-name="wgrave" unicode="&#x1e81;" horiz-adv-x="780" 
d="M420 518h39q4 0 7.5 -3t3.5 -7l49 -422l220 422q6 10 15 10h38q19 0 10 -19l-263 -489q-8 -10 -15 -10h-41q-10 0 -12 10l-50 412l-212 -412q-6 -10 -15 -10h-41q-4 0 -7.5 3t-3.5 7l-73 489q-2 19 17 19h38q10 0 12 -11l55 -421l213 422q6 10 16 10zM401 745l76 -139
q4 -7 0.5 -12.5t-12.5 -5.5h-28q-5 0 -10 5l-93 134q-5 8 -0.5 15.5t14.5 7.5h43q7 0 10 -5z" />
    <glyph glyph-name="Wacute" unicode="&#x1e82;" horiz-adv-x="986" 
d="M552 700h53q9 0 11 -11l48 -601l312 602q6 10 16 10h39q8 0 10.5 -5.5t-1.5 -12.5l-351 -672q-4 -10 -15 -10h-53q-10 0 -12 11l-49 596l-279 -596q-6 -11 -16 -11h-52q-12 0 -13 10l-90 672q-1 7 3.5 12.5t12.5 5.5h39q11 0 12 -10l78 -603l282 603q4 10 15 10zM569 780
l130 139q5 5 13 5h43q10 0 11.5 -7.5t-7.5 -15.5l-145 -134q-5 -5 -11 -5h-29q-8 0 -9.5 5.5t4.5 12.5z" />
    <glyph glyph-name="wacute" unicode="&#x1e83;" horiz-adv-x="780" 
d="M420 518h39q4 0 7.5 -3t3.5 -7l49 -422l220 422q6 10 15 10h38q19 0 10 -19l-263 -489q-8 -10 -15 -10h-41q-10 0 -12 10l-50 412l-212 -412q-6 -10 -15 -10h-41q-4 0 -7.5 3t-3.5 7l-73 489q-2 19 17 19h38q10 0 12 -11l55 -421l213 422q6 10 16 10zM436 606l130 139
q5 5 13 5h43q10 0 11.5 -7.5t-7.5 -15.5l-145 -134q-5 -5 -11 -5h-29q-8 0 -9.5 5.5t4.5 12.5z" />
    <glyph glyph-name="Wdieresis" unicode="&#x1e84;" horiz-adv-x="986" 
d="M552 700h53q9 0 11 -11l48 -601l312 602q6 10 16 10h39q8 0 10.5 -5.5t-1.5 -12.5l-351 -672q-4 -10 -15 -10h-53q-10 0 -12 11l-49 596l-279 -596q-6 -11 -16 -11h-52q-12 0 -13 10l-90 672q-1 7 3.5 12.5t12.5 5.5h39q11 0 12 -10l78 -603l282 603q4 10 15 10zM718 896
q38 0 27 -53q-10 -53 -48 -53t-28 53q6 29 17.5 41t31.5 12zM516 896q38 0 27 -53q-10 -53 -48 -53t-28 53q6 29 17.5 41t31.5 12z" />
    <glyph glyph-name="wdieresis" unicode="&#x1e85;" horiz-adv-x="780" 
d="M420 518h39q4 0 7.5 -3t3.5 -7l49 -422l220 422q6 10 15 10h38q19 0 10 -19l-263 -489q-8 -10 -15 -10h-41q-10 0 -12 10l-50 412l-212 -412q-6 -10 -15 -10h-41q-4 0 -7.5 3t-3.5 7l-73 489q-2 19 17 19h38q10 0 12 -11l55 -421l213 422q6 10 16 10zM580 722
q38 0 28 -53q-11 -53 -49 -53t-27 53q5 29 16 41t32 12zM378 722q38 0 28 -53q-11 -53 -49 -53t-27 53q5 29 16 41t32 12z" />
    <glyph glyph-name="Ygrave" unicode="&#x1ef2;" horiz-adv-x="654" 
d="M178 694l159 -355l298 355q5 6 14 6h38q9 0 11 -7.5t-5 -15.5l-335 -399l-52 -263q-2 -15 -16 -15h-36q-14 0 -12 15l52 263l-181 400q-4 7 1 14.5t14 7.5h39q7 0 11 -6zM391 919l76 -139q4 -7 0.5 -12.5t-12.5 -5.5h-28q-5 0 -10 5l-93 134q-5 8 -0.5 15.5t14.5 7.5h43
q7 0 10 -5z" />
    <glyph glyph-name="ygrave" unicode="&#x1ef3;" horiz-adv-x="526" 
d="M229 75l255 434q4 9 15 9h38q9 0 11.5 -5.5t-2.5 -12.5l-407 -684q-5 -9 -15 -9h-35q-9 0 -11.5 5.5t1.5 12.5l104 175l-113 498q-2 8 3 14t14 6h37q9 0 11 -8zM286 745l76 -139q4 -7 0.5 -12.5t-12.5 -5.5h-28q-5 0 -10 5l-93 134q-5 8 -0.5 15.5t14.5 7.5h43q7 0 10 -5
z" />
    <glyph glyph-name="uni2010" unicode="&#x2010;" horiz-adv-x="399" 
d="M331 304h-247q-13 0 -11 14l5 28q2 14 17 14h246q14 0 12 -14l-5 -28q-2 -14 -17 -14z" />
    <glyph glyph-name="figuredash" unicode="&#x2012;" horiz-adv-x="584" 
d="M538 304h-476q-13 0 -11 14l5 28q2 14 17 14h476q13 0 11 -14l-5 -28q-2 -14 -17 -14z" />
    <glyph glyph-name="endash" unicode="&#x2013;" horiz-adv-x="500" 
d="M494 304h-472q-13 0 -11 14l5 28q2 14 17 14h472q13 0 11 -14l-5 -28q-2 -14 -17 -14z" />
    <glyph glyph-name="emdash" unicode="&#x2014;" 
d="M994 304h-972q-13 0 -11 14l5 28q2 14 17 14h972q13 0 11 -14l-5 -28q-2 -14 -17 -14z" />
    <glyph glyph-name="afii00208" unicode="&#x2015;" 
d="M894 304h-771q-14 0 -12 14l5 28q2 14 17 14h772q13 0 11 -14l-5 -28q-2 -14 -17 -14z" />
    <glyph glyph-name="uni2016" unicode="&#x2016;" horiz-adv-x="408" 
d="M28 -116l165 851q2 14 18 14h26q13 0 11 -14l-165 -851q-2 -14 -17 -14h-26q-14 0 -12 14zM177 -116l165 851q2 14 17 14h27q13 0 11 -14l-165 -851q-2 -14 -17 -14h-27q-13 0 -11 14z" />
    <glyph glyph-name="underscoredbl" unicode="&#x2017;" horiz-adv-x="604" 
d="M-34 -176l4 17q2 15 17 15h472q13 0 11 -15l-3 -17q-2 -14 -17 -14h-472q-14 0 -12 14zM-13 -72l3 17q2 15 17 15h472q13 0 11 -15l-3 -17q-2 -14 -17 -14h-472q-6 0 -9.5 4t-1.5 10z" />
    <glyph glyph-name="quoteleft" unicode="&#x2018;" horiz-adv-x="292" 
d="M169 600q19 103 88 161q8 6 13 -1l6 -11q3 -5 -5 -13q-33 -35 -45 -81q40 -1 29 -55q-11 -57 -54 -57t-32 57z" />
    <glyph glyph-name="quoteright" unicode="&#x2019;" horiz-adv-x="292" 
d="M276 711q-20 -105 -89 -161q-7 -7 -12 1l-6 10q-3 4 5 14q33 38 45 80q-41 1 -29 56q11 56 54 56t32 -56z" />
    <glyph glyph-name="quotesinglbase" unicode="&#x201a;" horiz-adv-x="292" 
d="M146 44q-11 -56 -30 -92.5t-58 -69.5q-8 -6 -13 1l-6 11q-2 7 6 13q34 40 45 81q-41 1 -30 56q6 30 19 43t36 13q42 0 31 -56z" />
    <glyph glyph-name="quotereversed" unicode="&#x201b;" horiz-adv-x="240" 
d="M164 711q11 56 53 56q23 0 31 -13t2 -43q-6 -29 -17.5 -42t-33.5 -14q-6 -44 14 -80q5 -8 0 -14l-10 -10q-8 -8 -14 -1q-26 32 -31 70.5t6 90.5z" />
    <glyph glyph-name="quotedblleft" unicode="&#x201c;" horiz-adv-x="426" 
d="M169 600q19 103 88 161q8 6 13 -1l6 -11q3 -5 -5 -13q-33 -35 -45 -81q40 -1 29 -55q-11 -57 -54 -57t-32 57zM303 600q19 103 88 161q8 6 13 -1l6 -11q3 -5 -5 -13q-33 -35 -45 -81q40 -1 29 -55q-11 -57 -54 -57t-32 57z" />
    <glyph glyph-name="quotedblright" unicode="&#x201d;" horiz-adv-x="426" 
d="M276 711q-20 -105 -89 -161q-7 -7 -12 1l-6 10q-3 4 5 14q33 38 45 80q-41 1 -29 56q11 56 54 56t32 -56zM410 711q-20 -105 -89 -161q-7 -7 -12 1l-6 10q-3 4 5 14q33 38 45 80q-41 1 -29 56q11 56 54 56t32 -56z" />
    <glyph glyph-name="quotedblbase" unicode="&#x201e;" horiz-adv-x="426" 
d="M146 44q-11 -56 -30 -92.5t-58 -69.5q-8 -6 -13 1l-6 11q-2 7 6 13q34 40 45 81q-41 1 -30 56q6 30 19 43t36 13q42 0 31 -56zM280 44q-11 -56 -30 -92.5t-58 -69.5q-8 -6 -13 1l-6 11q-2 5 6 13q34 40 45 81q-41 1 -30 56q6 30 19 43t36 13q42 0 31 -56z" />
    <glyph glyph-name="uni201F" unicode="&#x201f;" horiz-adv-x="374" 
d="M164 711q11 56 53 56q23 0 31 -13t2 -43q-6 -29 -17.5 -42t-33.5 -14q-6 -44 14 -80q5 -8 0 -14l-10 -10q-8 -8 -14 -1q-26 32 -31 70.5t6 90.5zM298 711q11 56 53 56q23 0 31 -13t2 -43q-6 -29 -17.5 -42t-33.5 -14q-5 -44 14 -80q5 -8 0 -14l-10 -10q-8 -8 -14 -1
q-26 32 -31 70.5t6 90.5z" />
    <glyph glyph-name="dagger" unicode="&#x2020;" horiz-adv-x="584" 
d="M558 552l-5 -24q-2 -15 -17 -15h-165l-122 -630q-2 -14 -17 -14h-34q-13 0 -11 14l122 630h-165q-13 0 -11 15l5 24q2 14 17 14h165l32 168q2 14 17 14h34q13 0 11 -14l-32 -168h165q13 0 11 -14z" />
    <glyph glyph-name="daggerdbl" unicode="&#x2021;" horiz-adv-x="584" 
d="M467 90l-4 -25q-2 -14 -17 -14h-165l-33 -168q-2 -15 -17 -15h-34q-13 0 -11 15l33 168h-165q-13 0 -11 14l4 25q5 14 17 14h165l80 409h-165q-6 0 -9.5 4.5t-1.5 10.5l4 24q2 14 17 14h165l33 168q2 14 16 14h34q14 0 12 -14l-33 -168h165q13 0 11 -14l-4 -24
q-6 -15 -17 -15h-165l-80 -409h165q6 0 9.5 -4t1.5 -10z" />
    <glyph glyph-name="bullet" unicode="&#x2022;" horiz-adv-x="392" 
d="M117 333q0 45 24.5 69.5t69.5 24.5t69.5 -24.5t24.5 -69.5q0 -46 -24.5 -70.5t-69.5 -24.5t-69.5 24.5t-24.5 70.5z" />
    <glyph glyph-name="onedotenleader" unicode="&#x2024;" horiz-adv-x="292" 
d="M147 44q-11 -56 -54 -56t-32 56t54 56t32 -56z" />
    <glyph glyph-name="twodotenleader" unicode="&#x2025;" horiz-adv-x="525" 
d="M147 44q-11 -56 -54 -56t-32 56t54 56t32 -56zM380 44q-11 -56 -54 -56t-32 56t54 56t32 -56z" />
    <glyph glyph-name="ellipsis" unicode="&#x2026;" horiz-adv-x="758" 
d="M147 44q-11 -56 -54 -56t-32 56t54 56t32 -56zM380 44q-11 -56 -54 -56t-32 56t54 56t32 -56zM613 44q-11 -56 -54 -56t-32 56t54 56t32 -56z" />
    <glyph glyph-name="perthousand" unicode="&#x2030;" 
d="M648 681l-554 -673q-8 -8 -14 -8h-27q-9 0 -11 6.5t3 13.5l555 672q5 8 14 8h27q8 0 10.5 -6t-3.5 -13zM369 528q-16 -81 -65 -130.5t-117 -49.5q-69 0 -98.5 49.5t-13.5 130.5q14 80 63.5 129.5t117.5 49.5q69 0 98 -48.5t15 -130.5zM136 528q-12 -60 3.5 -93t57.5 -33
q85 0 111 126q11 59 -5.5 92t-56.5 33q-39 0 -69.5 -33.5t-40.5 -91.5zM617 172q-14 -80 -64 -130t-118 -50q-69 0 -98 49t-14 131q16 81 64.5 130t117.5 49t98.5 -49.5t13.5 -129.5zM384 172q-11 -60 4.5 -93t57.5 -33t70.5 33t39.5 93q12 59 -4.5 92t-56.5 33t-69.5 -33
t-41.5 -92zM943 172q-14 -80 -64 -130t-118 -50q-69 0 -98 49t-14 131q16 81 64.5 130t117.5 49t98.5 -49.5t13.5 -129.5zM710 172q-11 -60 4.5 -93t57.5 -33t70.5 33t39.5 93q12 59 -4.5 92t-56.5 33t-69.5 -33t-41.5 -92z" />
    <glyph glyph-name="minute" unicode="&#x2032;" horiz-adv-x="297" 
d="M114 445l110 244q7 11 17 11h47q19 0 10 -19l-138 -244q-8 -10 -15 -10h-20q-7 0 -10.5 5.5t-0.5 12.5z" />
    <glyph glyph-name="second" unicode="&#x2033;" horiz-adv-x="449" 
d="M119 445l110 244q7 11 16 11h48q18 0 9 -19l-138 -244q-6 -10 -14 -10h-20q-8 0 -11 5.5t0 12.5zM261 445l110 244q7 11 16 11h48q18 0 9 -19l-138 -244q-6 -10 -14 -10h-20q-8 0 -11 5.5t0 12.5z" />
    <glyph glyph-name="guilsinglleft" unicode="&#x2039;" horiz-adv-x="346" 
d="M80 304l3 17q1 5 7 10l223 175q9 6 13.5 2.5t2.5 -13.5l-5 -29q-1 -4 -7 -10l-185 -144l129 -144q3 -4 3 -11l-6 -28q-2 -10 -8 -13.5t-12 2.5l-155 174q-5 4 -3 12z" />
    <glyph glyph-name="guilsinglright" unicode="&#x203a;" horiz-adv-x="346" 
d="M283 321l-3 -17q-2 -7 -7 -12l-223 -174q-9 -6 -13.5 -2.5t-2.5 13.5l6 28q1 7 7 11l185 144l-129 144q-4 4 -3 10l5 29q2 10 8.5 13.5t11.5 -2.5l155 -175q5 -5 3 -10z" />
    <glyph glyph-name="exclamdbl" unicode="&#x203c;" horiz-adv-x="428" 
d="M97 183l44 300l40 203q2 14 17 14h38q14 0 12 -14l-40 -203l-71 -300q-6 -14 -17 -14h-12q-13 0 -11 14zM131 44q-11 -56 -54 -56t-32 56t54 56t32 -56zM265 183l44 300l40 203q2 14 17 14h38q14 0 12 -14l-40 -203l-71 -300q-6 -14 -17 -14h-12q-13 0 -11 14zM299 44
q-11 -56 -54 -56t-32 56t54 56t32 -56z" />
    <glyph glyph-name="uni203E" unicode="&#x203e;" horiz-adv-x="404" 
d="M132 634l4 23q2 14 17 14h256q13 0 11 -14l-4 -23q-2 -15 -17 -15h-256q-13 0 -11 15z" />
    <glyph glyph-name="fraction" unicode="&#x2044;" horiz-adv-x="433" 
d="M508 695l-515 -703q-4 -7 -14 -7h-26q-9 0 -10.5 6.5t4.5 14.5l515 702q4 7 13 7h27q9 0 10.5 -6.5t-4.5 -13.5z" />
    </font>
</defs>
</svg>
